{"glyphs":{"0":{"ha":764,"x_min":75,"x_max":688,"o":"m 382 -21 q 213 20 281 -21 q 110 133 144 61 q 75 301 75 206 l 75 811 q 108 984 75 910 q 208 1100 140 1058 q 382 1142 276 1142 q 555 1100 488 1142 q 655 984 622 1058 q 688 811 688 910 l 688 301 q 653 134 688 207 q 550 20 618 61 q 382 -21 482 -21 m 382 186 q 430 208 415 186 q 448 258 444 229 q 451 307 451 286 l 451 806 q 449 859 451 829 q 431 912 446 889 q 382 935 417 935 q 333 912 347 935 q 315 859 318 889 q 313 806 313 829 l 313 307 q 317 258 313 286 q 335 208 321 229 q 382 186 350 186 z "},"1":{"ha":540,"x_min":31,"x_max":417,"o":"m 185 0 l 185 896 q 150 879 169 888 q 109 862 131 871 q 67 844 88 853 q 31 828 47 836 l 31 1000 q 74 1023 46 1008 q 133 1056 101 1038 q 193 1092 165 1074 q 235 1125 221 1111 l 417 1125 l 417 0 l 185 0 z "},"2":{"ha":714,"x_min":54,"x_max":675,"o":"m 57 0 l 57 164 l 326 578 q 384 667 357 624 q 428 754 411 710 q 446 847 446 799 q 426 919 446 896 q 374 943 407 943 q 315 922 336 943 q 287 867 294 901 q 279 789 279 832 l 279 733 l 54 733 l 54 793 q 86 972 54 893 q 188 1095 118 1050 q 369 1140 257 1140 q 598 1062 521 1140 q 675 843 675 983 q 653 717 675 775 q 597 603 632 658 q 521 489 561 549 l 315 182 l 644 182 l 644 0 l 57 0 z "},"3":{"ha":714,"x_min":53,"x_max":671,"o":"m 363 -21 q 177 24 244 -21 q 81 148 110 68 q 53 332 53 228 l 53 372 l 285 372 q 285 357 285 371 q 285 332 285 343 q 292 242 285 276 q 317 191 299 207 q 367 175 335 175 q 415 192 399 175 q 436 242 431 208 q 442 325 442 275 q 419 452 442 408 q 324 497 396 496 q 308 497 322 497 q 281 497 294 497 l 281 657 q 300 657 290 657 q 318 657 310 657 q 417 697 392 657 q 442 822 442 738 q 424 922 442 888 q 360 957 407 957 q 299 918 314 957 q 285 818 285 879 q 285 790 285 804 q 285 760 285 775 l 53 760 l 53 828 q 90 999 53 929 q 195 1106 126 1069 q 360 1142 264 1142 q 526 1107 457 1142 q 633 1005 596 1072 q 671 838 671 938 q 631 672 671 739 q 533 590 590 606 q 603 546 572 576 q 653 463 635 515 q 671 331 671 411 q 641 149 671 228 q 543 24 611 69 q 363 -21 475 -21 z "},"4":{"ha":728,"x_min":35,"x_max":701,"o":"m 381 0 l 381 253 l 35 253 l 35 424 l 328 1125 l 597 1125 l 597 425 l 701 425 l 701 253 l 597 253 l 597 0 l 381 0 m 211 425 l 381 425 l 381 893 l 211 425 z "},"5":{"ha":707,"x_min":60,"x_max":661,"o":"m 354 -21 q 167 23 231 -21 q 82 146 104 67 q 60 329 60 225 l 283 329 q 290 225 283 265 q 316 167 297 185 q 369 151 335 150 q 421 181 406 153 q 440 260 436 208 q 443 386 443 313 q 437 485 443 442 q 412 553 431 528 q 356 579 393 579 q 299 554 321 579 q 267 476 276 529 l 67 476 l 88 1125 l 613 1125 l 613 931 l 274 931 l 261 699 q 314 733 275 718 q 397 751 353 747 q 542 720 483 761 q 631 596 601 679 q 661 392 661 513 q 650 226 661 301 q 607 95 639 150 q 514 10 575 40 q 354 -21 453 -21 z "},"6":{"ha":747,"x_min":72,"x_max":690,"o":"m 383 -17 q 205 31 274 -17 q 104 163 136 79 q 72 353 72 246 l 72 760 q 98 956 72 869 q 190 1091 124 1042 q 382 1140 257 1140 q 553 1107 490 1140 q 642 1010 615 1074 q 668 851 668 946 q 669 841 668 846 q 669 832 669 836 l 451 832 q 441 933 451 900 q 383 965 431 965 q 335 946 351 965 q 314 878 319 926 q 308 742 308 829 l 308 642 q 363 687 325 671 q 447 704 400 703 q 590 664 536 707 q 667 547 643 621 q 690 381 690 472 q 663 173 690 263 q 568 33 635 83 q 383 -17 501 -17 m 386 154 q 433 176 418 154 q 452 240 447 197 q 457 344 457 282 q 453 440 457 400 q 435 503 450 481 q 383 526 419 526 q 351 519 367 526 q 325 502 336 513 q 308 482 314 492 l 308 299 q 315 228 308 261 q 338 174 321 194 q 386 154 356 154 z "},"7":{"ha":610,"x_min":28,"x_max":561,"o":"m 90 0 l 335 949 l 28 949 l 28 1125 l 561 1125 l 561 965 l 317 0 l 90 0 z "},"8":{"ha":724,"x_min":53,"x_max":672,"o":"m 361 -18 q 179 27 247 -18 q 82 152 111 72 q 53 335 53 232 q 62 416 54 376 q 85 490 69 456 q 126 549 101 524 q 183 592 150 575 q 107 684 140 624 q 71 838 74 744 q 102 1000 69 932 q 200 1104 135 1068 q 361 1140 265 1140 q 523 1103 458 1140 q 619 999 588 1067 q 649 838 651 932 q 615 683 647 743 q 539 592 583 622 q 597 549 572 575 q 637 490 621 524 q 661 416 653 456 q 669 335 669 376 q 642 152 672 232 q 544 27 613 72 q 361 -18 476 -18 m 361 153 q 415 181 399 153 q 436 247 432 208 q 440 317 440 285 q 437 400 442 360 q 415 466 432 440 q 361 492 399 492 q 308 466 325 492 q 287 401 292 440 q 282 317 282 361 q 286 246 282 285 q 308 180 290 207 q 361 153 325 153 m 361 675 q 400 694 385 675 q 423 750 415 713 q 431 843 431 788 q 413 933 431 900 q 361 967 396 967 q 308 933 326 967 q 289 844 289 900 q 297 751 289 789 q 321 694 304 713 q 361 675 338 675 z "},"9":{"ha":747,"x_min":54,"x_max":672,"o":"m 363 -17 q 192 17 254 -17 q 103 115 129 50 q 76 274 76 179 q 76 283 76 278 q 76 292 76 288 l 293 292 q 305 191 293 224 q 364 158 317 158 q 411 178 396 158 q 431 247 426 197 q 436 382 436 296 l 436 482 q 381 438 418 453 q 299 419 344 422 q 156 464 210 418 q 78 588 101 510 q 54 757 54 665 q 84 960 54 875 q 182 1093 114 1046 q 363 1140 250 1140 q 542 1096 474 1140 q 641 972 610 1051 q 672 783 672 892 l 672 364 q 647 168 672 254 q 554 33 621 82 q 363 -17 488 -17 m 365 597 q 410 613 393 597 q 436 642 426 628 l 436 825 q 431 897 436 864 q 410 949 425 929 q 363 969 394 969 q 317 948 332 969 q 297 884 301 926 q 292 779 292 842 q 295 684 292 725 q 314 620 299 643 q 365 597 329 597 z "},"A":{"ha":765,"x_min":29,"x_max":735,"o":"m 29 0 l 242 1125 l 525 1125 l 735 0 l 506 0 l 468 238 l 303 238 l 264 0 l 29 0 m 325 386 l 444 386 l 385 825 l 325 386 z "},"Á":{"ha":765,"x_min":29,"x_max":735,"o":"m 29 0 l 242 1125 l 525 1125 l 735 0 l 506 0 l 468 238 l 303 238 l 264 0 l 29 0 m 325 386 l 444 386 l 385 825 l 325 386 m 308 1214 l 396 1493 l 626 1493 l 451 1214 l 308 1214 z "},"Ă":{"ha":765,"x_min":29,"x_max":735,"o":"m 29 0 l 242 1125 l 525 1125 l 735 0 l 506 0 l 468 238 l 303 238 l 264 0 l 29 0 m 325 386 l 444 386 l 385 825 l 325 386 m 383 1215 q 225 1271 285 1215 q 165 1432 165 1326 l 293 1432 q 313 1356 293 1381 q 383 1331 333 1331 q 453 1356 432 1331 q 474 1432 474 1382 l 601 1432 q 542 1271 601 1326 q 383 1215 482 1215 z "},"Ắ":{"ha":765,"x_min":29,"x_max":735,"o":"m 29 0 l 242 1125 l 525 1125 l 735 0 l 506 0 l 468 238 l 303 238 l 264 0 l 29 0 m 325 386 l 444 386 l 385 825 l 325 386 m 290 1479 l 389 1640 l 574 1640 l 421 1479 l 290 1479 m 383 1210 q 225 1265 285 1210 q 165 1426 165 1321 l 293 1426 q 313 1350 293 1375 q 383 1325 333 1325 q 453 1351 432 1325 q 474 1426 474 1376 l 601 1426 q 542 1265 601 1321 q 383 1210 482 1210 z "},"Ặ":{"ha":765,"x_min":29,"x_max":735,"o":"m 29 0 l 242 1125 l 525 1125 l 735 0 l 506 0 l 468 238 l 303 238 l 264 0 l 29 0 m 325 386 l 444 386 l 385 825 l 325 386 m 285 -289 l 285 -97 l 479 -97 l 479 -289 l 285 -289 m 383 1215 q 225 1271 285 1215 q 165 1432 165 1326 l 293 1432 q 313 1356 293 1381 q 383 1331 333 1331 q 453 1356 432 1331 q 474 1432 474 1382 l 601 1432 q 542 1271 601 1326 q 383 1215 482 1215 z "},"Ằ":{"ha":765,"x_min":29,"x_max":735,"o":"m 29 0 l 242 1125 l 525 1125 l 735 0 l 506 0 l 468 238 l 303 238 l 264 0 l 29 0 m 325 386 l 444 386 l 385 825 l 325 386 m 346 1479 l 193 1640 l 376 1640 l 475 1479 l 346 1479 m 383 1210 q 225 1265 285 1210 q 165 1426 165 1321 l 293 1426 q 313 1350 293 1375 q 383 1325 333 1325 q 453 1351 432 1325 q 474 1426 474 1376 l 601 1426 q 542 1265 601 1321 q 383 1210 482 1210 z "},"Ẳ":{"ha":765,"x_min":29,"x_max":735,"o":"m 29 0 l 242 1125 l 525 1125 l 735 0 l 506 0 l 468 238 l 303 238 l 264 0 l 29 0 m 325 386 l 444 386 l 385 825 l 325 386 m 401 1436 l 338 1504 q 375 1542 361 1524 q 389 1588 389 1561 q 372 1628 389 1614 q 325 1643 354 1643 q 287 1639 304 1643 q 254 1629 269 1635 l 254 1724 q 310 1740 282 1735 q 369 1746 339 1746 q 484 1712 439 1746 q 529 1608 529 1678 q 491 1504 529 1544 q 401 1436 453 1464 m 383 1215 q 225 1271 285 1215 q 165 1432 165 1326 l 293 1432 q 313 1356 293 1381 q 383 1331 333 1331 q 453 1356 432 1331 q 474 1432 474 1382 l 601 1432 q 542 1271 601 1326 q 383 1215 482 1215 z "},"Ẵ":{"ha":765,"x_min":29,"x_max":735,"o":"m 29 0 l 242 1125 l 525 1125 l 735 0 l 506 0 l 468 238 l 303 238 l 264 0 l 29 0 m 325 386 l 444 386 l 385 825 l 325 386 z "},"Ǎ":{"ha":765,"x_min":29,"x_max":735,"o":"m 29 0 l 242 1125 l 525 1125 l 735 0 l 506 0 l 468 238 l 303 238 l 264 0 l 29 0 m 325 386 l 444 386 l 385 825 l 325 386 m 274 1210 l 151 1469 l 313 1469 l 383 1317 l 454 1469 l 615 1469 l 493 1210 l 274 1210 z "},"Â":{"ha":765,"x_min":29,"x_max":735,"o":"m 29 0 l 242 1125 l 525 1125 l 735 0 l 506 0 l 468 238 l 303 238 l 264 0 l 29 0 m 325 386 l 444 386 l 385 825 l 325 386 m 157 1224 l 289 1490 l 474 1490 l 610 1224 l 443 1224 l 382 1389 l 322 1224 l 157 1224 z "},"Ấ":{"ha":765,"x_min":29,"x_max":813,"o":"m 29 0 l 242 1125 l 525 1125 l 735 0 l 506 0 l 468 238 l 303 238 l 264 0 l 29 0 m 325 386 l 444 386 l 385 825 l 325 386 m 157 1224 l 289 1456 l 474 1456 l 610 1224 l 449 1224 l 382 1363 l 317 1224 l 157 1224 m 571 1388 l 644 1558 l 813 1558 l 690 1388 l 571 1388 z "},"Ậ":{"ha":765,"x_min":29,"x_max":735,"o":"m 29 0 l 242 1125 l 525 1125 l 735 0 l 506 0 l 468 238 l 303 238 l 264 0 l 29 0 m 325 386 l 444 386 l 385 825 l 325 386 m 157 1224 l 289 1456 l 474 1456 l 610 1224 l 449 1224 l 382 1363 l 317 1224 l 157 1224 m 285 -289 l 285 -97 l 479 -97 l 479 -289 l 285 -289 z "},"Ầ":{"ha":765,"x_min":29,"x_max":735,"o":"m 29 0 l 242 1125 l 525 1125 l 735 0 l 506 0 l 468 238 l 303 238 l 264 0 l 29 0 m 325 386 l 444 386 l 385 825 l 325 386 m 157 1224 l 289 1456 l 474 1456 l 610 1224 l 449 1224 l 382 1363 l 317 1224 l 157 1224 m 611 1388 l 489 1558 l 658 1558 l 732 1388 l 611 1388 z "},"Ẩ":{"ha":765,"x_min":29,"x_max":754,"o":"m 29 0 l 242 1125 l 525 1125 l 735 0 l 506 0 l 468 238 l 303 238 l 264 0 l 29 0 m 325 386 l 444 386 l 385 825 l 325 386 m 628 1351 l 564 1419 q 601 1458 588 1439 q 615 1503 615 1476 q 598 1544 615 1529 q 551 1558 581 1558 q 512 1554 529 1558 q 481 1544 494 1550 l 481 1639 q 536 1656 508 1650 q 594 1661 564 1661 q 709 1627 664 1661 q 754 1524 754 1593 q 716 1418 754 1457 q 628 1351 678 1379 m 157 1224 l 289 1456 l 474 1456 l 610 1224 l 449 1224 l 382 1363 l 317 1224 l 157 1224 z "},"Ẫ":{"ha":765,"x_min":29,"x_max":735,"o":"m 29 0 l 242 1125 l 525 1125 l 735 0 l 506 0 l 468 238 l 303 238 l 264 0 l 29 0 m 325 386 l 444 386 l 385 825 l 325 386 z "},"Ȁ":{"ha":765,"x_min":29,"x_max":735,"o":"m 29 0 l 242 1125 l 525 1125 l 735 0 l 506 0 l 468 238 l 303 238 l 264 0 l 29 0 m 325 386 l 444 386 l 385 825 l 325 386 m 213 1208 l 74 1496 l 246 1496 l 335 1208 l 213 1208 m 456 1208 l 328 1496 l 493 1496 l 575 1208 l 456 1208 z "},"Ä":{"ha":765,"x_min":29,"x_max":735,"o":"m 29 0 l 242 1125 l 525 1125 l 735 0 l 506 0 l 468 238 l 303 238 l 264 0 l 29 0 m 325 386 l 444 386 l 385 825 l 325 386 m 444 1242 l 444 1447 l 625 1447 l 625 1242 l 444 1242 m 142 1242 l 142 1447 l 322 1447 l 322 1242 l 142 1242 z "},"Ạ":{"ha":765,"x_min":29,"x_max":735,"o":"m 29 0 l 242 1125 l 525 1125 l 735 0 l 506 0 l 468 238 l 303 238 l 264 0 l 29 0 m 325 386 l 444 386 l 385 825 l 325 386 m 285 -289 l 285 -97 l 479 -97 l 479 -289 l 285 -289 z "},"À":{"ha":765,"x_min":29,"x_max":735,"o":"m 29 0 l 242 1125 l 525 1125 l 735 0 l 506 0 l 468 238 l 303 238 l 264 0 l 29 0 m 325 386 l 444 386 l 385 825 l 325 386 m 317 1214 l 140 1493 l 374 1493 l 458 1214 l 317 1214 z "},"Ả":{"ha":765,"x_min":29,"x_max":735,"o":"m 29 0 l 242 1125 l 525 1125 l 735 0 l 506 0 l 468 238 l 303 238 l 264 0 l 29 0 m 325 386 l 444 386 l 385 825 l 325 386 m 383 1193 l 307 1265 q 378 1303 349 1285 q 407 1354 407 1322 q 385 1392 407 1382 q 328 1403 363 1403 q 283 1400 306 1403 q 242 1393 260 1397 l 242 1488 q 383 1506 308 1506 q 467 1492 428 1506 q 529 1448 506 1478 q 553 1368 553 1418 q 529 1286 553 1319 q 467 1231 506 1253 q 383 1193 429 1210 z "},"Ȃ":{"ha":765,"x_min":29,"x_max":735,"o":"m 29 0 l 242 1125 l 525 1125 l 735 0 l 506 0 l 468 238 l 303 238 l 264 0 l 29 0 m 325 386 l 444 386 l 385 825 l 325 386 m 165 1224 q 192 1344 165 1296 q 267 1419 218 1393 q 383 1444 317 1444 q 500 1419 451 1444 q 575 1344 549 1393 q 601 1224 601 1296 l 474 1224 q 453 1303 474 1278 q 383 1329 432 1329 q 314 1304 335 1329 q 293 1224 293 1279 l 165 1224 z "},"Ā":{"ha":765,"x_min":29,"x_max":735,"o":"m 29 0 l 242 1125 l 525 1125 l 735 0 l 506 0 l 468 238 l 303 238 l 264 0 l 29 0 m 325 386 l 444 386 l 385 825 l 325 386 m 192 1247 l 192 1354 l 575 1354 l 575 1247 l 192 1247 z "},"Ą":{"ha":765,"x_min":29,"x_max":761,"o":"m 29 0 l 242 1125 l 525 1125 l 735 0 l 506 0 l 468 238 l 303 238 l 264 0 l 29 0 m 325 386 l 444 386 l 385 825 l 325 386 m 693 -361 q 619 -356 658 -361 q 547 -336 581 -351 q 493 -291 514 -321 q 472 -211 472 -261 q 488 -135 472 -175 q 528 -60 503 -96 q 581 0 553 -25 l 682 0 q 658 -52 669 -24 q 639 -110 646 -81 q 632 -168 632 -139 q 659 -233 632 -215 q 721 -250 686 -250 q 743 -249 732 -250 q 761 -247 754 -249 l 739 -357 q 719 -360 731 -358 q 693 -361 707 -361 z "},"Å":{"ha":765,"x_min":29,"x_max":735,"o":"m 29 0 l 242 1125 l 525 1125 l 735 0 l 506 0 l 468 238 l 303 238 l 264 0 l 29 0 m 325 386 l 444 386 l 385 825 l 325 386 m 382 1186 q 269 1224 317 1186 q 221 1338 221 1263 q 269 1452 221 1414 q 382 1490 317 1490 q 497 1451 447 1490 q 546 1338 546 1413 q 497 1224 546 1263 q 382 1186 449 1186 m 382 1265 q 434 1287 417 1265 q 451 1338 451 1308 q 434 1390 451 1368 q 382 1411 417 1411 q 331 1390 349 1411 q 314 1338 314 1368 q 331 1287 314 1308 q 382 1265 349 1265 z "},"Ǻ":{"ha":765,"x_min":29,"x_max":735,"o":"m 29 0 l 242 1125 l 525 1125 l 735 0 l 506 0 l 468 238 l 303 238 l 264 0 l 29 0 m 325 386 l 444 386 l 385 825 l 325 386 m 382 1186 q 269 1224 317 1186 q 221 1338 221 1263 q 269 1452 221 1414 q 382 1490 317 1490 q 497 1451 447 1490 q 546 1338 546 1413 q 497 1224 546 1263 q 382 1186 449 1186 m 382 1265 q 434 1287 417 1265 q 451 1338 451 1308 q 434 1390 451 1368 q 382 1411 417 1411 q 331 1390 349 1411 q 314 1338 314 1368 q 331 1287 314 1308 q 382 1265 349 1265 m 308 1551 l 396 1831 l 626 1831 l 451 1551 l 308 1551 z "},"Ã":{"ha":765,"x_min":29,"x_max":735,"o":"m 29 0 l 242 1125 l 525 1125 l 735 0 l 506 0 l 468 238 l 303 238 l 264 0 l 29 0 m 325 386 l 444 386 l 385 825 l 325 386 m 496 1250 q 432 1267 461 1250 q 376 1299 403 1283 q 322 1315 350 1315 q 282 1298 292 1315 q 272 1258 272 1281 l 164 1258 q 175 1360 164 1315 q 214 1430 186 1404 q 289 1456 242 1456 q 351 1440 324 1456 q 404 1410 378 1425 q 460 1394 431 1394 q 493 1410 483 1394 q 503 1447 503 1425 l 603 1447 q 597 1357 603 1403 q 567 1281 590 1311 q 496 1250 544 1250 z "},"Æ":{"ha":983,"x_min":-18,"x_max":957,"o":"m -18 0 l 472 1108 l 957 1108 l 957 939 l 721 939 l 721 668 l 888 668 l 888 494 l 721 494 l 721 168 l 957 168 l 957 0 l 508 0 l 508 235 l 326 235 l 231 0 l -18 0 m 376 390 l 508 390 l 508 742 l 376 390 z "},"Ǽ":{"ha":983,"x_min":-18,"x_max":957,"o":"m -18 0 l 472 1108 l 957 1108 l 957 939 l 721 939 l 721 668 l 888 668 l 888 494 l 721 494 l 721 168 l 957 168 l 957 0 l 508 0 l 508 235 l 326 235 l 231 0 l -18 0 m 376 390 l 508 390 l 508 742 l 376 390 m 539 1214 l 626 1493 l 857 1493 l 682 1214 l 539 1214 z "},"B":{"ha":817,"x_min":83,"x_max":769,"o":"m 83 0 l 83 1125 l 376 1125 q 513 1114 449 1125 q 628 1072 578 1103 q 706 983 678 1040 q 735 831 735 925 q 715 716 735 763 q 658 642 694 669 q 569 604 621 614 q 679 562 635 596 q 747 471 724 528 q 769 333 769 414 q 747 183 769 246 q 681 79 724 119 q 574 19 638 39 q 429 0 511 0 l 83 0 m 332 174 l 385 174 q 498 215 467 174 q 529 338 529 257 q 515 439 529 401 q 469 494 501 476 q 383 511 438 511 l 332 511 l 332 174 m 332 675 l 381 675 q 467 692 438 675 q 506 743 496 710 q 517 824 517 776 q 501 898 517 868 q 453 943 485 928 q 375 958 422 958 l 332 958 l 332 675 z "},"Ḃ":{"ha":817,"x_min":83,"x_max":769,"o":"m 83 0 l 83 1125 l 376 1125 q 513 1114 449 1125 q 628 1072 578 1103 q 706 983 678 1040 q 735 831 735 925 q 715 716 735 763 q 658 642 694 669 q 569 604 621 614 q 679 562 635 596 q 747 471 724 528 q 769 333 769 414 q 747 183 769 246 q 681 79 724 119 q 574 19 638 39 q 429 0 511 0 l 83 0 m 332 174 l 385 174 q 498 215 467 174 q 529 338 529 257 q 515 439 529 401 q 469 494 501 476 q 383 511 438 511 l 332 511 l 332 174 m 332 675 l 381 675 q 467 692 438 675 q 506 743 496 710 q 517 824 517 776 q 501 898 517 868 q 453 943 485 928 q 375 958 422 958 l 332 958 l 332 675 m 303 1228 l 303 1442 l 517 1442 l 517 1228 l 303 1228 z "},"C":{"ha":782,"x_min":68,"x_max":729,"o":"m 406 -17 q 203 30 278 -17 q 99 160 129 76 q 68 358 68 244 l 68 764 q 99 965 68 881 q 203 1094 129 1049 q 406 1140 278 1140 q 601 1099 531 1140 q 700 985 671 1058 q 729 815 729 911 l 729 718 l 486 718 l 486 831 q 483 894 486 864 q 463 945 479 925 q 406 965 446 965 q 348 944 367 965 q 324 892 329 924 q 319 826 319 861 l 319 297 q 326 228 319 260 q 351 178 332 197 q 406 160 369 160 q 461 180 444 160 q 482 232 478 200 q 486 297 486 264 l 486 415 l 729 415 l 729 318 q 701 147 729 222 q 602 27 672 71 q 406 -17 532 -17 z "},"Ć":{"ha":782,"x_min":68,"x_max":729,"o":"m 406 -17 q 203 30 278 -17 q 99 160 129 76 q 68 358 68 244 l 68 764 q 99 965 68 881 q 203 1094 129 1049 q 406 1140 278 1140 q 601 1099 531 1140 q 700 985 671 1058 q 729 815 729 911 l 729 718 l 486 718 l 486 831 q 483 894 486 864 q 463 945 479 925 q 406 965 446 965 q 348 944 367 965 q 324 892 329 924 q 319 826 319 861 l 319 297 q 326 228 319 260 q 351 178 332 197 q 406 160 369 160 q 461 180 444 160 q 482 232 478 200 q 486 297 486 264 l 486 415 l 729 415 l 729 318 q 701 147 729 222 q 602 27 672 71 q 406 -17 532 -17 m 328 1214 l 415 1493 l 646 1493 l 471 1214 l 328 1214 z "},"Č":{"ha":782,"x_min":68,"x_max":729,"o":"m 406 -17 q 203 30 278 -17 q 99 160 129 76 q 68 358 68 244 l 68 764 q 99 965 68 881 q 203 1094 129 1049 q 406 1140 278 1140 q 601 1099 531 1140 q 700 985 671 1058 q 729 815 729 911 l 729 718 l 486 718 l 486 831 q 483 894 486 864 q 463 945 479 925 q 406 965 446 965 q 348 944 367 965 q 324 892 329 924 q 319 826 319 861 l 319 297 q 326 228 319 260 q 351 178 332 197 q 406 160 369 160 q 461 180 444 160 q 482 232 478 200 q 486 297 486 264 l 486 415 l 729 415 l 729 318 q 701 147 729 222 q 602 27 672 71 q 406 -17 532 -17 m 293 1210 l 171 1469 l 332 1469 l 403 1317 l 474 1469 l 635 1469 l 513 1210 l 293 1210 z "},"Ç":{"ha":782,"x_min":68,"x_max":729,"o":"m 406 -17 q 203 30 278 -17 q 99 160 129 76 q 68 358 68 244 l 68 764 q 99 965 68 881 q 203 1094 129 1049 q 406 1140 278 1140 q 601 1099 531 1140 q 700 985 671 1058 q 729 815 729 911 l 729 718 l 486 718 l 486 831 q 483 894 486 864 q 463 945 479 925 q 406 965 446 965 q 348 944 367 965 q 324 892 329 924 q 319 826 319 861 l 319 297 q 326 228 319 260 q 351 178 332 197 q 406 160 369 160 q 461 180 444 160 q 482 232 478 200 q 486 297 486 264 l 486 415 l 729 415 l 729 318 q 701 147 729 222 q 602 27 672 71 q 406 -17 532 -17 m 419 -385 q 366 -381 393 -385 q 314 -368 339 -376 l 314 -271 q 350 -278 329 -275 q 393 -282 371 -282 q 454 -271 429 -282 q 479 -233 479 -260 q 459 -192 479 -207 q 410 -169 439 -176 q 351 -161 381 -162 l 351 0 l 433 0 l 433 -92 q 572 -127 519 -92 q 624 -236 624 -162 q 595 -322 624 -289 q 520 -370 567 -356 q 419 -385 474 -385 z "},"Ĉ":{"ha":782,"x_min":68,"x_max":729,"o":"m 406 -17 q 203 30 278 -17 q 99 160 129 76 q 68 358 68 244 l 68 764 q 99 965 68 881 q 203 1094 129 1049 q 406 1140 278 1140 q 601 1099 531 1140 q 700 985 671 1058 q 729 815 729 911 l 729 718 l 486 718 l 486 831 q 483 894 486 864 q 463 945 479 925 q 406 965 446 965 q 348 944 367 965 q 324 892 329 924 q 319 826 319 861 l 319 297 q 326 228 319 260 q 351 178 332 197 q 406 160 369 160 q 461 180 444 160 q 482 232 478 200 q 486 297 486 264 l 486 415 l 729 415 l 729 318 q 701 147 729 222 q 602 27 672 71 q 406 -17 532 -17 m 176 1224 l 308 1490 l 493 1490 l 629 1224 l 463 1224 l 401 1389 l 342 1224 l 176 1224 z "},"Ċ":{"ha":782,"x_min":68,"x_max":729,"o":"m 406 -17 q 203 30 278 -17 q 99 160 129 76 q 68 358 68 244 l 68 764 q 99 965 68 881 q 203 1094 129 1049 q 406 1140 278 1140 q 601 1099 531 1140 q 700 985 671 1058 q 729 815 729 911 l 729 718 l 486 718 l 486 831 q 483 894 486 864 q 463 945 479 925 q 406 965 446 965 q 348 944 367 965 q 324 892 329 924 q 319 826 319 861 l 319 297 q 326 228 319 260 q 351 178 332 197 q 406 160 369 160 q 461 180 444 160 q 482 232 478 200 q 486 297 486 264 l 486 415 l 729 415 l 729 318 q 701 147 729 222 q 602 27 672 71 q 406 -17 532 -17 m 296 1228 l 296 1442 l 510 1442 l 510 1228 l 296 1228 z "},"D":{"ha":814,"x_min":83,"x_max":746,"o":"m 83 0 l 83 1125 l 368 1125 q 597 1088 515 1125 q 713 973 679 1051 q 746 769 746 894 l 746 361 q 713 155 746 235 q 598 38 679 75 q 371 0 517 0 l 83 0 m 332 172 l 371 172 q 453 189 428 172 q 484 239 478 206 q 490 322 490 272 l 490 813 q 483 893 490 863 q 450 938 475 924 q 369 951 425 951 l 332 951 l 332 172 z "},"Ǳ":{"ha":1403,"x_min":83,"x_max":1365,"o":"m 83 0 l 83 1125 l 368 1125 q 597 1088 515 1125 q 713 973 679 1051 q 746 769 746 894 l 746 361 q 713 155 746 235 q 598 38 679 75 q 371 0 517 0 l 83 0 m 332 172 l 371 172 q 453 189 428 172 q 484 239 478 206 q 490 322 490 272 l 490 813 q 483 893 490 863 q 450 938 475 924 q 369 951 425 951 l 332 951 l 332 172 m 843 0 l 843 150 l 1118 957 l 856 957 l 856 1125 l 1363 1125 l 1363 985 l 1083 168 l 1365 168 l 1365 0 l 843 0 z "},"Ǆ":{"ha":1404,"x_min":83,"x_max":1365,"o":"m 83 0 l 83 1125 l 368 1125 q 597 1088 515 1125 q 713 973 679 1051 q 746 769 746 894 l 746 361 q 713 155 746 235 q 598 38 679 75 q 371 0 517 0 l 83 0 m 332 172 l 371 172 q 453 189 428 172 q 484 239 478 206 q 490 322 490 272 l 490 813 q 483 893 490 863 q 450 938 475 924 q 369 951 425 951 l 332 951 l 332 172 z "},"Ð":{"ha":782,"x_min":10,"x_max":735,"o":"m 71 0 l 71 514 l 10 514 l 10 638 l 71 638 l 71 1125 l 357 1125 q 586 1088 504 1125 q 701 973 668 1051 q 735 769 735 894 l 735 361 q 701 155 735 235 q 587 38 668 75 q 360 0 506 0 l 71 0 m 321 172 l 360 172 q 442 189 417 172 q 474 239 467 206 q 481 322 481 272 l 481 813 q 473 893 481 863 q 440 938 465 924 q 360 951 415 951 l 321 951 l 321 638 l 378 638 l 378 514 l 321 514 l 321 172 z "},"Ď":{"ha":814,"x_min":83,"x_max":746,"o":"m 83 0 l 83 1125 l 368 1125 q 597 1088 515 1125 q 713 973 679 1051 q 746 769 746 894 l 746 361 q 713 155 746 235 q 598 38 679 75 q 371 0 517 0 l 83 0 m 332 172 l 371 172 q 453 189 428 172 q 484 239 478 206 q 490 322 490 272 l 490 813 q 483 893 490 863 q 450 938 475 924 q 369 951 425 951 l 332 951 l 332 172 m 297 1210 l 175 1469 l 336 1469 l 407 1317 l 478 1469 l 639 1469 l 517 1210 l 297 1210 z "},"Đ":{"ha":818,"x_min":18,"x_max":751,"o":"m 89 0 l 89 519 l 18 519 l 18 633 l 89 633 l 89 1125 l 374 1125 q 604 1088 522 1125 q 719 973 686 1051 q 751 769 751 894 l 751 361 q 718 155 751 235 q 603 38 685 75 q 378 0 522 0 l 89 0 m 332 172 l 382 172 q 464 189 439 172 q 496 239 489 206 q 503 322 503 272 l 503 813 q 495 893 503 863 q 462 938 488 924 q 382 951 436 951 l 332 951 l 332 633 l 400 633 l 400 519 l 332 519 l 332 172 z "},"Ḋ":{"ha":814,"x_min":83,"x_max":746,"o":"m 83 0 l 83 1125 l 368 1125 q 597 1088 515 1125 q 713 973 679 1051 q 746 769 746 894 l 746 361 q 713 155 746 235 q 598 38 679 75 q 371 0 517 0 l 83 0 m 332 172 l 371 172 q 453 189 428 172 q 484 239 478 206 q 490 322 490 272 l 490 813 q 483 893 490 863 q 450 938 475 924 q 369 951 425 951 l 332 951 l 332 172 m 300 1228 l 300 1442 l 514 1442 l 514 1228 l 300 1228 z "},"ǲ":{"ha":1358,"x_min":83,"x_max":1322,"o":"m 83 0 l 83 1125 l 368 1125 q 597 1088 515 1125 q 713 973 679 1051 q 746 769 746 894 l 746 361 q 713 155 746 235 q 598 38 679 75 q 371 0 517 0 l 83 0 m 332 172 l 371 172 q 453 189 428 172 q 484 239 478 206 q 490 322 490 272 l 490 813 q 483 893 490 863 q 450 938 475 924 q 369 951 425 951 l 332 951 l 332 172 m 863 0 l 863 146 l 1083 638 l 879 638 l 879 803 l 1319 803 l 1319 665 l 1096 165 l 1322 165 l 1322 0 l 863 0 z "},"ǅ":{"ha":1358,"x_min":83,"x_max":1322,"o":"m 83 0 l 83 1125 l 368 1125 q 597 1088 515 1125 q 713 973 679 1051 q 746 769 746 894 l 746 361 q 713 155 746 235 q 598 38 679 75 q 371 0 517 0 l 83 0 m 332 172 l 371 172 q 453 189 428 172 q 484 239 478 206 q 490 322 490 272 l 490 813 q 483 893 490 863 q 450 938 475 924 q 369 951 425 951 l 332 951 l 332 172 z "},"E":{"ha":621,"x_min":83,"x_max":592,"o":"m 83 0 l 83 1125 l 589 1125 l 589 956 l 332 956 l 332 676 l 528 676 l 528 504 l 332 504 l 332 168 l 592 168 l 592 0 l 83 0 z "},"É":{"ha":621,"x_min":83,"x_max":592,"o":"m 83 0 l 83 1125 l 589 1125 l 589 956 l 332 956 l 332 676 l 528 676 l 528 504 l 332 504 l 332 168 l 592 168 l 592 0 l 83 0 m 264 1214 l 351 1493 l 582 1493 l 407 1214 l 264 1214 z "},"Ĕ":{"ha":621,"x_min":83,"x_max":592,"o":"m 83 0 l 83 1125 l 589 1125 l 589 956 l 332 956 l 332 676 l 528 676 l 528 504 l 332 504 l 332 168 l 592 168 l 592 0 l 83 0 m 339 1215 q 181 1271 240 1215 q 121 1432 121 1326 l 249 1432 q 269 1356 249 1381 q 339 1331 289 1331 q 408 1356 388 1331 q 429 1432 429 1382 l 557 1432 q 497 1271 557 1326 q 339 1215 438 1215 z "},"Ě":{"ha":621,"x_min":83,"x_max":592,"o":"m 83 0 l 83 1125 l 589 1125 l 589 956 l 332 956 l 332 676 l 528 676 l 528 504 l 332 504 l 332 168 l 592 168 l 592 0 l 83 0 m 229 1210 l 107 1469 l 268 1469 l 339 1317 l 410 1469 l 571 1469 l 449 1210 l 229 1210 z "},"Ê":{"ha":621,"x_min":83,"x_max":592,"o":"m 83 0 l 83 1125 l 589 1125 l 589 956 l 332 956 l 332 676 l 528 676 l 528 504 l 332 504 l 332 168 l 592 168 l 592 0 l 83 0 m 113 1224 l 244 1490 l 429 1490 l 565 1224 l 399 1224 l 338 1389 l 278 1224 l 113 1224 z "},"Ế":{"ha":621,"x_min":83,"x_max":768,"o":"m 83 0 l 83 1125 l 589 1125 l 589 956 l 332 956 l 332 676 l 528 676 l 528 504 l 332 504 l 332 168 l 592 168 l 592 0 l 83 0 m 113 1224 l 244 1456 l 429 1456 l 565 1224 l 404 1224 l 338 1363 l 272 1224 l 113 1224 m 526 1388 l 600 1558 l 768 1558 l 646 1388 l 526 1388 z "},"Ệ":{"ha":621,"x_min":83,"x_max":592,"o":"m 83 0 l 83 1125 l 589 1125 l 589 956 l 332 956 l 332 676 l 528 676 l 528 504 l 332 504 l 332 168 l 592 168 l 592 0 l 83 0 m 113 1224 l 244 1456 l 429 1456 l 565 1224 l 404 1224 l 338 1363 l 272 1224 l 113 1224 m 214 -289 l 214 -97 l 408 -97 l 408 -289 l 214 -289 z "},"Ề":{"ha":621,"x_min":83,"x_max":688,"o":"m 83 0 l 83 1125 l 589 1125 l 589 956 l 332 956 l 332 676 l 528 676 l 528 504 l 332 504 l 332 168 l 592 168 l 592 0 l 83 0 m 113 1224 l 244 1456 l 429 1456 l 565 1224 l 404 1224 l 338 1363 l 272 1224 l 113 1224 m 567 1388 l 444 1558 l 614 1558 l 688 1388 l 567 1388 z "},"Ể":{"ha":621,"x_min":83,"x_max":710,"o":"m 83 0 l 83 1125 l 589 1125 l 589 956 l 332 956 l 332 676 l 528 676 l 528 504 l 332 504 l 332 168 l 592 168 l 592 0 l 83 0 m 583 1351 l 519 1419 q 557 1458 543 1439 q 571 1503 571 1476 q 553 1544 571 1529 q 507 1558 536 1558 q 467 1554 485 1558 q 436 1544 450 1550 l 436 1639 q 492 1656 464 1650 q 550 1661 519 1661 q 665 1627 619 1661 q 710 1524 710 1593 q 672 1418 710 1457 q 583 1351 633 1379 m 113 1224 l 244 1456 l 429 1456 l 565 1224 l 404 1224 l 338 1363 l 272 1224 l 113 1224 z "},"Ễ":{"ha":621,"x_min":83,"x_max":592,"o":"m 83 0 l 83 1125 l 589 1125 l 589 956 l 332 956 l 332 676 l 528 676 l 528 504 l 332 504 l 332 168 l 592 168 l 592 0 l 83 0 z "},"Ȅ":{"ha":621,"x_min":29,"x_max":592,"o":"m 83 0 l 83 1125 l 589 1125 l 589 956 l 332 956 l 332 676 l 528 676 l 528 504 l 332 504 l 332 168 l 592 168 l 592 0 l 83 0 m 168 1208 l 29 1496 l 201 1496 l 290 1208 l 168 1208 m 411 1208 l 283 1496 l 449 1496 l 531 1208 l 411 1208 z "},"Ë":{"ha":621,"x_min":83,"x_max":592,"o":"m 83 0 l 83 1125 l 589 1125 l 589 956 l 332 956 l 332 676 l 528 676 l 528 504 l 332 504 l 332 168 l 592 168 l 592 0 l 83 0 m 400 1242 l 400 1447 l 581 1447 l 581 1242 l 400 1242 m 97 1242 l 97 1447 l 278 1447 l 278 1242 l 97 1242 z "},"Ė":{"ha":621,"x_min":83,"x_max":592,"o":"m 83 0 l 83 1125 l 589 1125 l 589 956 l 332 956 l 332 676 l 528 676 l 528 504 l 332 504 l 332 168 l 592 168 l 592 0 l 83 0 m 232 1228 l 232 1442 l 446 1442 l 446 1228 l 232 1228 z "},"Ẹ":{"ha":621,"x_min":83,"x_max":592,"o":"m 83 0 l 83 1125 l 589 1125 l 589 956 l 332 956 l 332 676 l 528 676 l 528 504 l 332 504 l 332 168 l 592 168 l 592 0 l 83 0 m 214 -289 l 214 -97 l 408 -97 l 408 -289 l 214 -289 z "},"È":{"ha":621,"x_min":83,"x_max":592,"o":"m 83 0 l 83 1125 l 589 1125 l 589 956 l 332 956 l 332 676 l 528 676 l 528 504 l 332 504 l 332 168 l 592 168 l 592 0 l 83 0 m 272 1214 l 96 1493 l 329 1493 l 414 1214 l 272 1214 z "},"Ẻ":{"ha":621,"x_min":83,"x_max":592,"o":"m 83 0 l 83 1125 l 589 1125 l 589 956 l 332 956 l 332 676 l 528 676 l 528 504 l 332 504 l 332 168 l 592 168 l 592 0 l 83 0 m 339 1193 l 263 1265 q 333 1303 304 1285 q 363 1354 363 1322 q 340 1392 363 1382 q 283 1403 318 1403 q 238 1400 261 1403 q 197 1393 215 1397 l 197 1488 q 339 1506 264 1506 q 422 1492 383 1506 q 485 1448 461 1478 q 508 1368 508 1418 q 485 1286 508 1319 q 423 1231 461 1253 q 339 1193 385 1210 z "},"Ȇ":{"ha":621,"x_min":83,"x_max":592,"o":"m 83 0 l 83 1125 l 589 1125 l 589 956 l 332 956 l 332 676 l 528 676 l 528 504 l 332 504 l 332 168 l 592 168 l 592 0 l 83 0 m 121 1224 q 147 1344 121 1296 q 223 1419 174 1393 q 339 1444 272 1444 q 456 1419 407 1444 q 531 1344 504 1393 q 557 1224 557 1296 l 429 1224 q 408 1303 429 1278 q 339 1329 388 1329 q 269 1304 290 1329 q 249 1224 249 1279 l 121 1224 z "},"Ē":{"ha":621,"x_min":83,"x_max":592,"o":"m 83 0 l 83 1125 l 589 1125 l 589 956 l 332 956 l 332 676 l 528 676 l 528 504 l 332 504 l 332 168 l 592 168 l 592 0 l 83 0 m 147 1247 l 147 1354 l 531 1354 l 531 1247 l 147 1247 z "},"Ę":{"ha":621,"x_min":83,"x_max":592,"o":"m 83 0 l 83 1125 l 589 1125 l 589 956 l 332 956 l 332 676 l 528 676 l 528 504 l 332 504 l 332 168 l 592 168 l 592 0 l 83 0 m 499 -361 q 425 -356 464 -361 q 353 -336 386 -351 q 299 -291 319 -321 q 278 -211 278 -261 q 293 -135 278 -175 q 333 -60 308 -96 q 386 0 358 -25 l 488 0 q 463 -52 475 -24 q 444 -110 451 -81 q 438 -168 438 -139 q 465 -233 438 -215 q 526 -250 492 -250 q 549 -249 538 -250 q 567 -247 560 -249 l 544 -357 q 524 -360 536 -358 q 499 -361 513 -361 z "},"Ẽ":{"ha":621,"x_min":83,"x_max":592,"o":"m 83 0 l 83 1125 l 589 1125 l 589 956 l 332 956 l 332 676 l 528 676 l 528 504 l 332 504 l 332 168 l 592 168 l 592 0 l 83 0 m 451 1250 q 388 1267 417 1250 q 332 1299 358 1283 q 278 1315 306 1315 q 238 1298 247 1315 q 228 1258 228 1281 l 119 1258 q 131 1360 119 1315 q 169 1430 142 1404 q 244 1456 197 1456 q 306 1440 279 1456 q 360 1410 333 1425 q 415 1394 386 1394 q 449 1410 439 1394 q 458 1447 458 1425 l 558 1447 q 552 1357 558 1403 q 523 1281 546 1311 q 451 1250 500 1250 z "},"Ʒ":{"ha":699,"x_min":32,"x_max":650,"o":"m 343 -21 q 157 24 225 -21 q 60 148 89 68 q 32 332 32 228 l 32 372 l 264 372 q 264 357 264 371 q 264 332 264 343 q 281 196 264 236 q 346 156 299 156 q 384 166 369 156 q 407 197 399 176 q 418 249 415 217 q 421 325 421 282 q 409 456 421 407 q 364 526 397 504 q 264 549 331 549 l 143 549 l 143 672 l 354 957 l 65 957 l 65 1125 l 604 1125 l 604 985 l 335 632 l 281 685 l 369 685 q 544 639 483 685 q 627 513 604 593 q 650 331 650 433 q 620 149 650 228 q 523 24 590 69 q 343 -21 456 -21 z "},"Ǯ":{"ha":699,"x_min":32,"x_max":650,"o":"m 343 -21 q 157 24 225 -21 q 60 148 89 68 q 32 332 32 228 l 32 372 l 264 372 q 264 357 264 371 q 264 332 264 343 q 281 196 264 236 q 346 156 299 156 q 384 166 369 156 q 407 197 399 176 q 418 249 415 217 q 421 325 421 282 q 409 456 421 407 q 364 526 397 504 q 264 549 331 549 l 143 549 l 143 672 l 354 957 l 65 957 l 65 1125 l 604 1125 l 604 985 l 335 632 l 281 685 l 369 685 q 544 639 483 685 q 627 513 604 593 q 650 331 650 433 q 620 149 650 228 q 523 24 590 69 q 343 -21 456 -21 m 240 1210 l 118 1469 l 279 1469 l 350 1317 l 421 1469 l 582 1469 l 460 1210 l 240 1210 z "},"F":{"ha":603,"x_min":83,"x_max":569,"o":"m 83 0 l 83 1125 l 569 1125 l 569 957 l 332 957 l 332 674 l 539 674 l 539 500 l 332 500 l 332 0 l 83 0 z "},"Ḟ":{"ha":603,"x_min":83,"x_max":569,"o":"m 83 0 l 83 1125 l 569 1125 l 569 957 l 332 957 l 332 674 l 539 674 l 539 500 l 332 500 l 332 0 l 83 0 m 196 1228 l 196 1442 l 410 1442 l 410 1228 l 196 1228 z "},"G":{"ha":808,"x_min":68,"x_max":736,"o":"m 376 -17 q 192 32 260 -17 q 97 169 125 81 q 68 372 68 257 l 68 750 q 99 957 68 869 q 203 1092 129 1044 q 406 1140 278 1140 q 602 1099 531 1140 q 704 983 674 1057 q 735 811 735 910 l 735 739 l 492 739 l 492 831 q 487 897 492 867 q 465 947 482 928 q 408 965 447 965 q 350 944 368 965 q 327 890 332 922 q 322 824 322 858 l 322 303 q 330 233 322 265 q 358 180 338 200 q 415 160 378 160 q 475 181 454 160 q 504 235 496 201 q 513 306 513 268 l 513 438 l 411 438 l 411 583 l 736 583 l 736 0 l 572 0 l 558 93 q 493 15 536 46 q 376 -17 450 -17 z "},"Ǵ":{"ha":808,"x_min":68,"x_max":736,"o":"m 376 -17 q 192 32 260 -17 q 97 169 125 81 q 68 372 68 257 l 68 750 q 99 957 68 869 q 203 1092 129 1044 q 406 1140 278 1140 q 602 1099 531 1140 q 704 983 674 1057 q 735 811 735 910 l 735 739 l 492 739 l 492 831 q 487 897 492 867 q 465 947 482 928 q 408 965 447 965 q 350 944 368 965 q 327 890 332 922 q 322 824 322 858 l 322 303 q 330 233 322 265 q 358 180 338 200 q 415 160 378 160 q 475 181 454 160 q 504 235 496 201 q 513 306 513 268 l 513 438 l 411 438 l 411 583 l 736 583 l 736 0 l 572 0 l 558 93 q 493 15 536 46 q 376 -17 450 -17 m 329 1214 l 417 1493 l 647 1493 l 472 1214 l 329 1214 z "},"Ğ":{"ha":808,"x_min":68,"x_max":736,"o":"m 376 -17 q 192 32 260 -17 q 97 169 125 81 q 68 372 68 257 l 68 750 q 99 957 68 869 q 203 1092 129 1044 q 406 1140 278 1140 q 602 1099 531 1140 q 704 983 674 1057 q 735 811 735 910 l 735 739 l 492 739 l 492 831 q 487 897 492 867 q 465 947 482 928 q 408 965 447 965 q 350 944 368 965 q 327 890 332 922 q 322 824 322 858 l 322 303 q 330 233 322 265 q 358 180 338 200 q 415 160 378 160 q 475 181 454 160 q 504 235 496 201 q 513 306 513 268 l 513 438 l 411 438 l 411 583 l 736 583 l 736 0 l 572 0 l 558 93 q 493 15 536 46 q 376 -17 450 -17 m 404 1215 q 246 1271 306 1215 q 186 1432 186 1326 l 314 1432 q 334 1356 314 1381 q 404 1331 354 1331 q 474 1356 453 1331 q 494 1432 494 1382 l 622 1432 q 563 1271 622 1326 q 404 1215 503 1215 z "},"Ǧ":{"ha":808,"x_min":68,"x_max":736,"o":"m 376 -17 q 192 32 260 -17 q 97 169 125 81 q 68 372 68 257 l 68 750 q 99 957 68 869 q 203 1092 129 1044 q 406 1140 278 1140 q 602 1099 531 1140 q 704 983 674 1057 q 735 811 735 910 l 735 739 l 492 739 l 492 831 q 487 897 492 867 q 465 947 482 928 q 408 965 447 965 q 350 944 368 965 q 327 890 332 922 q 322 824 322 858 l 322 303 q 330 233 322 265 q 358 180 338 200 q 415 160 378 160 q 475 181 454 160 q 504 235 496 201 q 513 306 513 268 l 513 438 l 411 438 l 411 583 l 736 583 l 736 0 l 572 0 l 558 93 q 493 15 536 46 q 376 -17 450 -17 m 294 1210 l 172 1469 l 333 1469 l 404 1317 l 475 1469 l 636 1469 l 514 1210 l 294 1210 z "},"Ĝ":{"ha":808,"x_min":68,"x_max":736,"o":"m 376 -17 q 192 32 260 -17 q 97 169 125 81 q 68 372 68 257 l 68 750 q 99 957 68 869 q 203 1092 129 1044 q 406 1140 278 1140 q 602 1099 531 1140 q 704 983 674 1057 q 735 811 735 910 l 735 739 l 492 739 l 492 831 q 487 897 492 867 q 465 947 482 928 q 408 965 447 965 q 350 944 368 965 q 327 890 332 922 q 322 824 322 858 l 322 303 q 330 233 322 265 q 358 180 338 200 q 415 160 378 160 q 475 181 454 160 q 504 235 496 201 q 513 306 513 268 l 513 438 l 411 438 l 411 583 l 736 583 l 736 0 l 572 0 l 558 93 q 493 15 536 46 q 376 -17 450 -17 m 178 1224 l 310 1490 l 494 1490 l 631 1224 l 464 1224 l 403 1389 l 343 1224 l 178 1224 z "},"Ģ":{"ha":808,"x_min":68,"x_max":736,"o":"m 376 -17 q 192 32 260 -17 q 97 169 125 81 q 68 372 68 257 l 68 750 q 99 957 68 869 q 203 1092 129 1044 q 406 1140 278 1140 q 602 1099 531 1140 q 704 983 674 1057 q 735 811 735 910 l 735 739 l 492 739 l 492 831 q 487 897 492 867 q 465 947 482 928 q 408 965 447 965 q 350 944 368 965 q 327 890 332 922 q 322 824 322 858 l 322 303 q 330 233 322 265 q 358 180 338 200 q 415 160 378 160 q 475 181 454 160 q 504 235 496 201 q 513 306 513 268 l 513 438 l 411 438 l 411 583 l 736 583 l 736 0 l 572 0 l 558 93 q 493 15 536 46 q 376 -17 450 -17 m 335 -494 l 317 -419 q 385 -390 356 -412 q 415 -307 415 -367 l 297 -307 l 297 -96 l 511 -96 l 510 -276 q 468 -435 510 -379 q 335 -494 426 -492 z "},"Ġ":{"ha":808,"x_min":68,"x_max":736,"o":"m 376 -17 q 192 32 260 -17 q 97 169 125 81 q 68 372 68 257 l 68 750 q 99 957 68 869 q 203 1092 129 1044 q 406 1140 278 1140 q 602 1099 531 1140 q 704 983 674 1057 q 735 811 735 910 l 735 739 l 492 739 l 492 831 q 487 897 492 867 q 465 947 482 928 q 408 965 447 965 q 350 944 368 965 q 327 890 332 922 q 322 824 322 858 l 322 303 q 330 233 322 265 q 358 180 338 200 q 415 160 378 160 q 475 181 454 160 q 504 235 496 201 q 513 306 513 268 l 513 438 l 411 438 l 411 583 l 736 583 l 736 0 l 572 0 l 558 93 q 493 15 536 46 q 376 -17 450 -17 m 297 1228 l 297 1442 l 511 1442 l 511 1228 l 297 1228 z "},"Ǥ":{"ha":808,"x_min":68,"x_max":814,"o":"m 446 263 l 446 386 l 814 386 l 814 263 l 446 263 m 376 -17 q 192 32 260 -17 q 97 169 125 81 q 68 372 68 257 l 68 750 q 99 957 68 869 q 203 1092 129 1044 q 406 1140 278 1140 q 602 1099 531 1140 q 704 983 674 1057 q 735 811 735 910 l 735 739 l 492 739 l 492 831 q 487 897 492 867 q 465 947 482 928 q 408 965 447 965 q 350 944 368 965 q 327 890 332 922 q 322 824 322 858 l 322 303 q 330 233 322 265 q 358 180 338 200 q 415 160 378 160 q 475 181 454 160 q 504 235 496 201 q 513 306 513 268 l 513 438 l 411 438 l 411 583 l 736 583 l 736 0 l 572 0 l 558 93 q 493 15 536 46 q 376 -17 450 -17 z "},"H":{"ha":847,"x_min":88,"x_max":760,"o":"m 88 0 l 88 1125 l 336 1125 l 336 669 l 510 669 l 510 1125 l 760 1125 l 760 0 l 510 0 l 510 492 l 336 492 l 336 0 l 88 0 z "},"Ħ":{"ha":750,"x_min":-18,"x_max":768,"o":"m 53 0 l 53 854 l -18 854 l -18 932 l 53 932 l 53 1125 l 301 1125 l 301 932 l 464 932 l 464 1125 l 714 1125 l 714 932 l 768 932 l 768 854 l 714 854 l 714 0 l 464 0 l 464 492 l 301 492 l 301 0 l 53 0 m 301 669 l 464 669 l 464 854 l 301 854 l 301 669 z "},"Ȟ":{"ha":847,"x_min":88,"x_max":760,"o":"m 88 0 l 88 1125 l 336 1125 l 336 669 l 510 669 l 510 1125 l 760 1125 l 760 0 l 510 0 l 510 492 l 336 492 l 336 0 l 88 0 m 314 1210 l 192 1469 l 353 1469 l 424 1317 l 494 1469 l 656 1469 l 533 1210 l 314 1210 z "},"Ĥ":{"ha":847,"x_min":88,"x_max":760,"o":"m 88 0 l 88 1125 l 336 1125 l 336 669 l 510 669 l 510 1125 l 760 1125 l 760 0 l 510 0 l 510 492 l 336 492 l 336 0 l 88 0 m 197 1224 l 329 1490 l 514 1490 l 650 1224 l 483 1224 l 422 1389 l 363 1224 l 197 1224 z "},"I":{"ha":418,"x_min":85,"x_max":333,"o":"m 85 0 l 85 1125 l 333 1125 l 333 0 l 85 0 z "},"Ĳ":{"ha":903,"x_min":85,"x_max":819,"o":"m 85 0 l 85 1125 l 333 1125 l 333 0 l 85 0 m 436 -29 l 436 144 q 500 149 474 144 q 542 165 526 153 q 564 199 557 176 q 571 258 571 222 l 571 1125 l 819 1125 l 819 247 q 797 94 819 156 q 717 1 774 32 q 557 -29 660 -29 l 436 -29 z "},"Í":{"ha":418,"x_min":85,"x_max":451,"o":"m 85 0 l 85 1125 l 333 1125 l 333 0 l 85 0 m 133 1214 l 221 1493 l 451 1493 l 276 1214 l 133 1214 z "},"Ĭ":{"ha":418,"x_min":-10,"x_max":426,"o":"m 85 0 l 85 1125 l 333 1125 l 333 0 l 85 0 m 208 1215 q 50 1271 110 1215 q -10 1432 -10 1326 l 118 1432 q 138 1356 118 1381 q 208 1331 158 1331 q 278 1356 257 1331 q 299 1432 299 1382 l 426 1432 q 367 1271 426 1326 q 208 1215 307 1215 z "},"Î":{"ha":418,"x_min":-18,"x_max":435,"o":"m 85 0 l 85 1125 l 333 1125 l 333 0 l 85 0 m -18 1224 l 114 1490 l 299 1490 l 435 1224 l 268 1224 l 207 1389 l 147 1224 l -18 1224 z "},"Ȉ":{"ha":418,"x_min":-101,"x_max":400,"o":"m 85 0 l 85 1125 l 333 1125 l 333 0 l 85 0 m 38 1208 l -101 1496 l 71 1496 l 160 1208 l 38 1208 m 281 1208 l 153 1496 l 318 1496 l 400 1208 l 281 1208 z "},"Ï":{"ha":418,"x_min":-33,"x_max":450,"o":"m 85 0 l 85 1125 l 333 1125 l 333 0 l 85 0 m 269 1242 l 269 1447 l 450 1447 l 450 1242 l 269 1242 m -33 1242 l -33 1447 l 147 1447 l 147 1242 l -33 1242 z "},"İ":{"ha":418,"x_min":85,"x_max":333,"o":"m 85 0 l 85 1125 l 333 1125 l 333 0 l 85 0 m 101 1228 l 101 1442 l 315 1442 l 315 1228 l 101 1228 z "},"Ị":{"ha":418,"x_min":85,"x_max":333,"o":"m 85 0 l 85 1125 l 333 1125 l 333 0 l 85 0 m 111 -289 l 111 -97 l 306 -97 l 306 -289 l 111 -289 z "},"Ì":{"ha":418,"x_min":-35,"x_max":333,"o":"m 85 0 l 85 1125 l 333 1125 l 333 0 l 85 0 m 142 1214 l -35 1493 l 199 1493 l 283 1214 l 142 1214 z "},"Ỉ":{"ha":418,"x_min":67,"x_max":378,"o":"m 85 0 l 85 1125 l 333 1125 l 333 0 l 85 0 m 208 1193 l 132 1265 q 203 1303 174 1285 q 232 1354 232 1322 q 210 1392 232 1382 q 153 1403 188 1403 q 108 1400 131 1403 q 67 1393 85 1397 l 67 1488 q 208 1506 133 1506 q 292 1492 253 1506 q 354 1448 331 1478 q 378 1368 378 1418 q 354 1286 378 1319 q 292 1231 331 1253 q 208 1193 254 1210 z "},"Ȋ":{"ha":418,"x_min":-10,"x_max":426,"o":"m 85 0 l 85 1125 l 333 1125 l 333 0 l 85 0 m -10 1224 q 17 1344 -10 1296 q 92 1419 43 1393 q 208 1444 142 1444 q 325 1419 276 1444 q 400 1344 374 1393 q 426 1224 426 1296 l 299 1224 q 278 1303 299 1278 q 208 1329 257 1329 q 139 1304 160 1329 q 118 1224 118 1279 l -10 1224 z "},"Ī":{"ha":418,"x_min":17,"x_max":400,"o":"m 85 0 l 85 1125 l 333 1125 l 333 0 l 85 0 m 17 1247 l 17 1354 l 400 1354 l 400 1247 l 17 1247 z "},"Į":{"ha":418,"x_min":51,"x_max":340,"o":"m 85 0 l 85 1125 l 333 1125 l 333 0 l 85 0 m 272 -361 q 199 -356 238 -361 q 126 -336 160 -351 q 72 -291 93 -321 q 51 -211 51 -261 q 67 -135 51 -175 q 107 -60 82 -96 q 160 0 132 -25 l 261 0 q 237 -52 249 -24 q 218 -110 225 -81 q 211 -168 211 -139 q 238 -233 211 -215 q 300 -250 265 -250 q 322 -249 311 -250 q 340 -247 333 -249 l 318 -357 q 298 -360 310 -358 q 272 -361 286 -361 z "},"Ĩ":{"ha":418,"x_min":-11,"x_max":428,"o":"m 85 0 l 85 1125 l 333 1125 l 333 0 l 85 0 m 321 1250 q 257 1267 286 1250 q 201 1299 228 1283 q 147 1315 175 1315 q 107 1298 117 1315 q 97 1258 97 1281 l -11 1258 q 0 1360 -11 1315 q 39 1430 11 1404 q 114 1456 67 1456 q 176 1440 149 1456 q 229 1410 203 1425 q 285 1394 256 1394 q 318 1410 308 1394 q 328 1447 328 1425 l 428 1447 q 422 1357 428 1403 q 392 1281 415 1311 q 321 1250 369 1250 z "},"J":{"ha":485,"x_min":18,"x_max":401,"o":"m 18 -29 l 18 144 q 82 149 56 144 q 124 165 108 153 q 146 199 139 176 q 153 258 153 222 l 153 1125 l 401 1125 l 401 247 q 378 94 401 156 q 299 1 356 32 q 139 -29 242 -29 l 18 -29 z "},"Ĵ":{"ha":485,"x_min":18,"x_max":504,"o":"m 18 -29 l 18 144 q 82 149 56 144 q 124 165 108 153 q 146 199 139 176 q 153 258 153 222 l 153 1125 l 401 1125 l 401 247 q 378 94 401 156 q 299 1 356 32 q 139 -29 242 -29 l 18 -29 m 51 1224 l 183 1490 l 368 1490 l 504 1224 l 338 1224 l 276 1389 l 217 1224 l 51 1224 z "},"K":{"ha":788,"x_min":83,"x_max":774,"o":"m 83 0 l 83 1125 l 332 1125 l 332 665 l 521 1125 l 764 1125 l 556 617 l 774 0 l 521 0 l 358 497 l 332 453 l 332 0 l 83 0 z "},"Ǩ":{"ha":788,"x_min":83,"x_max":774,"o":"m 83 0 l 83 1125 l 332 1125 l 332 665 l 521 1125 l 764 1125 l 556 617 l 774 0 l 521 0 l 358 497 l 332 453 l 332 0 l 83 0 m 303 1210 l 181 1469 l 342 1469 l 413 1317 l 483 1469 l 644 1469 l 522 1210 l 303 1210 z "},"Ķ":{"ha":788,"x_min":83,"x_max":774,"o":"m 83 0 l 83 1125 l 332 1125 l 332 665 l 521 1125 l 764 1125 l 556 617 l 774 0 l 521 0 l 358 497 l 332 453 l 332 0 l 83 0 m 325 -494 l 307 -419 q 376 -390 346 -412 q 406 -307 406 -367 l 288 -307 l 288 -96 l 501 -96 l 500 -276 q 458 -435 500 -379 q 325 -494 417 -492 z "},"L":{"ha":615,"x_min":83,"x_max":590,"o":"m 83 0 l 83 1125 l 332 1125 l 332 168 l 590 168 l 590 0 l 83 0 z "},"Ǉ":{"ha":1100,"x_min":83,"x_max":1017,"o":"m 83 0 l 83 1125 l 332 1125 l 332 168 l 590 168 l 590 0 l 83 0 m 633 -29 l 633 144 q 697 149 671 144 q 739 165 724 153 q 761 199 754 176 q 768 258 768 222 l 768 1125 l 1017 1125 l 1017 247 q 994 94 1017 156 q 914 1 971 32 q 754 -29 857 -29 l 633 -29 z "},"Ĺ":{"ha":615,"x_min":83,"x_max":590,"o":"m 83 0 l 83 1125 l 332 1125 l 332 168 l 590 168 l 590 0 l 83 0 m 132 1214 l 219 1493 l 450 1493 l 275 1214 l 132 1214 z "},"Ľ":{"ha":615,"x_min":83,"x_max":631,"o":"m 83 0 l 83 1125 l 332 1125 l 332 168 l 590 168 l 590 0 l 83 0 m 451 717 l 438 789 q 505 825 474 799 q 536 911 536 851 l 417 911 l 417 1125 l 631 1125 l 631 939 q 586 780 631 836 q 451 717 542 724 z "},"Ļ":{"ha":615,"x_min":83,"x_max":590,"o":"m 83 0 l 83 1125 l 332 1125 l 332 168 l 590 168 l 590 0 l 83 0 m 267 -494 l 249 -419 q 317 -390 288 -412 q 347 -307 347 -367 l 229 -307 l 229 -96 l 443 -96 l 442 -276 q 400 -435 442 -379 q 267 -494 358 -492 z "},"Ŀ":{"ha":615,"x_min":83,"x_max":593,"o":"m 83 0 l 83 1125 l 332 1125 l 332 168 l 590 168 l 590 0 l 83 0 m 439 525 l 439 736 l 593 736 l 593 525 l 439 525 z "},"ǈ":{"ha":999,"x_min":83,"x_max":931,"o":"m 83 0 l 83 1125 l 332 1125 l 332 168 l 590 168 l 590 0 l 83 0 m 724 -250 q 661 -245 692 -250 q 603 -232 631 -240 l 603 -69 q 623 -73 613 -71 q 643 -75 633 -75 q 676 -68 663 -75 q 697 -47 689 -61 q 704 -7 704 -32 l 704 803 l 931 803 l 931 -35 q 878 -190 931 -129 q 724 -250 826 -250 m 704 939 l 704 1096 l 931 1096 l 931 939 l 704 939 z "},"Ł":{"ha":625,"x_min":11,"x_max":601,"o":"m 94 0 l 94 497 l 11 458 l 11 594 l 94 633 l 94 1125 l 343 1125 l 343 750 l 479 815 l 479 679 l 343 614 l 343 168 l 601 168 l 601 0 l 94 0 z "},"M":{"ha":978,"x_min":79,"x_max":899,"o":"m 79 0 l 99 1125 l 365 1125 l 489 471 l 622 1125 l 879 1125 l 899 0 l 722 0 l 701 749 l 571 0 l 414 0 l 275 754 l 258 0 l 79 0 z "},"Ṁ":{"ha":978,"x_min":79,"x_max":899,"o":"m 79 0 l 99 1125 l 365 1125 l 489 471 l 622 1125 l 879 1125 l 899 0 l 722 0 l 701 749 l 571 0 l 414 0 l 275 754 l 258 0 l 79 0 m 382 1228 l 382 1442 l 596 1442 l 596 1228 l 382 1228 z "},"N":{"ha":779,"x_min":83,"x_max":694,"o":"m 83 0 l 83 1125 l 258 1125 l 489 583 l 489 1125 l 694 1125 l 694 0 l 526 0 l 296 583 l 296 0 l 83 0 z "},"Ǌ":{"ha":1264,"x_min":83,"x_max":1181,"o":"m 83 0 l 83 1125 l 258 1125 l 489 583 l 489 1125 l 694 1125 l 694 0 l 526 0 l 296 583 l 296 0 l 83 0 m 797 -29 l 797 144 q 861 149 835 144 q 903 165 888 153 q 925 199 918 176 q 932 258 932 222 l 932 1125 l 1181 1125 l 1181 247 q 1158 94 1181 156 q 1078 1 1135 32 q 918 -29 1021 -29 l 797 -29 z "},"Ń":{"ha":779,"x_min":83,"x_max":694,"o":"m 83 0 l 83 1125 l 258 1125 l 489 583 l 489 1125 l 694 1125 l 694 0 l 526 0 l 296 583 l 296 0 l 83 0 m 314 1214 l 401 1493 l 632 1493 l 457 1214 l 314 1214 z "},"Ň":{"ha":779,"x_min":83,"x_max":694,"o":"m 83 0 l 83 1125 l 258 1125 l 489 583 l 489 1125 l 694 1125 l 694 0 l 526 0 l 296 583 l 296 0 l 83 0 m 279 1210 l 157 1469 l 318 1469 l 389 1317 l 460 1469 l 621 1469 l 499 1210 l 279 1210 z "},"Ņ":{"ha":779,"x_min":83,"x_max":694,"o":"m 83 0 l 83 1125 l 258 1125 l 489 583 l 489 1125 l 694 1125 l 694 0 l 526 0 l 296 583 l 296 0 l 83 0 m 319 -494 l 301 -419 q 370 -390 340 -412 q 400 -307 400 -367 l 282 -307 l 282 -96 l 496 -96 l 494 -276 q 453 -435 494 -379 q 319 -494 411 -492 z "},"Ŋ":{"ha":789,"x_min":88,"x_max":700,"o":"m 340 -290 l 340 -142 q 439 -131 403 -142 q 491 -93 475 -119 q 507 -21 507 -67 l 507 106 l 299 583 l 299 0 l 88 0 l 88 1125 l 264 1125 l 496 583 l 496 1125 l 700 1125 l 700 0 q 679 -160 700 -94 q 603 -258 658 -225 q 443 -290 547 -290 l 340 -290 z "},"ǋ":{"ha":1163,"x_min":83,"x_max":1094,"o":"m 83 0 l 83 1125 l 258 1125 l 489 583 l 489 1125 l 694 1125 l 694 0 l 526 0 l 296 583 l 296 0 l 83 0 m 888 -250 q 825 -245 856 -250 q 767 -232 794 -240 l 767 -69 q 787 -73 776 -71 q 807 -75 797 -75 q 840 -68 826 -75 q 860 -47 853 -61 q 868 -7 868 -32 l 868 803 l 1094 803 l 1094 -35 q 1042 -190 1094 -129 q 888 -250 990 -250 m 868 939 l 868 1096 l 1094 1096 l 1094 939 l 868 939 z "},"Ñ":{"ha":779,"x_min":83,"x_max":694,"o":"m 83 0 l 83 1125 l 258 1125 l 489 583 l 489 1125 l 694 1125 l 694 0 l 526 0 l 296 583 l 296 0 l 83 0 m 501 1250 q 438 1267 467 1250 q 382 1299 408 1283 q 328 1315 356 1315 q 288 1298 297 1315 q 278 1258 278 1281 l 169 1258 q 181 1360 169 1315 q 219 1430 192 1404 q 294 1456 247 1456 q 356 1440 329 1456 q 410 1410 383 1425 q 465 1394 436 1394 q 499 1410 489 1394 q 508 1447 508 1425 l 608 1447 q 602 1357 608 1403 q 573 1281 596 1311 q 501 1250 550 1250 z "},"O":{"ha":814,"x_min":68,"x_max":746,"o":"m 406 -17 q 206 28 279 -17 q 100 156 132 72 q 68 354 68 239 l 68 772 q 100 971 68 889 q 206 1097 132 1053 q 406 1140 279 1140 q 608 1097 533 1140 q 714 971 682 1053 q 746 772 746 889 l 746 354 q 714 156 746 239 q 608 28 682 72 q 406 -17 533 -17 m 406 160 q 463 179 444 160 q 486 229 481 199 q 492 292 492 260 l 492 833 q 486 897 492 867 q 463 946 481 926 q 406 965 444 965 q 351 946 369 965 q 328 897 333 926 q 322 833 322 867 l 322 292 q 327 229 322 260 q 349 179 332 199 q 406 160 367 160 z "},"Ó":{"ha":814,"x_min":68,"x_max":746,"o":"m 406 -17 q 206 28 279 -17 q 100 156 132 72 q 68 354 68 239 l 68 772 q 100 971 68 889 q 206 1097 132 1053 q 406 1140 279 1140 q 608 1097 533 1140 q 714 971 682 1053 q 746 772 746 889 l 746 354 q 714 156 746 239 q 608 28 682 72 q 406 -17 533 -17 m 406 160 q 463 179 444 160 q 486 229 481 199 q 492 292 492 260 l 492 833 q 486 897 492 867 q 463 946 481 926 q 406 965 444 965 q 351 946 369 965 q 328 897 333 926 q 322 833 322 867 l 322 292 q 327 229 322 260 q 349 179 332 199 q 406 160 367 160 m 332 1214 l 419 1493 l 650 1493 l 475 1214 l 332 1214 z "},"Ŏ":{"ha":814,"x_min":68,"x_max":746,"o":"m 406 -17 q 206 28 279 -17 q 100 156 132 72 q 68 354 68 239 l 68 772 q 100 971 68 889 q 206 1097 132 1053 q 406 1140 279 1140 q 608 1097 533 1140 q 714 971 682 1053 q 746 772 746 889 l 746 354 q 714 156 746 239 q 608 28 682 72 q 406 -17 533 -17 m 406 160 q 463 179 444 160 q 486 229 481 199 q 492 292 492 260 l 492 833 q 486 897 492 867 q 463 946 481 926 q 406 965 444 965 q 351 946 369 965 q 328 897 333 926 q 322 833 322 867 l 322 292 q 327 229 322 260 q 349 179 332 199 q 406 160 367 160 m 407 1215 q 249 1271 308 1215 q 189 1432 189 1326 l 317 1432 q 337 1356 317 1381 q 407 1331 357 1331 q 476 1356 456 1331 q 497 1432 497 1382 l 625 1432 q 565 1271 625 1326 q 407 1215 506 1215 z "},"Ô":{"ha":814,"x_min":68,"x_max":746,"o":"m 406 -17 q 206 28 279 -17 q 100 156 132 72 q 68 354 68 239 l 68 772 q 100 971 68 889 q 206 1097 132 1053 q 406 1140 279 1140 q 608 1097 533 1140 q 714 971 682 1053 q 746 772 746 889 l 746 354 q 714 156 746 239 q 608 28 682 72 q 406 -17 533 -17 m 406 160 q 463 179 444 160 q 486 229 481 199 q 492 292 492 260 l 492 833 q 486 897 492 867 q 463 946 481 926 q 406 965 444 965 q 351 946 369 965 q 328 897 333 926 q 322 833 322 867 l 322 292 q 327 229 322 260 q 349 179 332 199 q 406 160 367 160 m 181 1224 l 313 1490 l 497 1490 l 633 1224 l 467 1224 l 406 1389 l 346 1224 l 181 1224 z "},"Ố":{"ha":814,"x_min":68,"x_max":836,"o":"m 406 -17 q 206 28 279 -17 q 100 156 132 72 q 68 354 68 239 l 68 772 q 100 971 68 889 q 206 1097 132 1053 q 406 1140 279 1140 q 608 1097 533 1140 q 714 971 682 1053 q 746 772 746 889 l 746 354 q 714 156 746 239 q 608 28 682 72 q 406 -17 533 -17 m 406 160 q 463 179 444 160 q 486 229 481 199 q 492 292 492 260 l 492 833 q 486 897 492 867 q 463 946 481 926 q 406 965 444 965 q 351 946 369 965 q 328 897 333 926 q 322 833 322 867 l 322 292 q 327 229 322 260 q 349 179 332 199 q 406 160 367 160 m 181 1224 l 313 1456 l 497 1456 l 633 1224 l 472 1224 l 406 1363 l 340 1224 l 181 1224 m 594 1388 l 668 1558 l 836 1558 l 714 1388 l 594 1388 z "},"Ộ":{"ha":814,"x_min":68,"x_max":746,"o":"m 406 -17 q 206 28 279 -17 q 100 156 132 72 q 68 354 68 239 l 68 772 q 100 971 68 889 q 206 1097 132 1053 q 406 1140 279 1140 q 608 1097 533 1140 q 714 971 682 1053 q 746 772 746 889 l 746 354 q 714 156 746 239 q 608 28 682 72 q 406 -17 533 -17 m 406 160 q 463 179 444 160 q 486 229 481 199 q 492 292 492 260 l 492 833 q 486 897 492 867 q 463 946 481 926 q 406 965 444 965 q 351 946 369 965 q 328 897 333 926 q 322 833 322 867 l 322 292 q 327 229 322 260 q 349 179 332 199 q 406 160 367 160 m 181 1224 l 313 1456 l 497 1456 l 633 1224 l 472 1224 l 406 1363 l 340 1224 l 181 1224 m 310 -289 l 310 -97 l 504 -97 l 504 -289 l 310 -289 z "},"Ồ":{"ha":814,"x_min":68,"x_max":756,"o":"m 406 -17 q 206 28 279 -17 q 100 156 132 72 q 68 354 68 239 l 68 772 q 100 971 68 889 q 206 1097 132 1053 q 406 1140 279 1140 q 608 1097 533 1140 q 714 971 682 1053 q 746 772 746 889 l 746 354 q 714 156 746 239 q 608 28 682 72 q 406 -17 533 -17 m 406 160 q 463 179 444 160 q 486 229 481 199 q 492 292 492 260 l 492 833 q 486 897 492 867 q 463 946 481 926 q 406 965 444 965 q 351 946 369 965 q 328 897 333 926 q 322 833 322 867 l 322 292 q 327 229 322 260 q 349 179 332 199 q 406 160 367 160 m 181 1224 l 313 1456 l 497 1456 l 633 1224 l 472 1224 l 406 1363 l 340 1224 l 181 1224 m 635 1388 l 513 1558 l 682 1558 l 756 1388 l 635 1388 z "},"Ổ":{"ha":814,"x_min":68,"x_max":778,"o":"m 406 -17 q 206 28 279 -17 q 100 156 132 72 q 68 354 68 239 l 68 772 q 100 971 68 889 q 206 1097 132 1053 q 406 1140 279 1140 q 608 1097 533 1140 q 714 971 682 1053 q 746 772 746 889 l 746 354 q 714 156 746 239 q 608 28 682 72 q 406 -17 533 -17 m 406 160 q 463 179 444 160 q 486 229 481 199 q 492 292 492 260 l 492 833 q 486 897 492 867 q 463 946 481 926 q 406 965 444 965 q 351 946 369 965 q 328 897 333 926 q 322 833 322 867 l 322 292 q 327 229 322 260 q 349 179 332 199 q 406 160 367 160 m 651 1351 l 588 1419 q 625 1458 611 1439 q 639 1503 639 1476 q 622 1544 639 1529 q 575 1558 604 1558 q 535 1554 553 1558 q 504 1544 518 1550 l 504 1639 q 560 1656 532 1650 q 618 1661 588 1661 q 733 1627 688 1661 q 778 1524 778 1593 q 740 1418 778 1457 q 651 1351 701 1379 m 181 1224 l 313 1456 l 497 1456 l 633 1224 l 472 1224 l 406 1363 l 340 1224 l 181 1224 z "},"Ỗ":{"ha":814,"x_min":68,"x_max":746,"o":"m 406 -17 q 206 28 279 -17 q 100 156 132 72 q 68 354 68 239 l 68 772 q 100 971 68 889 q 206 1097 132 1053 q 406 1140 279 1140 q 608 1097 533 1140 q 714 971 682 1053 q 746 772 746 889 l 746 354 q 714 156 746 239 q 608 28 682 72 q 406 -17 533 -17 m 406 160 q 463 179 444 160 q 486 229 481 199 q 492 292 492 260 l 492 833 q 486 897 492 867 q 463 946 481 926 q 406 965 444 965 q 351 946 369 965 q 328 897 333 926 q 322 833 322 867 l 322 292 q 327 229 322 260 q 349 179 332 199 q 406 160 367 160 z "},"Ȍ":{"ha":814,"x_min":68,"x_max":746,"o":"m 406 -17 q 206 28 279 -17 q 100 156 132 72 q 68 354 68 239 l 68 772 q 100 971 68 889 q 206 1097 132 1053 q 406 1140 279 1140 q 608 1097 533 1140 q 714 971 682 1053 q 746 772 746 889 l 746 354 q 714 156 746 239 q 608 28 682 72 q 406 -17 533 -17 m 406 160 q 463 179 444 160 q 486 229 481 199 q 492 292 492 260 l 492 833 q 486 897 492 867 q 463 946 481 926 q 406 965 444 965 q 351 946 369 965 q 328 897 333 926 q 322 833 322 867 l 322 292 q 327 229 322 260 q 349 179 332 199 q 406 160 367 160 m 236 1208 l 97 1496 l 269 1496 l 358 1208 l 236 1208 m 479 1208 l 351 1496 l 517 1496 l 599 1208 l 479 1208 z "},"Ö":{"ha":814,"x_min":68,"x_max":746,"o":"m 406 -17 q 206 28 279 -17 q 100 156 132 72 q 68 354 68 239 l 68 772 q 100 971 68 889 q 206 1097 132 1053 q 406 1140 279 1140 q 608 1097 533 1140 q 714 971 682 1053 q 746 772 746 889 l 746 354 q 714 156 746 239 q 608 28 682 72 q 406 -17 533 -17 m 406 160 q 463 179 444 160 q 486 229 481 199 q 492 292 492 260 l 492 833 q 486 897 492 867 q 463 946 481 926 q 406 965 444 965 q 351 946 369 965 q 328 897 333 926 q 322 833 322 867 l 322 292 q 327 229 322 260 q 349 179 332 199 q 406 160 367 160 m 468 1242 l 468 1447 l 649 1447 l 649 1242 l 468 1242 m 165 1242 l 165 1447 l 346 1447 l 346 1242 l 165 1242 z "},"Ȫ":{"ha":814,"x_min":68,"x_max":746,"o":"m 406 -17 q 206 28 279 -17 q 100 156 132 72 q 68 354 68 239 l 68 772 q 100 971 68 889 q 206 1097 132 1053 q 406 1140 279 1140 q 608 1097 533 1140 q 714 971 682 1053 q 746 772 746 889 l 746 354 q 714 156 746 239 q 608 28 682 72 q 406 -17 533 -17 m 406 160 q 463 179 444 160 q 486 229 481 199 q 492 292 492 260 l 492 833 q 486 897 492 867 q 463 946 481 926 q 406 965 444 965 q 351 946 369 965 q 328 897 333 926 q 322 833 322 867 l 322 292 q 327 229 322 260 q 349 179 332 199 q 406 160 367 160 m 468 1242 l 468 1447 l 649 1447 l 649 1242 l 468 1242 m 165 1242 l 165 1447 l 346 1447 l 346 1242 l 165 1242 m 215 1569 l 215 1676 l 599 1676 l 599 1569 l 215 1569 z "},"Ȱ":{"ha":814,"x_min":68,"x_max":746,"o":"m 406 -17 q 206 28 279 -17 q 100 156 132 72 q 68 354 68 239 l 68 772 q 100 971 68 889 q 206 1097 132 1053 q 406 1140 279 1140 q 608 1097 533 1140 q 714 971 682 1053 q 746 772 746 889 l 746 354 q 714 156 746 239 q 608 28 682 72 q 406 -17 533 -17 m 406 160 q 463 179 444 160 q 486 229 481 199 q 492 292 492 260 l 492 833 q 486 897 492 867 q 463 946 481 926 q 406 965 444 965 q 351 946 369 965 q 328 897 333 926 q 322 833 322 867 l 322 292 q 327 229 322 260 q 349 179 332 199 q 406 160 367 160 m 300 1228 l 300 1442 l 514 1442 l 514 1228 l 300 1228 m 215 1564 l 215 1671 l 599 1671 l 599 1564 l 215 1564 z "},"Ọ":{"ha":814,"x_min":68,"x_max":746,"o":"m 406 -17 q 206 28 279 -17 q 100 156 132 72 q 68 354 68 239 l 68 772 q 100 971 68 889 q 206 1097 132 1053 q 406 1140 279 1140 q 608 1097 533 1140 q 714 971 682 1053 q 746 772 746 889 l 746 354 q 714 156 746 239 q 608 28 682 72 q 406 -17 533 -17 m 406 160 q 463 179 444 160 q 486 229 481 199 q 492 292 492 260 l 492 833 q 486 897 492 867 q 463 946 481 926 q 406 965 444 965 q 351 946 369 965 q 328 897 333 926 q 322 833 322 867 l 322 292 q 327 229 322 260 q 349 179 332 199 q 406 160 367 160 m 310 -289 l 310 -97 l 504 -97 l 504 -289 l 310 -289 z "},"Ò":{"ha":814,"x_min":68,"x_max":746,"o":"m 406 -17 q 206 28 279 -17 q 100 156 132 72 q 68 354 68 239 l 68 772 q 100 971 68 889 q 206 1097 132 1053 q 406 1140 279 1140 q 608 1097 533 1140 q 714 971 682 1053 q 746 772 746 889 l 746 354 q 714 156 746 239 q 608 28 682 72 q 406 -17 533 -17 m 406 160 q 463 179 444 160 q 486 229 481 199 q 492 292 492 260 l 492 833 q 486 897 492 867 q 463 946 481 926 q 406 965 444 965 q 351 946 369 965 q 328 897 333 926 q 322 833 322 867 l 322 292 q 327 229 322 260 q 349 179 332 199 q 406 160 367 160 m 340 1214 l 164 1493 l 397 1493 l 482 1214 l 340 1214 z "},"Ỏ":{"ha":814,"x_min":68,"x_max":746,"o":"m 406 -17 q 206 28 279 -17 q 100 156 132 72 q 68 354 68 239 l 68 772 q 100 971 68 889 q 206 1097 132 1053 q 406 1140 279 1140 q 608 1097 533 1140 q 714 971 682 1053 q 746 772 746 889 l 746 354 q 714 156 746 239 q 608 28 682 72 q 406 -17 533 -17 m 406 160 q 463 179 444 160 q 486 229 481 199 q 492 292 492 260 l 492 833 q 486 897 492 867 q 463 946 481 926 q 406 965 444 965 q 351 946 369 965 q 328 897 333 926 q 322 833 322 867 l 322 292 q 327 229 322 260 q 349 179 332 199 q 406 160 367 160 m 407 1193 l 331 1265 q 401 1303 372 1285 q 431 1354 431 1322 q 408 1392 431 1382 q 351 1403 386 1403 q 306 1400 329 1403 q 265 1393 283 1397 l 265 1488 q 407 1506 332 1506 q 490 1492 451 1506 q 553 1448 529 1478 q 576 1368 576 1418 q 553 1286 576 1319 q 491 1231 529 1253 q 407 1193 453 1210 z "},"Ơ":{"ha":814,"x_min":68,"x_max":746,"o":"m 406 -17 q 206 28 279 -17 q 100 156 132 72 q 68 354 68 239 l 68 772 q 100 971 68 889 q 206 1097 132 1053 q 406 1140 279 1140 q 608 1097 533 1140 q 714 971 682 1053 q 746 772 746 889 l 746 354 q 714 156 746 239 q 608 28 682 72 q 406 -17 533 -17 m 406 160 q 463 179 444 160 q 486 229 481 199 q 492 292 492 260 l 492 833 q 486 897 492 867 q 463 946 481 926 q 406 965 444 965 q 351 946 369 965 q 328 897 333 926 q 322 833 322 867 l 322 292 q 327 229 322 260 q 349 179 332 199 q 406 160 367 160 m 478 1035 l 478 1125 l 506 1125 q 564 1155 547 1125 q 581 1244 581 1185 l 739 1244 q 674 1087 739 1139 q 506 1035 608 1035 l 478 1035 z "},"Ớ":{"ha":814,"x_min":68,"x_max":746,"o":"m 406 -17 q 206 28 279 -17 q 100 156 132 72 q 68 354 68 239 l 68 772 q 100 971 68 889 q 206 1097 132 1053 q 406 1140 279 1140 q 608 1097 533 1140 q 714 971 682 1053 q 746 772 746 889 l 746 354 q 714 156 746 239 q 608 28 682 72 q 406 -17 533 -17 m 406 160 q 463 179 444 160 q 486 229 481 199 q 492 292 492 260 l 492 833 q 486 897 492 867 q 463 946 481 926 q 406 965 444 965 q 351 946 369 965 q 328 897 333 926 q 322 833 322 867 l 322 292 q 327 229 322 260 q 349 179 332 199 q 406 160 367 160 m 478 1035 l 478 1125 l 506 1125 q 564 1155 547 1125 q 581 1244 581 1185 l 739 1244 q 674 1087 739 1139 q 506 1035 608 1035 l 478 1035 m 332 1214 l 419 1493 l 650 1493 l 475 1214 l 332 1214 z "},"Ợ":{"ha":814,"x_min":68,"x_max":746,"o":"m 406 -17 q 206 28 279 -17 q 100 156 132 72 q 68 354 68 239 l 68 772 q 100 971 68 889 q 206 1097 132 1053 q 406 1140 279 1140 q 608 1097 533 1140 q 714 971 682 1053 q 746 772 746 889 l 746 354 q 714 156 746 239 q 608 28 682 72 q 406 -17 533 -17 m 406 160 q 463 179 444 160 q 486 229 481 199 q 492 292 492 260 l 492 833 q 486 897 492 867 q 463 946 481 926 q 406 965 444 965 q 351 946 369 965 q 328 897 333 926 q 322 833 322 867 l 322 292 q 327 229 322 260 q 349 179 332 199 q 406 160 367 160 m 478 1035 l 478 1125 l 506 1125 q 564 1155 547 1125 q 581 1244 581 1185 l 739 1244 q 674 1087 739 1139 q 506 1035 608 1035 l 478 1035 m 310 -289 l 310 -97 l 504 -97 l 504 -289 l 310 -289 z "},"Ờ":{"ha":814,"x_min":68,"x_max":746,"o":"m 406 -17 q 206 28 279 -17 q 100 156 132 72 q 68 354 68 239 l 68 772 q 100 971 68 889 q 206 1097 132 1053 q 406 1140 279 1140 q 608 1097 533 1140 q 714 971 682 1053 q 746 772 746 889 l 746 354 q 714 156 746 239 q 608 28 682 72 q 406 -17 533 -17 m 406 160 q 463 179 444 160 q 486 229 481 199 q 492 292 492 260 l 492 833 q 486 897 492 867 q 463 946 481 926 q 406 965 444 965 q 351 946 369 965 q 328 897 333 926 q 322 833 322 867 l 322 292 q 327 229 322 260 q 349 179 332 199 q 406 160 367 160 m 478 1035 l 478 1125 l 506 1125 q 564 1155 547 1125 q 581 1244 581 1185 l 739 1244 q 674 1087 739 1139 q 506 1035 608 1035 l 478 1035 m 340 1214 l 164 1493 l 397 1493 l 482 1214 l 340 1214 z "},"Ở":{"ha":814,"x_min":68,"x_max":746,"o":"m 406 -17 q 206 28 279 -17 q 100 156 132 72 q 68 354 68 239 l 68 772 q 100 971 68 889 q 206 1097 132 1053 q 406 1140 279 1140 q 608 1097 533 1140 q 714 971 682 1053 q 746 772 746 889 l 746 354 q 714 156 746 239 q 608 28 682 72 q 406 -17 533 -17 m 406 160 q 463 179 444 160 q 486 229 481 199 q 492 292 492 260 l 492 833 q 486 897 492 867 q 463 946 481 926 q 406 965 444 965 q 351 946 369 965 q 328 897 333 926 q 322 833 322 867 l 322 292 q 327 229 322 260 q 349 179 332 199 q 406 160 367 160 m 478 1035 l 478 1125 l 506 1125 q 564 1155 547 1125 q 581 1244 581 1185 l 739 1244 q 674 1087 739 1139 q 506 1035 608 1035 l 478 1035 m 407 1193 l 331 1265 q 401 1303 372 1285 q 431 1354 431 1322 q 408 1392 431 1382 q 351 1403 386 1403 q 306 1400 329 1403 q 265 1393 283 1397 l 265 1488 q 407 1506 332 1506 q 490 1492 451 1506 q 553 1448 529 1478 q 576 1368 576 1418 q 553 1286 576 1319 q 491 1231 529 1253 q 407 1193 453 1210 z "},"Ỡ":{"ha":814,"x_min":68,"x_max":746,"o":"m 406 -17 q 206 28 279 -17 q 100 156 132 72 q 68 354 68 239 l 68 772 q 100 971 68 889 q 206 1097 132 1053 q 406 1140 279 1140 q 608 1097 533 1140 q 714 971 682 1053 q 746 772 746 889 l 746 354 q 714 156 746 239 q 608 28 682 72 q 406 -17 533 -17 m 406 160 q 463 179 444 160 q 486 229 481 199 q 492 292 492 260 l 492 833 q 486 897 492 867 q 463 946 481 926 q 406 965 444 965 q 351 946 369 965 q 328 897 333 926 q 322 833 322 867 l 322 292 q 327 229 322 260 q 349 179 332 199 q 406 160 367 160 m 478 1035 l 478 1125 l 506 1125 q 564 1155 547 1125 q 581 1244 581 1185 l 739 1244 q 674 1087 739 1139 q 506 1035 608 1035 l 478 1035 m 519 1250 q 456 1267 485 1250 q 400 1299 426 1283 q 346 1315 374 1315 q 306 1298 315 1315 q 296 1258 296 1281 l 188 1258 q 199 1360 188 1315 q 238 1430 210 1404 q 313 1456 265 1456 q 374 1440 347 1456 q 428 1410 401 1425 q 483 1394 454 1394 q 517 1410 507 1394 q 526 1447 526 1425 l 626 1447 q 620 1357 626 1403 q 591 1281 614 1311 q 519 1250 568 1250 z "},"Ő":{"ha":814,"x_min":68,"x_max":749,"o":"m 406 -17 q 206 28 279 -17 q 100 156 132 72 q 68 354 68 239 l 68 772 q 100 971 68 889 q 206 1097 132 1053 q 406 1140 279 1140 q 608 1097 533 1140 q 714 971 682 1053 q 746 772 746 889 l 746 354 q 714 156 746 239 q 608 28 682 72 q 406 -17 533 -17 m 406 160 q 463 179 444 160 q 486 229 481 199 q 492 292 492 260 l 492 833 q 486 897 492 867 q 463 946 481 926 q 406 965 444 965 q 351 946 369 965 q 328 897 333 926 q 322 833 322 867 l 322 292 q 327 229 322 260 q 349 179 332 199 q 406 160 367 160 m 465 1201 l 554 1501 l 749 1501 l 582 1201 l 465 1201 m 218 1201 l 301 1501 l 485 1501 l 335 1201 l 218 1201 z "},"Ȏ":{"ha":814,"x_min":68,"x_max":746,"o":"m 406 -17 q 206 28 279 -17 q 100 156 132 72 q 68 354 68 239 l 68 772 q 100 971 68 889 q 206 1097 132 1053 q 406 1140 279 1140 q 608 1097 533 1140 q 714 971 682 1053 q 746 772 746 889 l 746 354 q 714 156 746 239 q 608 28 682 72 q 406 -17 533 -17 m 406 160 q 463 179 444 160 q 486 229 481 199 q 492 292 492 260 l 492 833 q 486 897 492 867 q 463 946 481 926 q 406 965 444 965 q 351 946 369 965 q 328 897 333 926 q 322 833 322 867 l 322 292 q 327 229 322 260 q 349 179 332 199 q 406 160 367 160 m 189 1224 q 215 1344 189 1296 q 291 1419 242 1393 q 407 1444 340 1444 q 524 1419 475 1444 q 599 1344 572 1393 q 625 1224 625 1296 l 497 1224 q 476 1303 497 1278 q 407 1329 456 1329 q 338 1304 358 1329 q 317 1224 317 1279 l 189 1224 z "},"Ō":{"ha":814,"x_min":68,"x_max":746,"o":"m 406 -17 q 206 28 279 -17 q 100 156 132 72 q 68 354 68 239 l 68 772 q 100 971 68 889 q 206 1097 132 1053 q 406 1140 279 1140 q 608 1097 533 1140 q 714 971 682 1053 q 746 772 746 889 l 746 354 q 714 156 746 239 q 608 28 682 72 q 406 -17 533 -17 m 406 160 q 463 179 444 160 q 486 229 481 199 q 492 292 492 260 l 492 833 q 486 897 492 867 q 463 946 481 926 q 406 965 444 965 q 351 946 369 965 q 328 897 333 926 q 322 833 322 867 l 322 292 q 327 229 322 260 q 349 179 332 199 q 406 160 367 160 m 215 1247 l 215 1354 l 599 1354 l 599 1247 l 215 1247 z "},"Ǫ":{"ha":814,"x_min":68,"x_max":746,"o":"m 406 -17 q 206 28 279 -17 q 100 156 132 72 q 68 354 68 239 l 68 772 q 100 971 68 889 q 206 1097 132 1053 q 406 1140 279 1140 q 608 1097 533 1140 q 714 971 682 1053 q 746 772 746 889 l 746 354 q 714 156 746 239 q 608 28 682 72 q 406 -17 533 -17 m 406 160 q 463 179 444 160 q 486 229 481 199 q 492 292 492 260 l 492 833 q 486 897 492 867 q 463 946 481 926 q 406 965 444 965 q 351 946 369 965 q 328 897 333 926 q 322 833 322 867 l 322 292 q 327 229 322 260 q 349 179 332 199 q 406 160 367 160 m 504 -361 q 431 -356 469 -361 q 358 -336 392 -351 q 304 -291 325 -321 q 283 -211 283 -261 q 299 -135 283 -175 q 339 -60 314 -96 q 392 0 364 -25 l 493 0 q 469 -52 481 -24 q 450 -110 457 -81 q 443 -168 443 -139 q 470 -233 443 -215 q 532 -250 497 -250 q 554 -249 543 -250 q 572 -247 565 -249 l 550 -357 q 530 -360 542 -358 q 504 -361 518 -361 z "},"Ø":{"ha":794,"x_min":68,"x_max":746,"o":"m 167 -125 l 113 -103 l 611 1228 l 667 1207 l 167 -125 m 406 -17 q 206 28 279 -17 q 100 156 132 72 q 68 354 68 239 l 68 772 q 100 971 68 889 q 206 1097 132 1053 q 406 1140 279 1140 q 608 1097 533 1140 q 714 971 682 1053 q 746 772 746 889 l 746 354 q 714 156 746 239 q 608 28 682 72 q 406 -17 533 -17 m 406 160 q 463 179 444 160 q 486 229 481 199 q 492 292 492 260 l 492 833 q 486 897 492 867 q 463 946 481 926 q 406 965 444 965 q 351 946 369 965 q 328 897 333 926 q 322 833 322 867 l 322 292 q 327 229 322 260 q 349 179 332 199 q 406 160 367 160 z "},"Ǿ":{"ha":794,"x_min":68,"x_max":746,"o":"m 167 -125 l 113 -103 l 611 1228 l 667 1207 l 167 -125 m 406 -17 q 206 28 279 -17 q 100 156 132 72 q 68 354 68 239 l 68 772 q 100 971 68 889 q 206 1097 132 1053 q 406 1140 279 1140 q 608 1097 533 1140 q 714 971 682 1053 q 746 772 746 889 l 746 354 q 714 156 746 239 q 608 28 682 72 q 406 -17 533 -17 m 406 160 q 463 179 444 160 q 486 229 481 199 q 492 292 492 260 l 492 833 q 486 897 492 867 q 463 946 481 926 q 406 965 444 965 q 351 946 369 965 q 328 897 333 926 q 322 833 322 867 l 322 292 q 327 229 322 260 q 349 179 332 199 q 406 160 367 160 m 322 1214 l 410 1493 l 640 1493 l 465 1214 l 322 1214 z "},"Õ":{"ha":814,"x_min":68,"x_max":746,"o":"m 406 -17 q 206 28 279 -17 q 100 156 132 72 q 68 354 68 239 l 68 772 q 100 971 68 889 q 206 1097 132 1053 q 406 1140 279 1140 q 608 1097 533 1140 q 714 971 682 1053 q 746 772 746 889 l 746 354 q 714 156 746 239 q 608 28 682 72 q 406 -17 533 -17 m 406 160 q 463 179 444 160 q 486 229 481 199 q 492 292 492 260 l 492 833 q 486 897 492 867 q 463 946 481 926 q 406 965 444 965 q 351 946 369 965 q 328 897 333 926 q 322 833 322 867 l 322 292 q 327 229 322 260 q 349 179 332 199 q 406 160 367 160 m 519 1250 q 456 1267 485 1250 q 400 1299 426 1283 q 346 1315 374 1315 q 306 1298 315 1315 q 296 1258 296 1281 l 188 1258 q 199 1360 188 1315 q 238 1430 210 1404 q 313 1456 265 1456 q 374 1440 347 1456 q 428 1410 401 1425 q 483 1394 454 1394 q 517 1410 507 1394 q 526 1447 526 1425 l 626 1447 q 620 1357 626 1403 q 591 1281 614 1311 q 519 1250 568 1250 z "},"Ȭ":{"ha":814,"x_min":68,"x_max":746,"o":"m 406 -17 q 206 28 279 -17 q 100 156 132 72 q 68 354 68 239 l 68 772 q 100 971 68 889 q 206 1097 132 1053 q 406 1140 279 1140 q 608 1097 533 1140 q 714 971 682 1053 q 746 772 746 889 l 746 354 q 714 156 746 239 q 608 28 682 72 q 406 -17 533 -17 m 406 160 q 463 179 444 160 q 486 229 481 199 q 492 292 492 260 l 492 833 q 486 897 492 867 q 463 946 481 926 q 406 965 444 965 q 351 946 369 965 q 328 897 333 926 q 322 833 322 867 l 322 292 q 327 229 322 260 q 349 179 332 199 q 406 160 367 160 m 519 1250 q 456 1267 485 1250 q 400 1299 426 1283 q 346 1315 374 1315 q 306 1298 315 1315 q 296 1258 296 1281 l 188 1258 q 199 1360 188 1315 q 238 1430 210 1404 q 313 1456 265 1456 q 374 1440 347 1456 q 428 1410 401 1425 q 483 1394 454 1394 q 517 1410 507 1394 q 526 1447 526 1425 l 626 1447 q 620 1357 626 1403 q 591 1281 614 1311 q 519 1250 568 1250 m 215 1578 l 215 1685 l 599 1685 l 599 1578 l 215 1578 z "},"Œ":{"ha":997,"x_min":68,"x_max":961,"o":"m 410 0 q 207 48 282 0 q 100 183 132 96 q 68 386 68 269 l 68 722 q 99 926 68 836 q 205 1069 131 1017 q 407 1121 279 1121 l 960 1121 l 960 951 l 726 951 l 726 668 l 899 668 l 899 494 l 726 494 l 726 168 l 961 168 l 961 0 l 410 0 m 410 172 l 479 172 l 479 944 l 410 944 q 346 917 365 944 q 322 849 326 890 q 317 767 317 808 l 317 339 q 322 260 317 299 q 347 197 328 221 q 410 172 367 172 z "},"P":{"ha":793,"x_min":83,"x_max":757,"o":"m 83 0 l 83 1125 l 461 1125 q 628 1087 563 1125 q 725 976 693 1049 q 757 799 757 903 q 714 599 757 668 q 597 504 671 531 q 432 478 524 478 l 332 478 l 332 0 l 83 0 m 332 651 l 415 651 q 485 668 461 651 q 516 718 508 685 q 524 803 524 751 q 517 878 524 846 q 488 931 511 911 q 414 950 464 950 l 332 950 l 332 651 z "},"Ṗ":{"ha":793,"x_min":83,"x_max":757,"o":"m 83 0 l 83 1125 l 461 1125 q 628 1087 563 1125 q 725 976 693 1049 q 757 799 757 903 q 714 599 757 668 q 597 504 671 531 q 432 478 524 478 l 332 478 l 332 0 l 83 0 m 332 651 l 415 651 q 485 668 461 651 q 516 718 508 685 q 524 803 524 751 q 517 878 524 846 q 488 931 511 911 q 414 950 464 950 l 332 950 l 332 651 m 290 1228 l 290 1442 l 504 1442 l 504 1228 l 290 1228 z "},"Þ":{"ha":781,"x_min":71,"x_max":760,"o":"m 71 0 l 71 1125 l 321 1125 l 321 975 l 429 975 q 614 944 540 975 q 724 844 688 913 q 760 663 760 775 q 739 497 760 563 q 676 394 718 432 q 569 340 633 356 q 417 325 504 325 l 321 325 l 321 0 l 71 0 m 321 501 l 400 501 q 503 535 472 501 q 533 650 533 569 q 504 760 533 725 q 406 796 475 796 l 321 796 l 321 501 z "},"Q":{"ha":814,"x_min":68,"x_max":746,"o":"m 660 -221 q 586 -176 629 -207 q 501 -102 543 -144 q 429 -15 458 -60 q 418 -17 424 -17 q 406 -17 413 -17 q 206 28 279 -17 q 100 156 132 72 q 68 354 68 239 l 68 772 q 100 971 68 889 q 206 1097 132 1053 q 406 1140 279 1140 q 608 1097 533 1140 q 714 971 682 1053 q 746 772 746 889 l 746 354 q 731 211 746 275 q 684 100 717 147 q 597 25 651 53 q 635 -13 615 6 q 674 -48 654 -32 q 713 -74 693 -64 l 660 -221 m 406 160 q 463 179 444 160 q 486 229 481 199 q 492 292 492 260 l 492 833 q 486 897 492 867 q 463 946 481 926 q 406 965 444 965 q 349 946 367 965 q 327 897 332 926 q 322 833 322 867 l 322 292 q 327 229 322 260 q 349 179 332 199 q 406 160 367 160 z "},"R":{"ha":833,"x_min":83,"x_max":783,"o":"m 83 0 l 83 1125 l 393 1125 q 590 1100 507 1125 q 720 1010 674 1075 q 767 828 767 946 q 756 704 767 758 q 715 610 744 650 q 629 544 685 571 l 783 0 l 526 0 l 403 504 l 332 504 l 332 0 l 83 0 m 332 647 l 401 647 q 483 666 454 647 q 524 720 513 685 q 536 806 536 756 q 510 918 536 878 q 413 958 483 958 l 332 958 l 332 647 z "},"Ŕ":{"ha":833,"x_min":83,"x_max":783,"o":"m 83 0 l 83 1125 l 393 1125 q 590 1100 507 1125 q 720 1010 674 1075 q 767 828 767 946 q 756 704 767 758 q 715 610 744 650 q 629 544 685 571 l 783 0 l 526 0 l 403 504 l 332 504 l 332 0 l 83 0 m 332 647 l 401 647 q 483 666 454 647 q 524 720 513 685 q 536 806 536 756 q 510 918 536 878 q 413 958 483 958 l 332 958 l 332 647 m 342 1214 l 429 1493 l 660 1493 l 485 1214 l 342 1214 z "},"Ř":{"ha":833,"x_min":83,"x_max":783,"o":"m 83 0 l 83 1125 l 393 1125 q 590 1100 507 1125 q 720 1010 674 1075 q 767 828 767 946 q 756 704 767 758 q 715 610 744 650 q 629 544 685 571 l 783 0 l 526 0 l 403 504 l 332 504 l 332 0 l 83 0 m 332 647 l 401 647 q 483 666 454 647 q 524 720 513 685 q 536 806 536 756 q 510 918 536 878 q 413 958 483 958 l 332 958 l 332 647 m 307 1210 l 185 1469 l 346 1469 l 417 1317 l 488 1469 l 649 1469 l 526 1210 l 307 1210 z "},"Ŗ":{"ha":833,"x_min":83,"x_max":783,"o":"m 83 0 l 83 1125 l 393 1125 q 590 1100 507 1125 q 720 1010 674 1075 q 767 828 767 946 q 756 704 767 758 q 715 610 744 650 q 629 544 685 571 l 783 0 l 526 0 l 403 504 l 332 504 l 332 0 l 83 0 m 332 647 l 401 647 q 483 666 454 647 q 524 720 513 685 q 536 806 536 756 q 510 918 536 878 q 413 958 483 958 l 332 958 l 332 647 m 347 -494 l 329 -419 q 398 -390 368 -412 q 428 -307 428 -367 l 310 -307 l 310 -96 l 524 -96 l 522 -276 q 481 -435 522 -379 q 347 -494 439 -492 z "},"Ȑ":{"ha":833,"x_min":83,"x_max":783,"o":"m 83 0 l 83 1125 l 393 1125 q 590 1100 507 1125 q 720 1010 674 1075 q 767 828 767 946 q 756 704 767 758 q 715 610 744 650 q 629 544 685 571 l 783 0 l 526 0 l 403 504 l 332 504 l 332 0 l 83 0 m 332 647 l 401 647 q 483 666 454 647 q 524 720 513 685 q 536 806 536 756 q 510 918 536 878 q 413 958 483 958 l 332 958 l 332 647 m 246 1208 l 107 1496 l 279 1496 l 368 1208 l 246 1208 m 489 1208 l 361 1496 l 526 1496 l 608 1208 l 489 1208 z "},"Ȓ":{"ha":833,"x_min":83,"x_max":783,"o":"m 83 0 l 83 1125 l 393 1125 q 590 1100 507 1125 q 720 1010 674 1075 q 767 828 767 946 q 756 704 767 758 q 715 610 744 650 q 629 544 685 571 l 783 0 l 526 0 l 403 504 l 332 504 l 332 0 l 83 0 m 332 647 l 401 647 q 483 666 454 647 q 524 720 513 685 q 536 806 536 756 q 510 918 536 878 q 413 958 483 958 l 332 958 l 332 647 m 199 1224 q 225 1344 199 1296 q 301 1419 251 1393 q 417 1444 350 1444 q 533 1419 485 1444 q 608 1344 582 1393 q 635 1224 635 1296 l 507 1224 q 486 1303 507 1278 q 417 1329 465 1329 q 347 1304 368 1329 q 326 1224 326 1279 l 199 1224 z "},"S":{"ha":714,"x_min":58,"x_max":676,"o":"m 382 -17 q 206 21 276 -17 q 99 137 135 58 q 58 340 63 215 l 271 372 q 284 256 272 300 q 317 192 296 211 q 369 172 339 172 q 420 199 408 172 q 432 254 432 225 q 399 372 432 324 q 308 468 365 419 l 211 553 q 103 676 147 607 q 60 846 60 744 q 144 1065 60 989 q 375 1140 229 1140 q 520 1110 465 1140 q 603 1030 575 1079 q 642 926 632 981 q 654 821 653 871 l 440 794 q 434 881 439 844 q 414 938 429 918 q 367 958 399 958 q 316 929 332 958 q 300 871 300 900 q 330 769 300 808 q 408 686 360 729 l 501 604 q 626 463 575 542 q 676 267 676 383 q 640 123 676 188 q 538 21 604 58 q 382 -17 472 -17 z "},"Ś":{"ha":714,"x_min":58,"x_max":676,"o":"m 382 -17 q 206 21 276 -17 q 99 137 135 58 q 58 340 63 215 l 271 372 q 284 256 272 300 q 317 192 296 211 q 369 172 339 172 q 420 199 408 172 q 432 254 432 225 q 399 372 432 324 q 308 468 365 419 l 211 553 q 103 676 147 607 q 60 846 60 744 q 144 1065 60 989 q 375 1140 229 1140 q 520 1110 465 1140 q 603 1030 575 1079 q 642 926 632 981 q 654 821 653 871 l 440 794 q 434 881 439 844 q 414 938 429 918 q 367 958 399 958 q 316 929 332 958 q 300 871 300 900 q 330 769 300 808 q 408 686 360 729 l 501 604 q 626 463 575 542 q 676 267 676 383 q 640 123 676 188 q 538 21 604 58 q 382 -17 472 -17 m 282 1214 l 369 1493 l 600 1493 l 425 1214 l 282 1214 z "},"Š":{"ha":714,"x_min":58,"x_max":676,"o":"m 382 -17 q 206 21 276 -17 q 99 137 135 58 q 58 340 63 215 l 271 372 q 284 256 272 300 q 317 192 296 211 q 369 172 339 172 q 420 199 408 172 q 432 254 432 225 q 399 372 432 324 q 308 468 365 419 l 211 553 q 103 676 147 607 q 60 846 60 744 q 144 1065 60 989 q 375 1140 229 1140 q 520 1110 465 1140 q 603 1030 575 1079 q 642 926 632 981 q 654 821 653 871 l 440 794 q 434 881 439 844 q 414 938 429 918 q 367 958 399 958 q 316 929 332 958 q 300 871 300 900 q 330 769 300 808 q 408 686 360 729 l 501 604 q 626 463 575 542 q 676 267 676 383 q 640 123 676 188 q 538 21 604 58 q 382 -17 472 -17 m 247 1210 l 125 1469 l 286 1469 l 357 1317 l 428 1469 l 589 1469 l 467 1210 l 247 1210 z "},"Ş":{"ha":714,"x_min":58,"x_max":676,"o":"m 382 -17 q 206 21 276 -17 q 99 137 135 58 q 58 340 63 215 l 271 372 q 284 256 272 300 q 317 192 296 211 q 369 172 339 172 q 420 199 408 172 q 432 254 432 225 q 399 372 432 324 q 308 468 365 419 l 211 553 q 103 676 147 607 q 60 846 60 744 q 144 1065 60 989 q 375 1140 229 1140 q 520 1110 465 1140 q 603 1030 575 1079 q 642 926 632 981 q 654 821 653 871 l 440 794 q 434 881 439 844 q 414 938 429 918 q 367 958 399 958 q 316 929 332 958 q 300 871 300 900 q 330 769 300 808 q 408 686 360 729 l 501 604 q 626 463 575 542 q 676 267 676 383 q 640 123 676 188 q 538 21 604 58 q 382 -17 472 -17 m 385 -385 q 331 -381 358 -385 q 279 -368 304 -376 l 279 -271 q 315 -278 294 -275 q 358 -282 336 -282 q 419 -271 394 -282 q 444 -233 444 -260 q 424 -192 444 -207 q 375 -169 404 -176 q 317 -161 346 -162 l 317 0 l 399 0 l 399 -92 q 537 -127 485 -92 q 589 -236 589 -162 q 560 -322 589 -289 q 485 -370 532 -356 q 385 -385 439 -385 z "},"Ŝ":{"ha":714,"x_min":58,"x_max":676,"o":"m 382 -17 q 206 21 276 -17 q 99 137 135 58 q 58 340 63 215 l 271 372 q 284 256 272 300 q 317 192 296 211 q 369 172 339 172 q 420 199 408 172 q 432 254 432 225 q 399 372 432 324 q 308 468 365 419 l 211 553 q 103 676 147 607 q 60 846 60 744 q 144 1065 60 989 q 375 1140 229 1140 q 520 1110 465 1140 q 603 1030 575 1079 q 642 926 632 981 q 654 821 653 871 l 440 794 q 434 881 439 844 q 414 938 429 918 q 367 958 399 958 q 316 929 332 958 q 300 871 300 900 q 330 769 300 808 q 408 686 360 729 l 501 604 q 626 463 575 542 q 676 267 676 383 q 640 123 676 188 q 538 21 604 58 q 382 -17 472 -17 m 131 1224 l 263 1490 l 447 1490 l 583 1224 l 417 1224 l 356 1389 l 296 1224 l 131 1224 z "},"Ș":{"ha":714,"x_min":58,"x_max":676,"o":"m 382 -17 q 206 21 276 -17 q 99 137 135 58 q 58 340 63 215 l 271 372 q 284 256 272 300 q 317 192 296 211 q 369 172 339 172 q 420 199 408 172 q 432 254 432 225 q 399 372 432 324 q 308 468 365 419 l 211 553 q 103 676 147 607 q 60 846 60 744 q 144 1065 60 989 q 375 1140 229 1140 q 520 1110 465 1140 q 603 1030 575 1079 q 642 926 632 981 q 654 821 653 871 l 440 794 q 434 881 439 844 q 414 938 429 918 q 367 958 399 958 q 316 929 332 958 q 300 871 300 900 q 330 769 300 808 q 408 686 360 729 l 501 604 q 626 463 575 542 q 676 267 676 383 q 640 123 676 188 q 538 21 604 58 q 382 -17 472 -17 m 288 -494 l 269 -419 q 338 -390 308 -412 q 368 -307 368 -367 l 250 -307 l 250 -96 l 464 -96 l 463 -276 q 421 -435 463 -379 q 288 -494 379 -492 z "},"Ṡ":{"ha":714,"x_min":58,"x_max":676,"o":"m 382 -17 q 206 21 276 -17 q 99 137 135 58 q 58 340 63 215 l 271 372 q 284 256 272 300 q 317 192 296 211 q 369 172 339 172 q 420 199 408 172 q 432 254 432 225 q 399 372 432 324 q 308 468 365 419 l 211 553 q 103 676 147 607 q 60 846 60 744 q 144 1065 60 989 q 375 1140 229 1140 q 520 1110 465 1140 q 603 1030 575 1079 q 642 926 632 981 q 654 821 653 871 l 440 794 q 434 881 439 844 q 414 938 429 918 q 367 958 399 958 q 316 929 332 958 q 300 871 300 900 q 330 769 300 808 q 408 686 360 729 l 501 604 q 626 463 575 542 q 676 267 676 383 q 640 123 676 188 q 538 21 604 58 q 382 -17 472 -17 m 250 1228 l 250 1442 l 464 1442 l 464 1228 l 250 1228 z "},"ẞ":{"ha":864,"x_min":75,"x_max":818,"o":"m 418 -17 l 418 153 l 444 153 q 544 194 508 153 q 579 322 579 235 q 547 449 579 407 q 444 492 514 492 l 432 492 l 432 656 l 583 944 q 539 960 564 954 q 485 965 514 965 q 364 918 403 965 q 325 781 325 871 l 325 0 l 75 0 l 75 774 q 115 965 75 882 q 240 1094 156 1047 q 458 1140 325 1140 q 627 1119 553 1140 q 765 1064 701 1099 l 765 899 l 582 554 l 500 633 q 740 554 661 633 q 818 326 818 475 q 726 65 818 146 q 460 -17 633 -17 l 418 -17 z "},"Ə":{"ha":808,"x_min":63,"x_max":740,"o":"m 404 -17 q 219 22 296 -17 q 103 138 143 61 q 63 328 63 215 l 63 585 l 486 585 l 486 842 q 476 915 486 888 q 448 953 467 942 q 400 965 429 965 q 355 953 374 965 q 326 915 336 942 q 317 842 317 888 l 317 682 l 63 682 l 63 797 q 103 987 63 911 q 220 1101 143 1063 q 404 1140 297 1140 q 583 1098 508 1140 q 699 976 658 1056 q 740 783 740 896 l 740 339 q 699 147 740 226 q 583 25 658 67 q 404 -17 508 -17 m 401 158 q 449 171 431 158 q 477 210 468 183 q 486 281 486 238 l 486 435 l 317 435 l 317 281 q 326 210 317 238 q 354 171 335 183 q 401 158 374 158 z "},"T":{"ha":618,"x_min":15,"x_max":603,"o":"m 185 0 l 185 940 l 15 940 l 15 1125 l 603 1125 l 603 940 l 435 940 l 435 0 l 185 0 z "},"Ŧ":{"ha":621,"x_min":15,"x_max":603,"o":"m 64 513 l 64 633 l 564 633 l 564 513 l 64 513 m 185 0 l 185 940 l 15 940 l 15 1125 l 603 1125 l 603 940 l 435 940 l 435 0 l 185 0 z "},"Ť":{"ha":614,"x_min":15,"x_max":603,"o":"m 185 0 l 185 940 l 15 940 l 15 1125 l 603 1125 l 603 940 l 435 940 l 435 0 l 185 0 m 197 1210 l 75 1469 l 236 1469 l 307 1317 l 378 1469 l 539 1469 l 417 1210 l 197 1210 z "},"Ţ":{"ha":614,"x_min":15,"x_max":603,"o":"m 185 0 l 185 940 l 15 940 l 15 1125 l 603 1125 l 603 940 l 435 940 l 435 0 l 185 0 m 335 -385 q 281 -381 308 -385 q 229 -368 254 -376 l 229 -271 q 265 -278 244 -275 q 308 -282 286 -282 q 369 -271 344 -282 q 394 -233 394 -260 q 374 -192 394 -207 q 325 -169 354 -176 q 267 -161 296 -162 l 267 0 l 349 0 l 349 -92 q 487 -127 435 -92 q 539 -236 539 -162 q 510 -322 539 -289 q 435 -370 482 -356 q 335 -385 389 -385 z "},"Ț":{"ha":614,"x_min":15,"x_max":603,"o":"m 185 0 l 185 940 l 15 940 l 15 1125 l 603 1125 l 603 940 l 435 940 l 435 0 l 185 0 m 238 -494 l 219 -419 q 288 -390 258 -412 q 318 -307 318 -367 l 200 -307 l 200 -96 l 414 -96 l 413 -276 q 371 -435 413 -379 q 238 -494 329 -492 z "},"Ṫ":{"ha":614,"x_min":15,"x_max":603,"o":"m 185 0 l 185 940 l 15 940 l 15 1125 l 603 1125 l 603 940 l 435 940 l 435 0 l 185 0 m 200 1228 l 200 1442 l 414 1442 l 414 1228 l 200 1228 z "},"U":{"ha":817,"x_min":75,"x_max":742,"o":"m 408 -17 q 206 26 279 -17 q 104 149 133 68 q 75 349 75 231 l 75 1125 l 321 1125 l 321 311 q 326 242 321 276 q 351 185 332 207 q 408 163 369 163 q 467 185 449 163 q 490 242 485 207 q 494 311 494 276 l 494 1125 l 742 1125 l 742 349 q 712 149 742 231 q 610 26 682 68 q 408 -17 538 -17 z "},"Ú":{"ha":817,"x_min":75,"x_max":742,"o":"m 408 -17 q 206 26 279 -17 q 104 149 133 68 q 75 349 75 231 l 75 1125 l 321 1125 l 321 311 q 326 242 321 276 q 351 185 332 207 q 408 163 369 163 q 467 185 449 163 q 490 242 485 207 q 494 311 494 276 l 494 1125 l 742 1125 l 742 349 q 712 149 742 231 q 610 26 682 68 q 408 -17 538 -17 m 333 1214 l 421 1493 l 651 1493 l 476 1214 l 333 1214 z "},"Ŭ":{"ha":817,"x_min":75,"x_max":742,"o":"m 408 -17 q 206 26 279 -17 q 104 149 133 68 q 75 349 75 231 l 75 1125 l 321 1125 l 321 311 q 326 242 321 276 q 351 185 332 207 q 408 163 369 163 q 467 185 449 163 q 490 242 485 207 q 494 311 494 276 l 494 1125 l 742 1125 l 742 349 q 712 149 742 231 q 610 26 682 68 q 408 -17 538 -17 m 408 1215 q 250 1271 310 1215 q 190 1432 190 1326 l 318 1432 q 338 1356 318 1381 q 408 1331 358 1331 q 478 1356 457 1331 q 499 1432 499 1382 l 626 1432 q 567 1271 626 1326 q 408 1215 507 1215 z "},"Ǔ":{"ha":817,"x_min":75,"x_max":742,"o":"m 408 -17 q 206 26 279 -17 q 104 149 133 68 q 75 349 75 231 l 75 1125 l 321 1125 l 321 311 q 326 242 321 276 q 351 185 332 207 q 408 163 369 163 q 467 185 449 163 q 490 242 485 207 q 494 311 494 276 l 494 1125 l 742 1125 l 742 349 q 712 149 742 231 q 610 26 682 68 q 408 -17 538 -17 m 299 1210 l 176 1469 l 338 1469 l 408 1317 l 479 1469 l 640 1469 l 518 1210 l 299 1210 z "},"Û":{"ha":817,"x_min":75,"x_max":742,"o":"m 408 -17 q 206 26 279 -17 q 104 149 133 68 q 75 349 75 231 l 75 1125 l 321 1125 l 321 311 q 326 242 321 276 q 351 185 332 207 q 408 163 369 163 q 467 185 449 163 q 490 242 485 207 q 494 311 494 276 l 494 1125 l 742 1125 l 742 349 q 712 149 742 231 q 610 26 682 68 q 408 -17 538 -17 m 182 1224 l 314 1490 l 499 1490 l 635 1224 l 468 1224 l 407 1389 l 347 1224 l 182 1224 z "},"Ȕ":{"ha":817,"x_min":75,"x_max":742,"o":"m 408 -17 q 206 26 279 -17 q 104 149 133 68 q 75 349 75 231 l 75 1125 l 321 1125 l 321 311 q 326 242 321 276 q 351 185 332 207 q 408 163 369 163 q 467 185 449 163 q 490 242 485 207 q 494 311 494 276 l 494 1125 l 742 1125 l 742 349 q 712 149 742 231 q 610 26 682 68 q 408 -17 538 -17 m 238 1208 l 99 1496 l 271 1496 l 360 1208 l 238 1208 m 481 1208 l 353 1496 l 518 1496 l 600 1208 l 481 1208 z "},"Ü":{"ha":817,"x_min":75,"x_max":742,"o":"m 408 -17 q 206 26 279 -17 q 104 149 133 68 q 75 349 75 231 l 75 1125 l 321 1125 l 321 311 q 326 242 321 276 q 351 185 332 207 q 408 163 369 163 q 467 185 449 163 q 490 242 485 207 q 494 311 494 276 l 494 1125 l 742 1125 l 742 349 q 712 149 742 231 q 610 26 682 68 q 408 -17 538 -17 m 469 1242 l 469 1447 l 650 1447 l 650 1242 l 469 1242 m 167 1242 l 167 1447 l 347 1447 l 347 1242 l 167 1242 z "},"Ụ":{"ha":817,"x_min":75,"x_max":742,"o":"m 408 -17 q 206 26 279 -17 q 104 149 133 68 q 75 349 75 231 l 75 1125 l 321 1125 l 321 311 q 326 242 321 276 q 351 185 332 207 q 408 163 369 163 q 467 185 449 163 q 490 242 485 207 q 494 311 494 276 l 494 1125 l 742 1125 l 742 349 q 712 149 742 231 q 610 26 682 68 q 408 -17 538 -17 m 311 -289 l 311 -97 l 506 -97 l 506 -289 l 311 -289 z "},"Ù":{"ha":817,"x_min":75,"x_max":742,"o":"m 408 -17 q 206 26 279 -17 q 104 149 133 68 q 75 349 75 231 l 75 1125 l 321 1125 l 321 311 q 326 242 321 276 q 351 185 332 207 q 408 163 369 163 q 467 185 449 163 q 490 242 485 207 q 494 311 494 276 l 494 1125 l 742 1125 l 742 349 q 712 149 742 231 q 610 26 682 68 q 408 -17 538 -17 m 342 1214 l 165 1493 l 399 1493 l 483 1214 l 342 1214 z "},"Ủ":{"ha":817,"x_min":75,"x_max":742,"o":"m 408 -17 q 206 26 279 -17 q 104 149 133 68 q 75 349 75 231 l 75 1125 l 321 1125 l 321 311 q 326 242 321 276 q 351 185 332 207 q 408 163 369 163 q 467 185 449 163 q 490 242 485 207 q 494 311 494 276 l 494 1125 l 742 1125 l 742 349 q 712 149 742 231 q 610 26 682 68 q 408 -17 538 -17 m 408 1193 l 332 1265 q 403 1303 374 1285 q 432 1354 432 1322 q 410 1392 432 1382 q 353 1403 388 1403 q 308 1400 331 1403 q 267 1393 285 1397 l 267 1488 q 408 1506 333 1506 q 492 1492 453 1506 q 554 1448 531 1478 q 578 1368 578 1418 q 554 1286 578 1319 q 492 1231 531 1253 q 408 1193 454 1210 z "},"Ư":{"ha":817,"x_min":75,"x_max":838,"o":"m 408 -17 q 206 26 279 -17 q 104 149 133 68 q 75 349 75 231 l 75 1125 l 321 1125 l 321 311 q 326 242 321 276 q 351 185 332 207 q 408 163 369 163 q 467 185 449 163 q 490 242 485 207 q 494 311 494 276 l 494 1125 l 742 1125 l 742 349 q 712 149 742 231 q 610 26 682 68 q 408 -17 538 -17 m 590 1035 l 590 1125 l 604 1125 q 663 1155 646 1125 q 679 1244 679 1185 l 838 1244 q 772 1087 838 1139 q 604 1035 707 1035 l 590 1035 z "},"Ứ":{"ha":817,"x_min":75,"x_max":838,"o":"m 408 -17 q 206 26 279 -17 q 104 149 133 68 q 75 349 75 231 l 75 1125 l 321 1125 l 321 311 q 326 242 321 276 q 351 185 332 207 q 408 163 369 163 q 467 185 449 163 q 490 242 485 207 q 494 311 494 276 l 494 1125 l 742 1125 l 742 349 q 712 149 742 231 q 610 26 682 68 q 408 -17 538 -17 m 590 1035 l 590 1125 l 604 1125 q 663 1155 646 1125 q 679 1244 679 1185 l 838 1244 q 772 1087 838 1139 q 604 1035 707 1035 l 590 1035 m 333 1214 l 421 1493 l 651 1493 l 476 1214 l 333 1214 z "},"Ự":{"ha":817,"x_min":75,"x_max":838,"o":"m 408 -17 q 206 26 279 -17 q 104 149 133 68 q 75 349 75 231 l 75 1125 l 321 1125 l 321 311 q 326 242 321 276 q 351 185 332 207 q 408 163 369 163 q 467 185 449 163 q 490 242 485 207 q 494 311 494 276 l 494 1125 l 742 1125 l 742 349 q 712 149 742 231 q 610 26 682 68 q 408 -17 538 -17 m 590 1035 l 590 1125 l 604 1125 q 663 1155 646 1125 q 679 1244 679 1185 l 838 1244 q 772 1087 838 1139 q 604 1035 707 1035 l 590 1035 m 311 -289 l 311 -97 l 506 -97 l 506 -289 l 311 -289 z "},"Ừ":{"ha":817,"x_min":75,"x_max":838,"o":"m 408 -17 q 206 26 279 -17 q 104 149 133 68 q 75 349 75 231 l 75 1125 l 321 1125 l 321 311 q 326 242 321 276 q 351 185 332 207 q 408 163 369 163 q 467 185 449 163 q 490 242 485 207 q 494 311 494 276 l 494 1125 l 742 1125 l 742 349 q 712 149 742 231 q 610 26 682 68 q 408 -17 538 -17 m 590 1035 l 590 1125 l 604 1125 q 663 1155 646 1125 q 679 1244 679 1185 l 838 1244 q 772 1087 838 1139 q 604 1035 707 1035 l 590 1035 m 342 1214 l 165 1493 l 399 1493 l 483 1214 l 342 1214 z "},"Ử":{"ha":817,"x_min":75,"x_max":838,"o":"m 408 -17 q 206 26 279 -17 q 104 149 133 68 q 75 349 75 231 l 75 1125 l 321 1125 l 321 311 q 326 242 321 276 q 351 185 332 207 q 408 163 369 163 q 467 185 449 163 q 490 242 485 207 q 494 311 494 276 l 494 1125 l 742 1125 l 742 349 q 712 149 742 231 q 610 26 682 68 q 408 -17 538 -17 m 590 1035 l 590 1125 l 604 1125 q 663 1155 646 1125 q 679 1244 679 1185 l 838 1244 q 772 1087 838 1139 q 604 1035 707 1035 l 590 1035 m 408 1193 l 332 1265 q 403 1303 374 1285 q 432 1354 432 1322 q 410 1392 432 1382 q 353 1403 388 1403 q 308 1400 331 1403 q 267 1393 285 1397 l 267 1488 q 408 1506 333 1506 q 492 1492 453 1506 q 554 1448 531 1478 q 578 1368 578 1418 q 554 1286 578 1319 q 492 1231 531 1253 q 408 1193 454 1210 z "},"Ữ":{"ha":817,"x_min":75,"x_max":838,"o":"m 408 -17 q 206 26 279 -17 q 104 149 133 68 q 75 349 75 231 l 75 1125 l 321 1125 l 321 311 q 326 242 321 276 q 351 185 332 207 q 408 163 369 163 q 467 185 449 163 q 490 242 485 207 q 494 311 494 276 l 494 1125 l 742 1125 l 742 349 q 712 149 742 231 q 610 26 682 68 q 408 -17 538 -17 m 590 1035 l 590 1125 l 604 1125 q 663 1155 646 1125 q 679 1244 679 1185 l 838 1244 q 772 1087 838 1139 q 604 1035 707 1035 l 590 1035 m 521 1250 q 457 1267 486 1250 q 401 1299 428 1283 q 347 1315 375 1315 q 307 1298 317 1315 q 297 1258 297 1281 l 189 1258 q 200 1360 189 1315 q 239 1430 211 1404 q 314 1456 267 1456 q 376 1440 349 1456 q 429 1410 403 1425 q 485 1394 456 1394 q 518 1410 508 1394 q 528 1447 528 1425 l 628 1447 q 622 1357 628 1403 q 592 1281 615 1311 q 521 1250 569 1250 z "},"Ű":{"ha":817,"x_min":75,"x_max":750,"o":"m 408 -17 q 206 26 279 -17 q 104 149 133 68 q 75 349 75 231 l 75 1125 l 321 1125 l 321 311 q 326 242 321 276 q 351 185 332 207 q 408 163 369 163 q 467 185 449 163 q 490 242 485 207 q 494 311 494 276 l 494 1125 l 742 1125 l 742 349 q 712 149 742 231 q 610 26 682 68 q 408 -17 538 -17 m 467 1201 l 556 1501 l 750 1501 l 583 1201 l 467 1201 m 219 1201 l 303 1501 l 486 1501 l 336 1201 l 219 1201 z "},"Ȗ":{"ha":817,"x_min":75,"x_max":742,"o":"m 408 -17 q 206 26 279 -17 q 104 149 133 68 q 75 349 75 231 l 75 1125 l 321 1125 l 321 311 q 326 242 321 276 q 351 185 332 207 q 408 163 369 163 q 467 185 449 163 q 490 242 485 207 q 494 311 494 276 l 494 1125 l 742 1125 l 742 349 q 712 149 742 231 q 610 26 682 68 q 408 -17 538 -17 m 190 1224 q 217 1344 190 1296 q 292 1419 243 1393 q 408 1444 342 1444 q 525 1419 476 1444 q 600 1344 574 1393 q 626 1224 626 1296 l 499 1224 q 478 1303 499 1278 q 408 1329 457 1329 q 339 1304 360 1329 q 318 1224 318 1279 l 190 1224 z "},"Ū":{"ha":817,"x_min":75,"x_max":742,"o":"m 408 -17 q 206 26 279 -17 q 104 149 133 68 q 75 349 75 231 l 75 1125 l 321 1125 l 321 311 q 326 242 321 276 q 351 185 332 207 q 408 163 369 163 q 467 185 449 163 q 490 242 485 207 q 494 311 494 276 l 494 1125 l 742 1125 l 742 349 q 712 149 742 231 q 610 26 682 68 q 408 -17 538 -17 m 217 1247 l 217 1354 l 600 1354 l 600 1247 l 217 1247 z "},"Ų":{"ha":817,"x_min":75,"x_max":742,"o":"m 408 -17 q 206 26 279 -17 q 104 149 133 68 q 75 349 75 231 l 75 1125 l 321 1125 l 321 311 q 326 242 321 276 q 351 185 332 207 q 408 163 369 163 q 467 185 449 163 q 490 242 485 207 q 494 311 494 276 l 494 1125 l 742 1125 l 742 349 q 712 149 742 231 q 610 26 682 68 q 408 -17 538 -17 m 506 -361 q 432 -356 471 -361 q 360 -336 393 -351 q 306 -291 326 -321 q 285 -211 285 -261 q 300 -135 285 -175 q 340 -60 315 -96 q 393 0 365 -25 l 494 0 q 470 -52 482 -24 q 451 -110 458 -81 q 444 -168 444 -139 q 472 -233 444 -215 q 533 -250 499 -250 q 556 -249 544 -250 q 574 -247 567 -249 l 551 -357 q 531 -360 543 -358 q 506 -361 519 -361 z "},"Ů":{"ha":817,"x_min":75,"x_max":742,"o":"m 408 -17 q 206 26 279 -17 q 104 149 133 68 q 75 349 75 231 l 75 1125 l 321 1125 l 321 311 q 326 242 321 276 q 351 185 332 207 q 408 163 369 163 q 467 185 449 163 q 490 242 485 207 q 494 311 494 276 l 494 1125 l 742 1125 l 742 349 q 712 149 742 231 q 610 26 682 68 q 408 -17 538 -17 m 407 1186 q 294 1224 342 1186 q 246 1338 246 1263 q 294 1452 246 1414 q 407 1490 342 1490 q 522 1451 472 1490 q 571 1338 571 1413 q 522 1224 571 1263 q 407 1186 474 1186 m 407 1265 q 459 1287 442 1265 q 476 1338 476 1308 q 459 1390 476 1368 q 407 1411 442 1411 q 356 1390 374 1411 q 339 1338 339 1368 q 356 1287 339 1308 q 407 1265 374 1265 z "},"Ũ":{"ha":817,"x_min":75,"x_max":742,"o":"m 408 -17 q 206 26 279 -17 q 104 149 133 68 q 75 349 75 231 l 75 1125 l 321 1125 l 321 311 q 326 242 321 276 q 351 185 332 207 q 408 163 369 163 q 467 185 449 163 q 490 242 485 207 q 494 311 494 276 l 494 1125 l 742 1125 l 742 349 q 712 149 742 231 q 610 26 682 68 q 408 -17 538 -17 m 521 1250 q 457 1267 486 1250 q 401 1299 428 1283 q 347 1315 375 1315 q 307 1298 317 1315 q 297 1258 297 1281 l 189 1258 q 200 1360 189 1315 q 239 1430 211 1404 q 314 1456 267 1456 q 376 1440 349 1456 q 429 1410 403 1425 q 485 1394 456 1394 q 518 1410 508 1394 q 528 1447 528 1425 l 628 1447 q 622 1357 628 1403 q 592 1281 615 1311 q 521 1250 569 1250 z "},"V":{"ha":731,"x_min":31,"x_max":701,"o":"m 233 0 l 31 1125 l 243 1125 l 364 361 l 476 1125 l 701 1125 l 496 0 l 233 0 z "},"W":{"ha":968,"x_min":38,"x_max":931,"o":"m 174 0 l 38 1125 l 249 1125 l 315 469 l 400 1124 l 565 1124 l 654 474 l 722 1125 l 931 1125 l 796 0 l 579 0 l 483 679 l 393 0 l 174 0 z "},"Ẃ":{"ha":968,"x_min":38,"x_max":931,"o":"m 174 0 l 38 1125 l 249 1125 l 315 469 l 400 1124 l 565 1124 l 654 474 l 722 1125 l 931 1125 l 796 0 l 579 0 l 483 679 l 393 0 l 174 0 m 410 1214 l 497 1493 l 728 1493 l 553 1214 l 410 1214 z "},"Ŵ":{"ha":968,"x_min":38,"x_max":931,"o":"m 174 0 l 38 1125 l 249 1125 l 315 469 l 400 1124 l 565 1124 l 654 474 l 722 1125 l 931 1125 l 796 0 l 579 0 l 483 679 l 393 0 l 174 0 m 258 1224 l 390 1490 l 575 1490 l 711 1224 l 544 1224 l 483 1389 l 424 1224 l 258 1224 z "},"Ẅ":{"ha":968,"x_min":38,"x_max":931,"o":"m 174 0 l 38 1125 l 249 1125 l 315 469 l 400 1124 l 565 1124 l 654 474 l 722 1125 l 931 1125 l 796 0 l 579 0 l 483 679 l 393 0 l 174 0 m 546 1242 l 546 1447 l 726 1447 l 726 1242 l 546 1242 m 243 1242 l 243 1447 l 424 1447 l 424 1242 l 243 1242 z "},"Ẁ":{"ha":968,"x_min":38,"x_max":931,"o":"m 174 0 l 38 1125 l 249 1125 l 315 469 l 400 1124 l 565 1124 l 654 474 l 722 1125 l 931 1125 l 796 0 l 579 0 l 483 679 l 393 0 l 174 0 m 418 1214 l 242 1493 l 475 1493 l 560 1214 l 418 1214 z "},"X":{"ha":715,"x_min":10,"x_max":707,"o":"m 10 0 l 228 606 l 19 1125 l 254 1125 l 378 821 l 478 1125 l 685 1125 l 488 540 l 707 0 l 474 0 l 336 336 l 215 0 l 10 0 z "},"Y":{"ha":685,"x_min":11,"x_max":674,"o":"m 225 0 l 225 460 l 11 1125 l 246 1125 l 353 769 l 449 1125 l 674 1125 l 464 460 l 464 0 l 225 0 z "},"Ý":{"ha":685,"x_min":11,"x_max":674,"o":"m 225 0 l 225 460 l 11 1125 l 246 1125 l 353 769 l 449 1125 l 674 1125 l 464 460 l 464 0 l 225 0 m 268 1214 l 356 1493 l 586 1493 l 411 1214 l 268 1214 z "},"Ŷ":{"ha":685,"x_min":11,"x_max":674,"o":"m 225 0 l 225 460 l 11 1125 l 246 1125 l 353 769 l 449 1125 l 674 1125 l 464 460 l 464 0 l 225 0 m 117 1224 l 249 1490 l 433 1490 l 569 1224 l 403 1224 l 342 1389 l 282 1224 l 117 1224 z "},"Ÿ":{"ha":685,"x_min":11,"x_max":674,"o":"m 225 0 l 225 460 l 11 1125 l 246 1125 l 353 769 l 449 1125 l 674 1125 l 464 460 l 464 0 l 225 0 m 404 1242 l 404 1447 l 585 1447 l 585 1242 l 404 1242 m 101 1242 l 101 1447 l 282 1447 l 282 1242 l 101 1242 z "},"Ỵ":{"ha":685,"x_min":11,"x_max":674,"o":"m 225 0 l 225 460 l 11 1125 l 246 1125 l 353 769 l 449 1125 l 674 1125 l 464 460 l 464 0 l 225 0 m 246 -289 l 246 -97 l 440 -97 l 440 -289 l 246 -289 z "},"Ỳ":{"ha":685,"x_min":11,"x_max":674,"o":"m 225 0 l 225 460 l 11 1125 l 246 1125 l 353 769 l 449 1125 l 674 1125 l 464 460 l 464 0 l 225 0 m 276 1214 l 100 1493 l 333 1493 l 418 1214 l 276 1214 z "},"Ỷ":{"ha":685,"x_min":11,"x_max":674,"o":"m 225 0 l 225 460 l 11 1125 l 246 1125 l 353 769 l 449 1125 l 674 1125 l 464 460 l 464 0 l 225 0 m 343 1193 l 267 1265 q 338 1303 308 1285 q 367 1354 367 1322 q 344 1392 367 1382 q 288 1403 322 1403 q 242 1400 265 1403 q 201 1393 219 1397 l 201 1488 q 343 1506 268 1506 q 426 1492 388 1506 q 489 1448 465 1478 q 513 1368 513 1418 q 489 1286 513 1319 q 427 1231 465 1253 q 343 1193 389 1210 z "},"Ȳ":{"ha":685,"x_min":11,"x_max":674,"o":"m 225 0 l 225 460 l 11 1125 l 246 1125 l 353 769 l 449 1125 l 674 1125 l 464 460 l 464 0 l 225 0 m 151 1247 l 151 1354 l 535 1354 l 535 1247 l 151 1247 z "},"Ỹ":{"ha":685,"x_min":11,"x_max":674,"o":"m 225 0 l 225 460 l 11 1125 l 246 1125 l 353 769 l 449 1125 l 674 1125 l 464 460 l 464 0 l 225 0 m 456 1250 q 392 1267 421 1250 q 336 1299 363 1283 q 282 1315 310 1315 q 242 1298 251 1315 q 232 1258 232 1281 l 124 1258 q 135 1360 124 1315 q 174 1430 146 1404 q 249 1456 201 1456 q 310 1440 283 1456 q 364 1410 338 1425 q 419 1394 390 1394 q 453 1410 443 1394 q 463 1447 463 1425 l 563 1447 q 556 1357 563 1403 q 527 1281 550 1311 q 456 1250 504 1250 z "},"Z":{"ha":601,"x_min":40,"x_max":563,"o":"m 40 0 l 40 150 l 315 957 l 53 957 l 53 1125 l 560 1125 l 560 985 l 281 168 l 563 168 l 563 0 l 40 0 z "},"Ź":{"ha":601,"x_min":40,"x_max":563,"o":"m 40 0 l 40 150 l 315 957 l 53 957 l 53 1125 l 560 1125 l 560 985 l 281 168 l 563 168 l 563 0 l 40 0 m 226 1214 l 314 1493 l 544 1493 l 369 1214 l 226 1214 z "},"Ž":{"ha":601,"x_min":40,"x_max":563,"o":"m 40 0 l 40 150 l 315 957 l 53 957 l 53 1125 l 560 1125 l 560 985 l 281 168 l 563 168 l 563 0 l 40 0 m 192 1210 l 69 1469 l 231 1469 l 301 1317 l 372 1469 l 533 1469 l 411 1210 l 192 1210 z "},"Ż":{"ha":601,"x_min":40,"x_max":563,"o":"m 40 0 l 40 150 l 315 957 l 53 957 l 53 1125 l 560 1125 l 560 985 l 281 168 l 563 168 l 563 0 l 40 0 m 194 1228 l 194 1442 l 408 1442 l 408 1228 l 194 1228 z "},"a":{"ha":661,"x_min":50,"x_max":611,"o":"m 236 -14 q 133 15 175 -14 q 71 90 92 44 q 50 182 50 135 q 80 308 50 257 q 158 394 110 360 q 265 453 207 429 q 381 497 324 478 l 381 578 q 376 615 381 599 q 363 640 372 631 q 333 649 353 649 q 303 640 314 649 q 289 617 293 632 q 283 585 285 603 l 278 526 l 67 535 q 144 748 74 679 q 354 817 214 817 q 537 749 476 817 q 597 575 597 682 l 597 200 q 599 113 597 150 q 605 47 601 75 q 611 0 608 19 l 408 0 q 399 69 404 32 q 390 114 393 107 q 338 25 376 64 q 236 -14 300 -14 m 317 139 q 342 144 331 139 q 364 160 354 150 q 381 179 374 169 l 381 399 q 329 365 353 382 q 289 326 306 347 q 263 281 272 306 q 254 226 254 257 q 271 163 254 186 q 317 139 288 139 z "},"á":{"ha":661,"x_min":50,"x_max":611,"o":"m 236 -14 q 133 15 175 -14 q 71 90 92 44 q 50 182 50 135 q 80 308 50 257 q 158 394 110 360 q 265 453 207 429 q 381 497 324 478 l 381 578 q 376 615 381 599 q 363 640 372 631 q 333 649 353 649 q 303 640 314 649 q 289 617 293 632 q 283 585 285 603 l 278 526 l 67 535 q 144 748 74 679 q 354 817 214 817 q 537 749 476 817 q 597 575 597 682 l 597 200 q 599 113 597 150 q 605 47 601 75 q 611 0 608 19 l 408 0 q 399 69 404 32 q 390 114 393 107 q 338 25 376 64 q 236 -14 300 -14 m 317 139 q 342 144 331 139 q 364 160 354 150 q 381 179 374 169 l 381 399 q 329 365 353 382 q 289 326 306 347 q 263 281 272 306 q 254 226 254 257 q 271 163 254 186 q 317 139 288 139 m 278 892 l 365 1171 l 596 1171 l 421 892 l 278 892 z "},"ă":{"ha":661,"x_min":50,"x_max":611,"o":"m 236 -14 q 133 15 175 -14 q 71 90 92 44 q 50 182 50 135 q 80 308 50 257 q 158 394 110 360 q 265 453 207 429 q 381 497 324 478 l 381 578 q 376 615 381 599 q 363 640 372 631 q 333 649 353 649 q 303 640 314 649 q 289 617 293 632 q 283 585 285 603 l 278 526 l 67 535 q 144 748 74 679 q 354 817 214 817 q 537 749 476 817 q 597 575 597 682 l 597 200 q 599 113 597 150 q 605 47 601 75 q 611 0 608 19 l 408 0 q 399 69 404 32 q 390 114 393 107 q 338 25 376 64 q 236 -14 300 -14 m 317 139 q 342 144 331 139 q 364 160 354 150 q 381 179 374 169 l 381 399 q 329 365 353 382 q 289 326 306 347 q 263 281 272 306 q 254 226 254 257 q 271 163 254 186 q 317 139 288 139 m 353 893 q 194 949 254 893 q 135 1110 135 1004 l 263 1110 q 283 1033 263 1058 q 353 1008 303 1008 q 422 1034 401 1008 q 443 1110 443 1060 l 571 1110 q 511 949 571 1004 q 353 893 451 893 z "},"ắ":{"ha":661,"x_min":50,"x_max":611,"o":"m 236 -14 q 133 15 175 -14 q 71 90 92 44 q 50 182 50 135 q 80 308 50 257 q 158 394 110 360 q 265 453 207 429 q 381 497 324 478 l 381 578 q 376 615 381 599 q 363 640 372 631 q 333 649 353 649 q 303 640 314 649 q 289 617 293 632 q 283 585 285 603 l 278 526 l 67 535 q 144 748 74 679 q 354 817 214 817 q 537 749 476 817 q 597 575 597 682 l 597 200 q 599 113 597 150 q 605 47 601 75 q 611 0 608 19 l 408 0 q 399 69 404 32 q 390 114 393 107 q 338 25 376 64 q 236 -14 300 -14 m 317 139 q 342 144 331 139 q 364 160 354 150 q 381 179 374 169 l 381 399 q 329 365 353 382 q 289 326 306 347 q 263 281 272 306 q 254 226 254 257 q 271 163 254 186 q 317 139 288 139 m 260 1157 l 358 1318 l 543 1318 l 390 1157 l 260 1157 m 353 888 q 194 943 254 888 q 135 1104 135 999 l 263 1104 q 283 1028 263 1053 q 353 1003 303 1003 q 422 1028 401 1003 q 443 1104 443 1054 l 571 1104 q 511 943 571 999 q 353 888 451 888 z "},"ặ":{"ha":661,"x_min":50,"x_max":611,"o":"m 236 -14 q 133 15 175 -14 q 71 90 92 44 q 50 182 50 135 q 80 308 50 257 q 158 394 110 360 q 265 453 207 429 q 381 497 324 478 l 381 578 q 376 615 381 599 q 363 640 372 631 q 333 649 353 649 q 303 640 314 649 q 289 617 293 632 q 283 585 285 603 l 278 526 l 67 535 q 144 748 74 679 q 354 817 214 817 q 537 749 476 817 q 597 575 597 682 l 597 200 q 599 113 597 150 q 605 47 601 75 q 611 0 608 19 l 408 0 q 399 69 404 32 q 390 114 393 107 q 338 25 376 64 q 236 -14 300 -14 m 317 139 q 342 144 331 139 q 364 160 354 150 q 381 179 374 169 l 381 399 q 329 365 353 382 q 289 326 306 347 q 263 281 272 306 q 254 226 254 257 q 271 163 254 186 q 317 139 288 139 m 235 -289 l 235 -97 l 429 -97 l 429 -289 l 235 -289 m 353 893 q 194 949 254 893 q 135 1110 135 1004 l 263 1110 q 283 1033 263 1058 q 353 1008 303 1008 q 422 1034 401 1008 q 443 1110 443 1060 l 571 1110 q 511 949 571 1004 q 353 893 451 893 z "},"ằ":{"ha":661,"x_min":50,"x_max":611,"o":"m 236 -14 q 133 15 175 -14 q 71 90 92 44 q 50 182 50 135 q 80 308 50 257 q 158 394 110 360 q 265 453 207 429 q 381 497 324 478 l 381 578 q 376 615 381 599 q 363 640 372 631 q 333 649 353 649 q 303 640 314 649 q 289 617 293 632 q 283 585 285 603 l 278 526 l 67 535 q 144 748 74 679 q 354 817 214 817 q 537 749 476 817 q 597 575 597 682 l 597 200 q 599 113 597 150 q 605 47 601 75 q 611 0 608 19 l 408 0 q 399 69 404 32 q 390 114 393 107 q 338 25 376 64 q 236 -14 300 -14 m 317 139 q 342 144 331 139 q 364 160 354 150 q 381 179 374 169 l 381 399 q 329 365 353 382 q 289 326 306 347 q 263 281 272 306 q 254 226 254 257 q 271 163 254 186 q 317 139 288 139 m 315 1157 l 163 1318 l 346 1318 l 444 1157 l 315 1157 m 353 888 q 194 943 254 888 q 135 1104 135 999 l 263 1104 q 283 1028 263 1053 q 353 1003 303 1003 q 422 1028 401 1003 q 443 1104 443 1054 l 571 1104 q 511 943 571 999 q 353 888 451 888 z "},"ẳ":{"ha":661,"x_min":50,"x_max":611,"o":"m 236 -14 q 133 15 175 -14 q 71 90 92 44 q 50 182 50 135 q 80 308 50 257 q 158 394 110 360 q 265 453 207 429 q 381 497 324 478 l 381 578 q 376 615 381 599 q 363 640 372 631 q 333 649 353 649 q 303 640 314 649 q 289 617 293 632 q 283 585 285 603 l 278 526 l 67 535 q 144 748 74 679 q 354 817 214 817 q 537 749 476 817 q 597 575 597 682 l 597 200 q 599 113 597 150 q 605 47 601 75 q 611 0 608 19 l 408 0 q 399 69 404 32 q 390 114 393 107 q 338 25 376 64 q 236 -14 300 -14 m 317 139 q 342 144 331 139 q 364 160 354 150 q 381 179 374 169 l 381 399 q 329 365 353 382 q 289 326 306 347 q 263 281 272 306 q 254 226 254 257 q 271 163 254 186 q 317 139 288 139 m 371 1114 l 307 1182 q 344 1220 331 1201 q 358 1265 358 1239 q 341 1306 358 1292 q 294 1321 324 1321 q 256 1317 274 1321 q 224 1307 239 1313 l 224 1401 q 280 1418 251 1413 q 339 1424 308 1424 q 453 1390 408 1424 q 499 1286 499 1356 q 460 1182 499 1222 q 371 1114 422 1142 m 353 893 q 194 949 254 893 q 135 1110 135 1004 l 263 1110 q 283 1033 263 1058 q 353 1008 303 1008 q 422 1034 401 1008 q 443 1110 443 1060 l 571 1110 q 511 949 571 1004 q 353 893 451 893 z "},"ẵ":{"ha":661,"x_min":50,"x_max":611,"o":"m 236 -14 q 133 15 175 -14 q 71 90 92 44 q 50 182 50 135 q 80 308 50 257 q 158 394 110 360 q 265 453 207 429 q 381 497 324 478 l 381 578 q 376 615 381 599 q 363 640 372 631 q 333 649 353 649 q 303 640 314 649 q 289 617 293 632 q 283 585 285 603 l 278 526 l 67 535 q 144 748 74 679 q 354 817 214 817 q 537 749 476 817 q 597 575 597 682 l 597 200 q 599 113 597 150 q 605 47 601 75 q 611 0 608 19 l 408 0 q 399 69 404 32 q 390 114 393 107 q 338 25 376 64 q 236 -14 300 -14 m 317 139 q 342 144 331 139 q 364 160 354 150 q 381 179 374 169 l 381 399 q 329 365 353 382 q 289 326 306 347 q 263 281 272 306 q 254 226 254 257 q 271 163 254 186 q 317 139 288 139 z "},"ǎ":{"ha":661,"x_min":50,"x_max":611,"o":"m 236 -14 q 133 15 175 -14 q 71 90 92 44 q 50 182 50 135 q 80 308 50 257 q 158 394 110 360 q 265 453 207 429 q 381 497 324 478 l 381 578 q 376 615 381 599 q 363 640 372 631 q 333 649 353 649 q 303 640 314 649 q 289 617 293 632 q 283 585 285 603 l 278 526 l 67 535 q 144 748 74 679 q 354 817 214 817 q 537 749 476 817 q 597 575 597 682 l 597 200 q 599 113 597 150 q 605 47 601 75 q 611 0 608 19 l 408 0 q 399 69 404 32 q 390 114 393 107 q 338 25 376 64 q 236 -14 300 -14 m 317 139 q 342 144 331 139 q 364 160 354 150 q 381 179 374 169 l 381 399 q 329 365 353 382 q 289 326 306 347 q 263 281 272 306 q 254 226 254 257 q 271 163 254 186 q 317 139 288 139 m 243 888 l 121 1147 l 282 1147 l 353 994 l 424 1147 l 585 1147 l 463 888 l 243 888 z "},"â":{"ha":661,"x_min":50,"x_max":611,"o":"m 236 -14 q 133 15 175 -14 q 71 90 92 44 q 50 182 50 135 q 80 308 50 257 q 158 394 110 360 q 265 453 207 429 q 381 497 324 478 l 381 578 q 376 615 381 599 q 363 640 372 631 q 333 649 353 649 q 303 640 314 649 q 289 617 293 632 q 283 585 285 603 l 278 526 l 67 535 q 144 748 74 679 q 354 817 214 817 q 537 749 476 817 q 597 575 597 682 l 597 200 q 599 113 597 150 q 605 47 601 75 q 611 0 608 19 l 408 0 q 399 69 404 32 q 390 114 393 107 q 338 25 376 64 q 236 -14 300 -14 m 317 139 q 342 144 331 139 q 364 160 354 150 q 381 179 374 169 l 381 399 q 329 365 353 382 q 289 326 306 347 q 263 281 272 306 q 254 226 254 257 q 271 163 254 186 q 317 139 288 139 m 126 901 l 258 1168 l 443 1168 l 579 901 l 413 901 l 351 1067 l 292 901 l 126 901 z "},"ấ":{"ha":661,"x_min":50,"x_max":782,"o":"m 236 -14 q 133 15 175 -14 q 71 90 92 44 q 50 182 50 135 q 80 308 50 257 q 158 394 110 360 q 265 453 207 429 q 381 497 324 478 l 381 578 q 376 615 381 599 q 363 640 372 631 q 333 649 353 649 q 303 640 314 649 q 289 617 293 632 q 283 585 285 603 l 278 526 l 67 535 q 144 748 74 679 q 354 817 214 817 q 537 749 476 817 q 597 575 597 682 l 597 200 q 599 113 597 150 q 605 47 601 75 q 611 0 608 19 l 408 0 q 399 69 404 32 q 390 114 393 107 q 338 25 376 64 q 236 -14 300 -14 m 317 139 q 342 144 331 139 q 364 160 354 150 q 381 179 374 169 l 381 399 q 329 365 353 382 q 289 326 306 347 q 263 281 272 306 q 254 226 254 257 q 271 163 254 186 q 317 139 288 139 m 126 901 l 258 1133 l 443 1133 l 579 901 l 418 901 l 351 1040 l 286 901 l 126 901 m 540 1065 l 614 1236 l 782 1236 l 660 1065 l 540 1065 z "},"ậ":{"ha":661,"x_min":50,"x_max":611,"o":"m 236 -14 q 133 15 175 -14 q 71 90 92 44 q 50 182 50 135 q 80 308 50 257 q 158 394 110 360 q 265 453 207 429 q 381 497 324 478 l 381 578 q 376 615 381 599 q 363 640 372 631 q 333 649 353 649 q 303 640 314 649 q 289 617 293 632 q 283 585 285 603 l 278 526 l 67 535 q 144 748 74 679 q 354 817 214 817 q 537 749 476 817 q 597 575 597 682 l 597 200 q 599 113 597 150 q 605 47 601 75 q 611 0 608 19 l 408 0 q 399 69 404 32 q 390 114 393 107 q 338 25 376 64 q 236 -14 300 -14 m 317 139 q 342 144 331 139 q 364 160 354 150 q 381 179 374 169 l 381 399 q 329 365 353 382 q 289 326 306 347 q 263 281 272 306 q 254 226 254 257 q 271 163 254 186 q 317 139 288 139 m 235 -289 l 235 -97 l 429 -97 l 429 -289 l 235 -289 m 126 901 l 258 1133 l 443 1133 l 579 901 l 418 901 l 351 1040 l 286 901 l 126 901 z "},"ầ":{"ha":661,"x_min":50,"x_max":701,"o":"m 236 -14 q 133 15 175 -14 q 71 90 92 44 q 50 182 50 135 q 80 308 50 257 q 158 394 110 360 q 265 453 207 429 q 381 497 324 478 l 381 578 q 376 615 381 599 q 363 640 372 631 q 333 649 353 649 q 303 640 314 649 q 289 617 293 632 q 283 585 285 603 l 278 526 l 67 535 q 144 748 74 679 q 354 817 214 817 q 537 749 476 817 q 597 575 597 682 l 597 200 q 599 113 597 150 q 605 47 601 75 q 611 0 608 19 l 408 0 q 399 69 404 32 q 390 114 393 107 q 338 25 376 64 q 236 -14 300 -14 m 317 139 q 342 144 331 139 q 364 160 354 150 q 381 179 374 169 l 381 399 q 329 365 353 382 q 289 326 306 347 q 263 281 272 306 q 254 226 254 257 q 271 163 254 186 q 317 139 288 139 m 126 901 l 258 1133 l 443 1133 l 579 901 l 418 901 l 351 1040 l 286 901 l 126 901 m 581 1065 l 458 1236 l 628 1236 l 701 1065 l 581 1065 z "},"ẩ":{"ha":661,"x_min":50,"x_max":724,"o":"m 236 -14 q 133 15 175 -14 q 71 90 92 44 q 50 182 50 135 q 80 308 50 257 q 158 394 110 360 q 265 453 207 429 q 381 497 324 478 l 381 578 q 376 615 381 599 q 363 640 372 631 q 333 649 353 649 q 303 640 314 649 q 289 617 293 632 q 283 585 285 603 l 278 526 l 67 535 q 144 748 74 679 q 354 817 214 817 q 537 749 476 817 q 597 575 597 682 l 597 200 q 599 113 597 150 q 605 47 601 75 q 611 0 608 19 l 408 0 q 399 69 404 32 q 390 114 393 107 q 338 25 376 64 q 236 -14 300 -14 m 317 139 q 342 144 331 139 q 364 160 354 150 q 381 179 374 169 l 381 399 q 329 365 353 382 q 289 326 306 347 q 263 281 272 306 q 254 226 254 257 q 271 163 254 186 q 317 139 288 139 m 597 1029 l 533 1097 q 571 1135 557 1117 q 585 1181 585 1154 q 567 1222 585 1207 q 521 1236 550 1236 q 481 1232 499 1236 q 450 1222 464 1228 l 450 1317 q 506 1333 478 1328 q 564 1339 533 1339 q 678 1305 633 1339 q 724 1201 724 1271 q 685 1096 724 1135 q 597 1029 647 1057 m 126 901 l 258 1133 l 443 1133 l 579 901 l 418 901 l 351 1040 l 286 901 l 126 901 z "},"ẫ":{"ha":661,"x_min":50,"x_max":611,"o":"m 236 -14 q 133 15 175 -14 q 71 90 92 44 q 50 182 50 135 q 80 308 50 257 q 158 394 110 360 q 265 453 207 429 q 381 497 324 478 l 381 578 q 376 615 381 599 q 363 640 372 631 q 333 649 353 649 q 303 640 314 649 q 289 617 293 632 q 283 585 285 603 l 278 526 l 67 535 q 144 748 74 679 q 354 817 214 817 q 537 749 476 817 q 597 575 597 682 l 597 200 q 599 113 597 150 q 605 47 601 75 q 611 0 608 19 l 408 0 q 399 69 404 32 q 390 114 393 107 q 338 25 376 64 q 236 -14 300 -14 m 317 139 q 342 144 331 139 q 364 160 354 150 q 381 179 374 169 l 381 399 q 329 365 353 382 q 289 326 306 347 q 263 281 272 306 q 254 226 254 257 q 271 163 254 186 q 317 139 288 139 z "},"ȁ":{"ha":661,"x_min":43,"x_max":611,"o":"m 236 -14 q 133 15 175 -14 q 71 90 92 44 q 50 182 50 135 q 80 308 50 257 q 158 394 110 360 q 265 453 207 429 q 381 497 324 478 l 381 578 q 376 615 381 599 q 363 640 372 631 q 333 649 353 649 q 303 640 314 649 q 289 617 293 632 q 283 585 285 603 l 278 526 l 67 535 q 144 748 74 679 q 354 817 214 817 q 537 749 476 817 q 597 575 597 682 l 597 200 q 599 113 597 150 q 605 47 601 75 q 611 0 608 19 l 408 0 q 399 69 404 32 q 390 114 393 107 q 338 25 376 64 q 236 -14 300 -14 m 317 139 q 342 144 331 139 q 364 160 354 150 q 381 179 374 169 l 381 399 q 329 365 353 382 q 289 326 306 347 q 263 281 272 306 q 254 226 254 257 q 271 163 254 186 q 317 139 288 139 m 182 886 l 43 1174 l 215 1174 l 304 886 l 182 886 m 425 886 l 297 1174 l 463 1174 l 544 886 l 425 886 z "},"ä":{"ha":661,"x_min":50,"x_max":611,"o":"m 236 -14 q 133 15 175 -14 q 71 90 92 44 q 50 182 50 135 q 80 308 50 257 q 158 394 110 360 q 265 453 207 429 q 381 497 324 478 l 381 578 q 376 615 381 599 q 363 640 372 631 q 333 649 353 649 q 303 640 314 649 q 289 617 293 632 q 283 585 285 603 l 278 526 l 67 535 q 144 748 74 679 q 354 817 214 817 q 537 749 476 817 q 597 575 597 682 l 597 200 q 599 113 597 150 q 605 47 601 75 q 611 0 608 19 l 408 0 q 399 69 404 32 q 390 114 393 107 q 338 25 376 64 q 236 -14 300 -14 m 317 139 q 342 144 331 139 q 364 160 354 150 q 381 179 374 169 l 381 399 q 329 365 353 382 q 289 326 306 347 q 263 281 272 306 q 254 226 254 257 q 271 163 254 186 q 317 139 288 139 m 414 919 l 414 1125 l 594 1125 l 594 919 l 414 919 m 111 919 l 111 1125 l 292 1125 l 292 919 l 111 919 z "},"ạ":{"ha":661,"x_min":50,"x_max":611,"o":"m 236 -14 q 133 15 175 -14 q 71 90 92 44 q 50 182 50 135 q 80 308 50 257 q 158 394 110 360 q 265 453 207 429 q 381 497 324 478 l 381 578 q 376 615 381 599 q 363 640 372 631 q 333 649 353 649 q 303 640 314 649 q 289 617 293 632 q 283 585 285 603 l 278 526 l 67 535 q 144 748 74 679 q 354 817 214 817 q 537 749 476 817 q 597 575 597 682 l 597 200 q 599 113 597 150 q 605 47 601 75 q 611 0 608 19 l 408 0 q 399 69 404 32 q 390 114 393 107 q 338 25 376 64 q 236 -14 300 -14 m 317 139 q 342 144 331 139 q 364 160 354 150 q 381 179 374 169 l 381 399 q 329 365 353 382 q 289 326 306 347 q 263 281 272 306 q 254 226 254 257 q 271 163 254 186 q 317 139 288 139 m 235 -289 l 235 -97 l 429 -97 l 429 -289 l 235 -289 z "},"à":{"ha":661,"x_min":50,"x_max":611,"o":"m 236 -14 q 133 15 175 -14 q 71 90 92 44 q 50 182 50 135 q 80 308 50 257 q 158 394 110 360 q 265 453 207 429 q 381 497 324 478 l 381 578 q 376 615 381 599 q 363 640 372 631 q 333 649 353 649 q 303 640 314 649 q 289 617 293 632 q 283 585 285 603 l 278 526 l 67 535 q 144 748 74 679 q 354 817 214 817 q 537 749 476 817 q 597 575 597 682 l 597 200 q 599 113 597 150 q 605 47 601 75 q 611 0 608 19 l 408 0 q 399 69 404 32 q 390 114 393 107 q 338 25 376 64 q 236 -14 300 -14 m 317 139 q 342 144 331 139 q 364 160 354 150 q 381 179 374 169 l 381 399 q 329 365 353 382 q 289 326 306 347 q 263 281 272 306 q 254 226 254 257 q 271 163 254 186 q 317 139 288 139 m 286 892 l 110 1171 l 343 1171 l 428 892 l 286 892 z "},"ả":{"ha":661,"x_min":50,"x_max":611,"o":"m 236 -14 q 133 15 175 -14 q 71 90 92 44 q 50 182 50 135 q 80 308 50 257 q 158 394 110 360 q 265 453 207 429 q 381 497 324 478 l 381 578 q 376 615 381 599 q 363 640 372 631 q 333 649 353 649 q 303 640 314 649 q 289 617 293 632 q 283 585 285 603 l 278 526 l 67 535 q 144 748 74 679 q 354 817 214 817 q 537 749 476 817 q 597 575 597 682 l 597 200 q 599 113 597 150 q 605 47 601 75 q 611 0 608 19 l 408 0 q 399 69 404 32 q 390 114 393 107 q 338 25 376 64 q 236 -14 300 -14 m 317 139 q 342 144 331 139 q 364 160 354 150 q 381 179 374 169 l 381 399 q 329 365 353 382 q 289 326 306 347 q 263 281 272 306 q 254 226 254 257 q 271 163 254 186 q 317 139 288 139 m 353 871 l 276 943 q 347 981 318 963 q 376 1032 376 1000 q 354 1070 376 1060 q 297 1081 332 1081 q 252 1078 275 1081 q 211 1071 229 1075 l 211 1165 q 353 1183 278 1183 q 436 1169 397 1183 q 499 1126 475 1156 q 522 1046 522 1096 q 499 964 522 997 q 437 909 475 931 q 353 871 399 888 z "},"ȃ":{"ha":661,"x_min":50,"x_max":611,"o":"m 236 -14 q 133 15 175 -14 q 71 90 92 44 q 50 182 50 135 q 80 308 50 257 q 158 394 110 360 q 265 453 207 429 q 381 497 324 478 l 381 578 q 376 615 381 599 q 363 640 372 631 q 333 649 353 649 q 303 640 314 649 q 289 617 293 632 q 283 585 285 603 l 278 526 l 67 535 q 144 748 74 679 q 354 817 214 817 q 537 749 476 817 q 597 575 597 682 l 597 200 q 599 113 597 150 q 605 47 601 75 q 611 0 608 19 l 408 0 q 399 69 404 32 q 390 114 393 107 q 338 25 376 64 q 236 -14 300 -14 m 317 139 q 342 144 331 139 q 364 160 354 150 q 381 179 374 169 l 381 399 q 329 365 353 382 q 289 326 306 347 q 263 281 272 306 q 254 226 254 257 q 271 163 254 186 q 317 139 288 139 m 135 901 q 161 1022 135 974 q 237 1097 188 1071 q 353 1122 286 1122 q 469 1097 421 1122 q 544 1022 518 1071 q 571 901 571 974 l 443 901 q 422 981 443 956 q 353 1007 401 1007 q 283 982 304 1007 q 263 901 263 957 l 135 901 z "},"ā":{"ha":661,"x_min":50,"x_max":611,"o":"m 236 -14 q 133 15 175 -14 q 71 90 92 44 q 50 182 50 135 q 80 308 50 257 q 158 394 110 360 q 265 453 207 429 q 381 497 324 478 l 381 578 q 376 615 381 599 q 363 640 372 631 q 333 649 353 649 q 303 640 314 649 q 289 617 293 632 q 283 585 285 603 l 278 526 l 67 535 q 144 748 74 679 q 354 817 214 817 q 537 749 476 817 q 597 575 597 682 l 597 200 q 599 113 597 150 q 605 47 601 75 q 611 0 608 19 l 408 0 q 399 69 404 32 q 390 114 393 107 q 338 25 376 64 q 236 -14 300 -14 m 317 139 q 342 144 331 139 q 364 160 354 150 q 381 179 374 169 l 381 399 q 329 365 353 382 q 289 326 306 347 q 263 281 272 306 q 254 226 254 257 q 271 163 254 186 q 317 139 288 139 m 161 925 l 161 1032 l 544 1032 l 544 925 l 161 925 z "},"ą":{"ha":661,"x_min":50,"x_max":649,"o":"m 236 -14 q 133 15 175 -14 q 71 90 92 44 q 50 182 50 135 q 80 308 50 257 q 158 394 110 360 q 265 453 207 429 q 381 497 324 478 l 381 578 q 376 615 381 599 q 363 640 372 631 q 333 649 353 649 q 303 640 314 649 q 289 617 293 632 q 283 585 285 603 l 278 526 l 67 535 q 144 748 74 679 q 354 817 214 817 q 537 749 476 817 q 597 575 597 682 l 597 200 q 599 113 597 150 q 605 47 601 75 q 611 0 608 19 l 408 0 q 399 69 404 32 q 390 114 393 107 q 338 25 376 64 q 236 -14 300 -14 m 317 139 q 342 144 331 139 q 364 160 354 150 q 381 179 374 169 l 381 399 q 329 365 353 382 q 289 326 306 347 q 263 281 272 306 q 254 226 254 257 q 271 163 254 186 q 317 139 288 139 m 581 -361 q 507 -356 546 -361 q 435 -336 468 -351 q 381 -291 401 -321 q 360 -211 360 -261 q 375 -135 360 -175 q 415 -60 390 -96 q 468 0 440 -25 l 569 0 q 545 -52 557 -24 q 526 -110 533 -81 q 519 -168 519 -139 q 547 -233 519 -215 q 608 -250 574 -250 q 631 -249 619 -250 q 649 -247 642 -249 l 626 -357 q 606 -360 618 -358 q 581 -361 594 -361 z "},"å":{"ha":661,"x_min":50,"x_max":611,"o":"m 236 -14 q 133 15 175 -14 q 71 90 92 44 q 50 182 50 135 q 80 308 50 257 q 158 394 110 360 q 265 453 207 429 q 381 497 324 478 l 381 578 q 376 615 381 599 q 363 640 372 631 q 333 649 353 649 q 303 640 314 649 q 289 617 293 632 q 283 585 285 603 l 278 526 l 67 535 q 144 748 74 679 q 354 817 214 817 q 537 749 476 817 q 597 575 597 682 l 597 200 q 599 113 597 150 q 605 47 601 75 q 611 0 608 19 l 408 0 q 399 69 404 32 q 390 114 393 107 q 338 25 376 64 q 236 -14 300 -14 m 317 139 q 342 144 331 139 q 364 160 354 150 q 381 179 374 169 l 381 399 q 329 365 353 382 q 289 326 306 347 q 263 281 272 306 q 254 226 254 257 q 271 163 254 186 q 317 139 288 139 m 351 864 q 238 902 286 864 q 190 1015 190 940 q 238 1130 190 1092 q 351 1168 286 1168 q 466 1129 417 1168 q 515 1015 515 1090 q 467 902 515 940 q 351 864 418 864 m 351 943 q 403 965 386 943 q 421 1015 421 986 q 403 1067 421 1046 q 351 1089 386 1089 q 301 1067 318 1089 q 283 1015 283 1046 q 301 965 283 986 q 351 943 318 943 z "},"ǻ":{"ha":661,"x_min":50,"x_max":611,"o":"m 236 -14 q 133 15 175 -14 q 71 90 92 44 q 50 182 50 135 q 80 308 50 257 q 158 394 110 360 q 265 453 207 429 q 381 497 324 478 l 381 578 q 376 615 381 599 q 363 640 372 631 q 333 649 353 649 q 303 640 314 649 q 289 617 293 632 q 283 585 285 603 l 278 526 l 67 535 q 144 748 74 679 q 354 817 214 817 q 537 749 476 817 q 597 575 597 682 l 597 200 q 599 113 597 150 q 605 47 601 75 q 611 0 608 19 l 408 0 q 399 69 404 32 q 390 114 393 107 q 338 25 376 64 q 236 -14 300 -14 m 317 139 q 342 144 331 139 q 364 160 354 150 q 381 179 374 169 l 381 399 q 329 365 353 382 q 289 326 306 347 q 263 281 272 306 q 254 226 254 257 q 271 163 254 186 q 317 139 288 139 m 351 864 q 238 902 286 864 q 190 1015 190 940 q 238 1130 190 1092 q 351 1168 286 1168 q 466 1129 417 1168 q 515 1015 515 1090 q 467 902 515 940 q 351 864 418 864 m 351 943 q 403 965 386 943 q 421 1015 421 986 q 403 1067 421 1046 q 351 1089 386 1089 q 301 1067 318 1089 q 283 1015 283 1046 q 301 965 283 986 q 351 943 318 943 m 278 1229 l 365 1508 l 596 1508 l 421 1229 l 278 1229 z "},"ã":{"ha":661,"x_min":50,"x_max":611,"o":"m 236 -14 q 133 15 175 -14 q 71 90 92 44 q 50 182 50 135 q 80 308 50 257 q 158 394 110 360 q 265 453 207 429 q 381 497 324 478 l 381 578 q 376 615 381 599 q 363 640 372 631 q 333 649 353 649 q 303 640 314 649 q 289 617 293 632 q 283 585 285 603 l 278 526 l 67 535 q 144 748 74 679 q 354 817 214 817 q 537 749 476 817 q 597 575 597 682 l 597 200 q 599 113 597 150 q 605 47 601 75 q 611 0 608 19 l 408 0 q 399 69 404 32 q 390 114 393 107 q 338 25 376 64 q 236 -14 300 -14 m 317 139 q 342 144 331 139 q 364 160 354 150 q 381 179 374 169 l 381 399 q 329 365 353 382 q 289 326 306 347 q 263 281 272 306 q 254 226 254 257 q 271 163 254 186 q 317 139 288 139 m 465 928 q 401 944 431 928 q 346 977 372 961 q 292 993 319 993 q 251 976 261 993 q 242 936 242 958 l 133 936 q 144 1038 133 993 q 183 1108 156 1082 q 258 1133 211 1133 q 320 1118 293 1133 q 374 1088 347 1103 q 429 1072 400 1072 q 463 1088 453 1072 q 472 1125 472 1103 l 572 1125 q 566 1035 572 1081 q 537 958 560 989 q 465 928 514 928 z "},"æ":{"ha":943,"x_min":50,"x_max":889,"o":"m 263 -17 q 108 38 165 -17 q 50 185 50 92 q 83 314 50 264 q 172 393 117 364 q 290 438 226 422 l 374 457 l 374 569 q 362 631 374 614 q 326 649 350 649 q 297 638 308 649 q 278 603 285 628 q 272 531 272 578 l 53 538 q 113 744 53 672 q 304 817 174 817 q 435 782 389 817 q 489 699 482 747 l 465 699 q 497 758 469 732 q 570 801 525 785 q 669 817 615 817 q 835 762 782 817 q 889 624 889 707 q 862 515 889 557 q 788 450 835 474 q 681 413 740 426 l 589 392 l 589 233 q 597 168 589 192 q 632 144 604 144 q 660 155 651 144 q 671 185 668 165 q 674 228 674 204 l 674 281 l 882 281 l 882 215 q 856 90 882 142 q 780 10 831 38 q 654 -17 729 -17 q 574 -2 614 -17 q 504 42 533 13 q 465 115 475 72 q 418 43 450 72 q 346 -1 386 14 q 263 -17 306 -17 m 313 136 q 345 145 332 136 q 366 173 358 154 q 374 222 374 192 l 374 357 l 331 339 q 283 309 301 326 q 257 270 265 292 q 249 219 249 249 q 256 177 249 196 q 276 147 263 158 q 313 136 290 136 m 588 494 l 610 499 q 679 529 657 508 q 701 589 701 550 q 688 635 701 617 q 647 653 675 653 q 613 644 626 653 q 594 618 600 635 q 588 575 588 601 l 588 494 z "},"ǽ":{"ha":943,"x_min":50,"x_max":889,"o":"m 263 -17 q 108 38 165 -17 q 50 185 50 92 q 83 314 50 264 q 172 393 117 364 q 290 438 226 422 l 374 457 l 374 569 q 362 631 374 614 q 326 649 350 649 q 297 638 308 649 q 278 603 285 628 q 272 531 272 578 l 53 538 q 113 744 53 672 q 304 817 174 817 q 435 782 389 817 q 489 699 482 747 l 465 699 q 497 758 469 732 q 570 801 525 785 q 669 817 615 817 q 835 762 782 817 q 889 624 889 707 q 862 515 889 557 q 788 450 835 474 q 681 413 740 426 l 589 392 l 589 233 q 597 168 589 192 q 632 144 604 144 q 660 155 651 144 q 671 185 668 165 q 674 228 674 204 l 674 281 l 882 281 l 882 215 q 856 90 882 142 q 780 10 831 38 q 654 -17 729 -17 q 574 -2 614 -17 q 504 42 533 13 q 465 115 475 72 q 418 43 450 72 q 346 -1 386 14 q 263 -17 306 -17 m 313 136 q 345 145 332 136 q 366 173 358 154 q 374 222 374 192 l 374 357 l 331 339 q 283 309 301 326 q 257 270 265 292 q 249 219 249 249 q 256 177 249 196 q 276 147 263 158 q 313 136 290 136 m 588 494 l 610 499 q 679 529 657 508 q 701 589 701 550 q 688 635 701 617 q 647 653 675 653 q 613 644 626 653 q 594 618 600 635 q 588 575 588 601 l 588 494 m 399 892 l 486 1171 l 717 1171 l 542 892 l 399 892 z "},"b":{"ha":703,"x_min":71,"x_max":644,"o":"m 469 -14 q 381 6 425 -14 q 297 61 338 26 l 297 0 l 71 0 l 71 1125 l 297 1125 l 297 744 q 384 799 339 781 q 472 817 429 817 q 551 799 518 817 q 604 748 583 781 q 635 672 625 715 q 644 581 644 629 l 644 235 q 624 104 644 160 q 565 17 604 49 q 469 -14 526 -14 m 360 132 q 394 144 382 132 q 413 177 407 157 q 418 222 418 197 l 418 597 q 413 640 418 621 q 395 669 407 658 q 363 681 383 681 q 328 673 344 681 q 297 654 313 665 l 297 154 q 328 138 313 144 q 360 132 344 132 z "},"ḃ":{"ha":703,"x_min":71,"x_max":644,"o":"m 469 -14 q 381 6 425 -14 q 297 61 338 26 l 297 0 l 71 0 l 71 1125 l 297 1125 l 297 744 q 384 799 339 781 q 472 817 429 817 q 551 799 518 817 q 604 748 583 781 q 635 672 625 715 q 644 581 644 629 l 644 235 q 624 104 644 160 q 565 17 604 49 q 469 -14 526 -14 m 360 132 q 394 144 382 132 q 413 177 407 157 q 418 222 418 197 l 418 597 q 413 640 418 621 q 395 669 407 658 q 363 681 383 681 q 328 673 344 681 q 297 654 313 665 l 297 154 q 328 138 313 144 q 360 132 344 132 m 78 1228 l 78 1442 l 292 1442 l 292 1228 l 78 1228 z "},"c":{"ha":650,"x_min":54,"x_max":603,"o":"m 332 -14 q 183 18 244 -14 q 88 110 121 50 q 54 254 54 169 l 54 549 q 88 694 54 635 q 183 785 121 754 q 332 817 244 817 q 478 790 418 817 q 571 710 539 764 q 603 575 603 657 l 603 490 l 385 490 l 385 582 q 378 631 385 614 q 360 656 372 649 q 332 663 349 663 q 304 653 315 663 q 288 624 293 644 q 282 568 282 604 l 282 235 q 295 161 282 181 q 333 142 308 142 q 363 149 351 142 q 379 174 374 157 q 385 221 385 192 l 385 328 l 603 328 l 603 231 q 570 95 603 150 q 477 13 538 40 q 332 -14 417 -14 z "},"ć":{"ha":650,"x_min":54,"x_max":603,"o":"m 332 -14 q 183 18 244 -14 q 88 110 121 50 q 54 254 54 169 l 54 549 q 88 694 54 635 q 183 785 121 754 q 332 817 244 817 q 478 790 418 817 q 571 710 539 764 q 603 575 603 657 l 603 490 l 385 490 l 385 582 q 378 631 385 614 q 360 656 372 649 q 332 663 349 663 q 304 653 315 663 q 288 624 293 644 q 282 568 282 604 l 282 235 q 295 161 282 181 q 333 142 308 142 q 363 149 351 142 q 379 174 374 157 q 385 221 385 192 l 385 328 l 603 328 l 603 231 q 570 95 603 150 q 477 13 538 40 q 332 -14 417 -14 m 251 892 l 339 1171 l 569 1171 l 394 892 l 251 892 z "},"č":{"ha":650,"x_min":54,"x_max":603,"o":"m 332 -14 q 183 18 244 -14 q 88 110 121 50 q 54 254 54 169 l 54 549 q 88 694 54 635 q 183 785 121 754 q 332 817 244 817 q 478 790 418 817 q 571 710 539 764 q 603 575 603 657 l 603 490 l 385 490 l 385 582 q 378 631 385 614 q 360 656 372 649 q 332 663 349 663 q 304 653 315 663 q 288 624 293 644 q 282 568 282 604 l 282 235 q 295 161 282 181 q 333 142 308 142 q 363 149 351 142 q 379 174 374 157 q 385 221 385 192 l 385 328 l 603 328 l 603 231 q 570 95 603 150 q 477 13 538 40 q 332 -14 417 -14 m 217 888 l 94 1147 l 256 1147 l 326 994 l 397 1147 l 558 1147 l 436 888 l 217 888 z "},"ç":{"ha":650,"x_min":54,"x_max":603,"o":"m 332 -14 q 183 18 244 -14 q 88 110 121 50 q 54 254 54 169 l 54 549 q 88 694 54 635 q 183 785 121 754 q 332 817 244 817 q 478 790 418 817 q 571 710 539 764 q 603 575 603 657 l 603 490 l 385 490 l 385 582 q 378 631 385 614 q 360 656 372 649 q 332 663 349 663 q 304 653 315 663 q 288 624 293 644 q 282 568 282 604 l 282 235 q 295 161 282 181 q 333 142 308 142 q 363 149 351 142 q 379 174 374 157 q 385 221 385 192 l 385 328 l 603 328 l 603 231 q 570 95 603 150 q 477 13 538 40 q 332 -14 417 -14 m 354 -385 q 301 -381 328 -385 q 249 -368 274 -376 l 249 -271 q 285 -278 264 -275 q 328 -282 306 -282 q 389 -271 364 -282 q 414 -233 414 -260 q 394 -192 414 -207 q 344 -169 374 -176 q 286 -161 315 -162 l 286 0 l 368 0 l 368 -92 q 506 -127 454 -92 q 558 -236 558 -162 q 530 -322 558 -289 q 455 -370 501 -356 q 354 -385 408 -385 z "},"ĉ":{"ha":650,"x_min":54,"x_max":603,"o":"m 332 -14 q 183 18 244 -14 q 88 110 121 50 q 54 254 54 169 l 54 549 q 88 694 54 635 q 183 785 121 754 q 332 817 244 817 q 478 790 418 817 q 571 710 539 764 q 603 575 603 657 l 603 490 l 385 490 l 385 582 q 378 631 385 614 q 360 656 372 649 q 332 663 349 663 q 304 653 315 663 q 288 624 293 644 q 282 568 282 604 l 282 235 q 295 161 282 181 q 333 142 308 142 q 363 149 351 142 q 379 174 374 157 q 385 221 385 192 l 385 328 l 603 328 l 603 231 q 570 95 603 150 q 477 13 538 40 q 332 -14 417 -14 m 100 901 l 232 1168 l 417 1168 l 553 901 l 386 901 l 325 1067 l 265 901 l 100 901 z "},"ċ":{"ha":650,"x_min":54,"x_max":603,"o":"m 332 -14 q 183 18 244 -14 q 88 110 121 50 q 54 254 54 169 l 54 549 q 88 694 54 635 q 183 785 121 754 q 332 817 244 817 q 478 790 418 817 q 571 710 539 764 q 603 575 603 657 l 603 490 l 385 490 l 385 582 q 378 631 385 614 q 360 656 372 649 q 332 663 349 663 q 304 653 315 663 q 288 624 293 644 q 282 568 282 604 l 282 235 q 295 161 282 181 q 333 142 308 142 q 363 149 351 142 q 379 174 374 157 q 385 221 385 192 l 385 328 l 603 328 l 603 231 q 570 95 603 150 q 477 13 538 40 q 332 -14 417 -14 m 219 906 l 219 1119 l 433 1119 l 433 906 l 219 906 z "},"d":{"ha":699,"x_min":58,"x_max":629,"o":"m 244 -14 q 107 49 156 -14 q 58 233 58 111 l 58 565 q 79 697 58 640 q 142 785 100 753 q 244 817 183 817 q 329 799 289 817 q 403 753 369 782 l 403 1125 l 629 1125 l 629 0 l 403 0 l 403 63 q 325 6 365 26 q 244 -14 285 -14 m 343 131 q 370 136 354 131 q 403 151 386 142 l 403 658 q 374 671 389 665 q 344 676 358 676 q 300 651 314 676 q 286 589 286 625 l 286 219 q 292 174 286 194 q 310 142 297 154 q 343 131 322 131 z "},"ð":{"ha":722,"x_min":75,"x_max":663,"o":"m 364 -19 q 219 13 285 -19 q 115 113 154 44 q 75 293 75 182 l 75 528 q 108 678 75 615 q 197 774 142 740 q 319 808 253 808 q 378 801 351 808 q 425 783 406 794 q 414 878 424 838 q 392 935 404 918 l 271 871 l 246 928 l 356 986 q 299 1018 342 1006 q 189 1031 257 1031 l 199 1172 q 397 1148 318 1172 q 518 1078 475 1124 l 638 1143 l 663 1086 l 558 1029 q 599 943 578 996 q 636 810 621 890 q 651 615 651 731 l 651 299 q 613 105 651 174 q 508 8 574 36 q 364 -19 443 -19 m 369 131 q 403 144 392 131 q 420 182 415 157 q 425 240 425 207 q 425 342 425 292 q 425 444 425 393 q 425 545 425 494 q 425 646 425 596 q 401 658 414 653 q 374 663 389 663 q 325 639 342 663 q 302 559 308 615 q 296 401 296 503 q 300 242 296 301 q 320 156 304 182 q 369 131 336 131 z "},"ď":{"ha":889,"x_min":58,"x_max":913,"o":"m 244 -14 q 107 49 156 -14 q 58 233 58 111 l 58 565 q 79 697 58 640 q 142 785 100 753 q 244 817 183 817 q 329 799 289 817 q 403 753 369 782 l 403 1125 l 629 1125 l 629 0 l 403 0 l 403 63 q 325 6 365 26 q 244 -14 285 -14 m 343 131 q 370 136 354 131 q 403 151 386 142 l 403 658 q 374 671 389 665 q 344 676 358 676 q 300 651 314 676 q 286 589 286 625 l 286 219 q 292 174 286 194 q 310 142 297 154 q 343 131 322 131 m 733 718 l 719 790 q 787 826 756 800 q 818 913 818 853 l 699 913 l 699 1126 l 913 1126 l 913 940 q 868 781 913 838 q 733 718 824 725 z "},"đ":{"ha":694,"x_min":54,"x_max":690,"o":"m 240 -14 q 103 49 151 -14 q 54 233 54 111 l 54 565 q 75 697 54 640 q 138 785 96 753 q 240 817 179 817 q 324 799 285 817 q 396 753 363 782 l 396 946 l 210 946 l 210 1038 l 396 1038 l 396 1125 l 622 1125 l 622 1038 l 690 1038 l 690 946 l 622 946 l 622 0 l 396 0 l 396 63 q 322 6 361 26 q 240 -14 282 -14 m 339 131 q 365 136 350 131 q 396 151 381 142 l 396 658 q 368 671 382 665 q 340 676 354 676 q 296 651 310 676 q 282 589 282 625 l 282 219 q 288 174 282 194 q 306 142 293 154 q 339 131 318 131 z "},"ḋ":{"ha":699,"x_min":58,"x_max":629,"o":"m 244 -14 q 107 49 156 -14 q 58 233 58 111 l 58 565 q 79 697 58 640 q 142 785 100 753 q 244 817 183 817 q 329 799 289 817 q 403 753 369 782 l 403 1125 l 629 1125 l 629 0 l 403 0 l 403 63 q 325 6 365 26 q 244 -14 285 -14 m 343 131 q 370 136 354 131 q 403 151 386 142 l 403 658 q 374 671 389 665 q 344 676 358 676 q 300 651 314 676 q 286 589 286 625 l 286 219 q 292 174 286 194 q 310 142 297 154 q 343 131 322 131 m 408 1228 l 408 1442 l 622 1442 l 622 1228 l 408 1228 z "},"ǳ":{"ha":1243,"x_min":58,"x_max":1207,"o":"m 244 -14 q 107 49 156 -14 q 58 233 58 111 l 58 565 q 79 697 58 640 q 142 785 100 753 q 244 817 183 817 q 329 799 289 817 q 403 753 369 782 l 403 1125 l 629 1125 l 629 0 l 403 0 l 403 63 q 325 6 365 26 q 244 -14 285 -14 m 343 131 q 370 136 354 131 q 403 151 386 142 l 403 658 q 374 671 389 665 q 344 676 358 676 q 300 651 314 676 q 286 589 286 625 l 286 219 q 292 174 286 194 q 310 142 297 154 q 343 131 322 131 m 747 0 l 747 146 l 968 638 l 764 638 l 764 803 l 1204 803 l 1204 665 l 981 165 l 1207 165 l 1207 0 l 747 0 z "},"ǆ":{"ha":1243,"x_min":58,"x_max":1207,"o":"m 244 -14 q 107 49 156 -14 q 58 233 58 111 l 58 565 q 79 697 58 640 q 142 785 100 753 q 244 817 183 817 q 329 799 289 817 q 403 753 369 782 l 403 1125 l 629 1125 l 629 0 l 403 0 l 403 63 q 325 6 365 26 q 244 -14 285 -14 m 343 131 q 370 136 354 131 q 403 151 386 142 l 403 658 q 374 671 389 665 q 344 676 358 676 q 300 651 314 676 q 286 589 286 625 l 286 219 q 292 174 286 194 q 310 142 297 154 q 343 131 322 131 z "},"e":{"ha":653,"x_min":54,"x_max":600,"o":"m 333 -14 q 183 17 246 -14 q 88 109 121 49 q 54 254 54 169 l 54 549 q 88 694 54 635 q 184 785 121 754 q 333 817 247 817 q 481 786 422 817 q 570 696 540 756 q 600 549 600 636 l 600 388 l 278 388 l 278 233 q 285 183 278 203 q 304 156 292 164 q 333 147 317 147 q 363 155 350 147 q 384 179 376 163 q 392 225 392 196 l 392 310 l 600 310 l 600 232 q 529 48 600 110 q 333 -14 458 -14 m 278 493 l 392 493 l 392 574 q 384 624 392 606 q 363 649 376 642 q 332 656 350 656 q 303 647 315 656 q 285 619 292 639 q 278 561 278 599 l 278 493 z "},"é":{"ha":653,"x_min":54,"x_max":600,"o":"m 333 -14 q 183 17 246 -14 q 88 109 121 49 q 54 254 54 169 l 54 549 q 88 694 54 635 q 184 785 121 754 q 333 817 247 817 q 481 786 422 817 q 570 696 540 756 q 600 549 600 636 l 600 388 l 278 388 l 278 233 q 285 183 278 203 q 304 156 292 164 q 333 147 317 147 q 363 155 350 147 q 384 179 376 163 q 392 225 392 196 l 392 310 l 600 310 l 600 232 q 529 48 600 110 q 333 -14 458 -14 m 278 493 l 392 493 l 392 574 q 384 624 392 606 q 363 649 376 642 q 332 656 350 656 q 303 647 315 656 q 285 619 292 639 q 278 561 278 599 l 278 493 m 256 892 l 343 1171 l 574 1171 l 399 892 l 256 892 z "},"ĕ":{"ha":653,"x_min":54,"x_max":600,"o":"m 333 -14 q 183 17 246 -14 q 88 109 121 49 q 54 254 54 169 l 54 549 q 88 694 54 635 q 184 785 121 754 q 333 817 247 817 q 481 786 422 817 q 570 696 540 756 q 600 549 600 636 l 600 388 l 278 388 l 278 233 q 285 183 278 203 q 304 156 292 164 q 333 147 317 147 q 363 155 350 147 q 384 179 376 163 q 392 225 392 196 l 392 310 l 600 310 l 600 232 q 529 48 600 110 q 333 -14 458 -14 m 278 493 l 392 493 l 392 574 q 384 624 392 606 q 363 649 376 642 q 332 656 350 656 q 303 647 315 656 q 285 619 292 639 q 278 561 278 599 l 278 493 m 331 893 q 172 949 232 893 q 113 1110 113 1004 l 240 1110 q 260 1033 240 1058 q 331 1008 281 1008 q 400 1034 379 1008 q 421 1110 421 1060 l 549 1110 q 489 949 549 1004 q 331 893 429 893 z "},"ě":{"ha":653,"x_min":54,"x_max":600,"o":"m 333 -14 q 183 17 246 -14 q 88 109 121 49 q 54 254 54 169 l 54 549 q 88 694 54 635 q 184 785 121 754 q 333 817 247 817 q 481 786 422 817 q 570 696 540 756 q 600 549 600 636 l 600 388 l 278 388 l 278 233 q 285 183 278 203 q 304 156 292 164 q 333 147 317 147 q 363 155 350 147 q 384 179 376 163 q 392 225 392 196 l 392 310 l 600 310 l 600 232 q 529 48 600 110 q 333 -14 458 -14 m 278 493 l 392 493 l 392 574 q 384 624 392 606 q 363 649 376 642 q 332 656 350 656 q 303 647 315 656 q 285 619 292 639 q 278 561 278 599 l 278 493 m 221 888 l 99 1147 l 260 1147 l 331 994 l 401 1147 l 563 1147 l 440 888 l 221 888 z "},"ê":{"ha":653,"x_min":54,"x_max":600,"o":"m 333 -14 q 183 17 246 -14 q 88 109 121 49 q 54 254 54 169 l 54 549 q 88 694 54 635 q 184 785 121 754 q 333 817 247 817 q 481 786 422 817 q 570 696 540 756 q 600 549 600 636 l 600 388 l 278 388 l 278 233 q 285 183 278 203 q 304 156 292 164 q 333 147 317 147 q 363 155 350 147 q 384 179 376 163 q 392 225 392 196 l 392 310 l 600 310 l 600 232 q 529 48 600 110 q 333 -14 458 -14 m 278 493 l 392 493 l 392 574 q 384 624 392 606 q 363 649 376 642 q 332 656 350 656 q 303 647 315 656 q 285 619 292 639 q 278 561 278 599 l 278 493 m 104 901 l 236 1168 l 421 1168 l 557 901 l 390 901 l 329 1067 l 269 901 l 104 901 z "},"ế":{"ha":653,"x_min":54,"x_max":760,"o":"m 333 -14 q 183 17 246 -14 q 88 109 121 49 q 54 254 54 169 l 54 549 q 88 694 54 635 q 184 785 121 754 q 333 817 247 817 q 481 786 422 817 q 570 696 540 756 q 600 549 600 636 l 600 388 l 278 388 l 278 233 q 285 183 278 203 q 304 156 292 164 q 333 147 317 147 q 363 155 350 147 q 384 179 376 163 q 392 225 392 196 l 392 310 l 600 310 l 600 232 q 529 48 600 110 q 333 -14 458 -14 m 278 493 l 392 493 l 392 574 q 384 624 392 606 q 363 649 376 642 q 332 656 350 656 q 303 647 315 656 q 285 619 292 639 q 278 561 278 599 l 278 493 m 104 901 l 236 1133 l 421 1133 l 557 901 l 396 901 l 329 1040 l 264 901 l 104 901 m 518 1065 l 592 1236 l 760 1236 l 638 1065 l 518 1065 z "},"ệ":{"ha":653,"x_min":54,"x_max":600,"o":"m 333 -14 q 183 17 246 -14 q 88 109 121 49 q 54 254 54 169 l 54 549 q 88 694 54 635 q 184 785 121 754 q 333 817 247 817 q 481 786 422 817 q 570 696 540 756 q 600 549 600 636 l 600 388 l 278 388 l 278 233 q 285 183 278 203 q 304 156 292 164 q 333 147 317 147 q 363 155 350 147 q 384 179 376 163 q 392 225 392 196 l 392 310 l 600 310 l 600 232 q 529 48 600 110 q 333 -14 458 -14 m 278 493 l 392 493 l 392 574 q 384 624 392 606 q 363 649 376 642 q 332 656 350 656 q 303 647 315 656 q 285 619 292 639 q 278 561 278 599 l 278 493 m 229 -289 l 229 -97 l 424 -97 l 424 -289 l 229 -289 m 104 901 l 236 1133 l 421 1133 l 557 901 l 396 901 l 329 1040 l 264 901 l 104 901 z "},"ề":{"ha":653,"x_min":54,"x_max":679,"o":"m 333 -14 q 183 17 246 -14 q 88 109 121 49 q 54 254 54 169 l 54 549 q 88 694 54 635 q 184 785 121 754 q 333 817 247 817 q 481 786 422 817 q 570 696 540 756 q 600 549 600 636 l 600 388 l 278 388 l 278 233 q 285 183 278 203 q 304 156 292 164 q 333 147 317 147 q 363 155 350 147 q 384 179 376 163 q 392 225 392 196 l 392 310 l 600 310 l 600 232 q 529 48 600 110 q 333 -14 458 -14 m 278 493 l 392 493 l 392 574 q 384 624 392 606 q 363 649 376 642 q 332 656 350 656 q 303 647 315 656 q 285 619 292 639 q 278 561 278 599 l 278 493 m 104 901 l 236 1133 l 421 1133 l 557 901 l 396 901 l 329 1040 l 264 901 l 104 901 m 558 1065 l 436 1236 l 606 1236 l 679 1065 l 558 1065 z "},"ể":{"ha":653,"x_min":54,"x_max":701,"o":"m 333 -14 q 183 17 246 -14 q 88 109 121 49 q 54 254 54 169 l 54 549 q 88 694 54 635 q 184 785 121 754 q 333 817 247 817 q 481 786 422 817 q 570 696 540 756 q 600 549 600 636 l 600 388 l 278 388 l 278 233 q 285 183 278 203 q 304 156 292 164 q 333 147 317 147 q 363 155 350 147 q 384 179 376 163 q 392 225 392 196 l 392 310 l 600 310 l 600 232 q 529 48 600 110 q 333 -14 458 -14 m 278 493 l 392 493 l 392 574 q 384 624 392 606 q 363 649 376 642 q 332 656 350 656 q 303 647 315 656 q 285 619 292 639 q 278 561 278 599 l 278 493 m 575 1029 l 511 1097 q 549 1135 535 1117 q 563 1181 563 1154 q 545 1222 563 1207 q 499 1236 528 1236 q 459 1232 476 1236 q 428 1222 442 1228 l 428 1317 q 483 1333 456 1328 q 542 1339 511 1339 q 656 1305 611 1339 q 701 1201 701 1271 q 663 1096 701 1135 q 575 1029 625 1057 m 104 901 l 236 1133 l 421 1133 l 557 901 l 396 901 l 329 1040 l 264 901 l 104 901 z "},"ễ":{"ha":653,"x_min":54,"x_max":600,"o":"m 333 -14 q 183 17 246 -14 q 88 109 121 49 q 54 254 54 169 l 54 549 q 88 694 54 635 q 184 785 121 754 q 333 817 247 817 q 481 786 422 817 q 570 696 540 756 q 600 549 600 636 l 600 388 l 278 388 l 278 233 q 285 183 278 203 q 304 156 292 164 q 333 147 317 147 q 363 155 350 147 q 384 179 376 163 q 392 225 392 196 l 392 310 l 600 310 l 600 232 q 529 48 600 110 q 333 -14 458 -14 m 278 493 l 392 493 l 392 574 q 384 624 392 606 q 363 649 376 642 q 332 656 350 656 q 303 647 315 656 q 285 619 292 639 q 278 561 278 599 l 278 493 z "},"ȅ":{"ha":653,"x_min":21,"x_max":600,"o":"m 333 -14 q 183 17 246 -14 q 88 109 121 49 q 54 254 54 169 l 54 549 q 88 694 54 635 q 184 785 121 754 q 333 817 247 817 q 481 786 422 817 q 570 696 540 756 q 600 549 600 636 l 600 388 l 278 388 l 278 233 q 285 183 278 203 q 304 156 292 164 q 333 147 317 147 q 363 155 350 147 q 384 179 376 163 q 392 225 392 196 l 392 310 l 600 310 l 600 232 q 529 48 600 110 q 333 -14 458 -14 m 278 493 l 392 493 l 392 574 q 384 624 392 606 q 363 649 376 642 q 332 656 350 656 q 303 647 315 656 q 285 619 292 639 q 278 561 278 599 l 278 493 m 160 886 l 21 1174 l 193 1174 l 282 886 l 160 886 m 403 886 l 275 1174 l 440 1174 l 522 886 l 403 886 z "},"ë":{"ha":653,"x_min":54,"x_max":600,"o":"m 333 -14 q 183 17 246 -14 q 88 109 121 49 q 54 254 54 169 l 54 549 q 88 694 54 635 q 184 785 121 754 q 333 817 247 817 q 481 786 422 817 q 570 696 540 756 q 600 549 600 636 l 600 388 l 278 388 l 278 233 q 285 183 278 203 q 304 156 292 164 q 333 147 317 147 q 363 155 350 147 q 384 179 376 163 q 392 225 392 196 l 392 310 l 600 310 l 600 232 q 529 48 600 110 q 333 -14 458 -14 m 278 493 l 392 493 l 392 574 q 384 624 392 606 q 363 649 376 642 q 332 656 350 656 q 303 647 315 656 q 285 619 292 639 q 278 561 278 599 l 278 493 m 392 919 l 392 1125 l 572 1125 l 572 919 l 392 919 m 89 919 l 89 1125 l 269 1125 l 269 919 l 89 919 z "},"ė":{"ha":653,"x_min":54,"x_max":600,"o":"m 333 -14 q 183 17 246 -14 q 88 109 121 49 q 54 254 54 169 l 54 549 q 88 694 54 635 q 184 785 121 754 q 333 817 247 817 q 481 786 422 817 q 570 696 540 756 q 600 549 600 636 l 600 388 l 278 388 l 278 233 q 285 183 278 203 q 304 156 292 164 q 333 147 317 147 q 363 155 350 147 q 384 179 376 163 q 392 225 392 196 l 392 310 l 600 310 l 600 232 q 529 48 600 110 q 333 -14 458 -14 m 278 493 l 392 493 l 392 574 q 384 624 392 606 q 363 649 376 642 q 332 656 350 656 q 303 647 315 656 q 285 619 292 639 q 278 561 278 599 l 278 493 m 224 906 l 224 1119 l 438 1119 l 438 906 l 224 906 z "},"ẹ":{"ha":653,"x_min":54,"x_max":600,"o":"m 333 -14 q 183 17 246 -14 q 88 109 121 49 q 54 254 54 169 l 54 549 q 88 694 54 635 q 184 785 121 754 q 333 817 247 817 q 481 786 422 817 q 570 696 540 756 q 600 549 600 636 l 600 388 l 278 388 l 278 233 q 285 183 278 203 q 304 156 292 164 q 333 147 317 147 q 363 155 350 147 q 384 179 376 163 q 392 225 392 196 l 392 310 l 600 310 l 600 232 q 529 48 600 110 q 333 -14 458 -14 m 278 493 l 392 493 l 392 574 q 384 624 392 606 q 363 649 376 642 q 332 656 350 656 q 303 647 315 656 q 285 619 292 639 q 278 561 278 599 l 278 493 m 229 -289 l 229 -97 l 424 -97 l 424 -289 l 229 -289 z "},"è":{"ha":653,"x_min":54,"x_max":600,"o":"m 333 -14 q 183 17 246 -14 q 88 109 121 49 q 54 254 54 169 l 54 549 q 88 694 54 635 q 184 785 121 754 q 333 817 247 817 q 481 786 422 817 q 570 696 540 756 q 600 549 600 636 l 600 388 l 278 388 l 278 233 q 285 183 278 203 q 304 156 292 164 q 333 147 317 147 q 363 155 350 147 q 384 179 376 163 q 392 225 392 196 l 392 310 l 600 310 l 600 232 q 529 48 600 110 q 333 -14 458 -14 m 278 493 l 392 493 l 392 574 q 384 624 392 606 q 363 649 376 642 q 332 656 350 656 q 303 647 315 656 q 285 619 292 639 q 278 561 278 599 l 278 493 m 264 892 l 88 1171 l 321 1171 l 406 892 l 264 892 z "},"ẻ":{"ha":653,"x_min":54,"x_max":600,"o":"m 333 -14 q 183 17 246 -14 q 88 109 121 49 q 54 254 54 169 l 54 549 q 88 694 54 635 q 184 785 121 754 q 333 817 247 817 q 481 786 422 817 q 570 696 540 756 q 600 549 600 636 l 600 388 l 278 388 l 278 233 q 285 183 278 203 q 304 156 292 164 q 333 147 317 147 q 363 155 350 147 q 384 179 376 163 q 392 225 392 196 l 392 310 l 600 310 l 600 232 q 529 48 600 110 q 333 -14 458 -14 m 278 493 l 392 493 l 392 574 q 384 624 392 606 q 363 649 376 642 q 332 656 350 656 q 303 647 315 656 q 285 619 292 639 q 278 561 278 599 l 278 493 m 331 871 l 254 943 q 325 981 296 963 q 354 1032 354 1000 q 332 1070 354 1060 q 275 1081 310 1081 q 230 1078 253 1081 q 189 1071 207 1075 l 189 1165 q 331 1183 256 1183 q 414 1169 375 1183 q 476 1126 453 1156 q 500 1046 500 1096 q 476 964 500 997 q 415 909 453 931 q 331 871 376 888 z "},"ȇ":{"ha":653,"x_min":54,"x_max":600,"o":"m 333 -14 q 183 17 246 -14 q 88 109 121 49 q 54 254 54 169 l 54 549 q 88 694 54 635 q 184 785 121 754 q 333 817 247 817 q 481 786 422 817 q 570 696 540 756 q 600 549 600 636 l 600 388 l 278 388 l 278 233 q 285 183 278 203 q 304 156 292 164 q 333 147 317 147 q 363 155 350 147 q 384 179 376 163 q 392 225 392 196 l 392 310 l 600 310 l 600 232 q 529 48 600 110 q 333 -14 458 -14 m 278 493 l 392 493 l 392 574 q 384 624 392 606 q 363 649 376 642 q 332 656 350 656 q 303 647 315 656 q 285 619 292 639 q 278 561 278 599 l 278 493 m 113 901 q 139 1022 113 974 q 215 1097 165 1071 q 331 1122 264 1122 q 447 1097 399 1122 q 522 1022 496 1071 q 549 901 549 974 l 421 901 q 400 981 421 956 q 331 1007 379 1007 q 261 982 282 1007 q 240 901 240 957 l 113 901 z "},"ē":{"ha":653,"x_min":54,"x_max":600,"o":"m 333 -14 q 183 17 246 -14 q 88 109 121 49 q 54 254 54 169 l 54 549 q 88 694 54 635 q 184 785 121 754 q 333 817 247 817 q 481 786 422 817 q 570 696 540 756 q 600 549 600 636 l 600 388 l 278 388 l 278 233 q 285 183 278 203 q 304 156 292 164 q 333 147 317 147 q 363 155 350 147 q 384 179 376 163 q 392 225 392 196 l 392 310 l 600 310 l 600 232 q 529 48 600 110 q 333 -14 458 -14 m 278 493 l 392 493 l 392 574 q 384 624 392 606 q 363 649 376 642 q 332 656 350 656 q 303 647 315 656 q 285 619 292 639 q 278 561 278 599 l 278 493 m 139 925 l 139 1032 l 522 1032 l 522 925 l 139 925 z "},"ę":{"ha":653,"x_min":54,"x_max":600,"o":"m 333 -14 q 183 17 246 -14 q 88 109 121 49 q 54 254 54 169 l 54 549 q 88 694 54 635 q 184 785 121 754 q 333 817 247 817 q 481 786 422 817 q 570 696 540 756 q 600 549 600 636 l 600 388 l 278 388 l 278 233 q 285 183 278 203 q 304 156 292 164 q 333 147 317 147 q 363 155 350 147 q 384 179 376 163 q 392 225 392 196 l 392 310 l 600 310 l 600 232 q 529 48 600 110 q 333 -14 458 -14 m 278 493 l 392 493 l 392 574 q 384 624 392 606 q 363 649 376 642 q 332 656 350 656 q 303 647 315 656 q 285 619 292 639 q 278 561 278 599 l 278 493 m 438 -347 q 364 -342 403 -347 q 292 -322 325 -337 q 238 -277 258 -307 q 217 -197 217 -247 q 232 -122 217 -161 q 272 -47 247 -82 q 325 14 297 -11 l 426 14 q 402 -38 414 -10 q 383 -96 390 -67 q 376 -154 376 -125 q 403 -219 376 -201 q 465 -236 431 -236 q 488 -235 476 -236 q 506 -233 499 -235 l 483 -343 q 463 -346 475 -344 q 438 -347 451 -347 z "},"ẽ":{"ha":653,"x_min":54,"x_max":600,"o":"m 333 -14 q 183 17 246 -14 q 88 109 121 49 q 54 254 54 169 l 54 549 q 88 694 54 635 q 184 785 121 754 q 333 817 247 817 q 481 786 422 817 q 570 696 540 756 q 600 549 600 636 l 600 388 l 278 388 l 278 233 q 285 183 278 203 q 304 156 292 164 q 333 147 317 147 q 363 155 350 147 q 384 179 376 163 q 392 225 392 196 l 392 310 l 600 310 l 600 232 q 529 48 600 110 q 333 -14 458 -14 m 278 493 l 392 493 l 392 574 q 384 624 392 606 q 363 649 376 642 q 332 656 350 656 q 303 647 315 656 q 285 619 292 639 q 278 561 278 599 l 278 493 m 443 928 q 379 944 408 928 q 324 977 350 961 q 269 993 297 993 q 229 976 239 993 q 219 936 219 958 l 111 936 q 122 1038 111 993 q 161 1108 133 1082 q 236 1133 189 1133 q 298 1118 271 1133 q 351 1088 325 1103 q 407 1072 378 1072 q 440 1088 431 1072 q 450 1125 450 1103 l 550 1125 q 544 1035 550 1081 q 515 958 538 989 q 443 928 492 928 z "},"ə":{"ha":653,"x_min":53,"x_max":599,"o":"m 319 -17 q 172 14 231 -17 q 83 104 113 44 q 53 251 53 164 l 53 413 l 374 413 l 374 568 q 367 617 374 597 q 349 646 361 636 q 319 656 338 656 q 290 649 303 656 q 269 624 276 642 q 261 578 261 607 l 261 493 l 53 493 l 53 572 q 124 755 53 693 q 319 817 194 817 q 469 785 407 817 q 565 694 532 754 q 599 549 599 635 l 599 253 q 565 106 599 167 q 469 15 532 46 q 319 -17 407 -17 m 319 144 q 349 153 338 144 q 367 182 361 161 q 374 239 374 203 l 374 307 l 261 307 l 261 228 q 269 178 261 196 q 290 152 276 160 q 319 144 303 144 z "},"ʒ":{"ha":674,"x_min":31,"x_max":636,"o":"m 331 -285 q 153 -240 218 -285 q 59 -116 88 -196 q 31 69 31 -36 l 31 110 l 253 110 q 253 94 253 108 q 253 69 253 81 q 269 -82 253 -37 q 333 -126 286 -126 q 382 -106 365 -126 q 404 -44 399 -86 q 410 61 410 -3 q 398 198 410 147 q 353 271 386 249 q 257 293 321 293 l 168 293 l 168 425 l 375 685 l 403 638 l 79 638 l 79 803 l 574 803 l 574 665 l 331 363 l 263 413 l 331 413 q 517 372 451 413 q 610 255 583 332 q 636 68 636 178 q 607 -115 636 -35 q 510 -240 578 -194 q 331 -285 443 -285 z "},"ǯ":{"ha":674,"x_min":31,"x_max":636,"o":"m 331 -285 q 153 -240 218 -285 q 59 -116 88 -196 q 31 69 31 -36 l 31 110 l 253 110 q 253 94 253 108 q 253 69 253 81 q 269 -82 253 -37 q 333 -126 286 -126 q 382 -106 365 -126 q 404 -44 399 -86 q 410 61 410 -3 q 398 198 410 147 q 353 271 386 249 q 257 293 321 293 l 168 293 l 168 425 l 375 685 l 403 638 l 79 638 l 79 803 l 574 803 l 574 665 l 331 363 l 263 413 l 331 413 q 517 372 451 413 q 610 255 583 332 q 636 68 636 178 q 607 -115 636 -35 q 510 -240 578 -194 q 331 -285 443 -285 m 228 888 l 106 1147 l 267 1147 l 338 994 l 408 1147 l 569 1147 l 447 888 l 228 888 z "},"f":{"ha":444,"x_min":24,"x_max":428,"o":"m 100 0 l 100 650 l 24 650 l 24 803 l 100 803 l 100 863 q 115 986 100 933 q 176 1068 129 1039 q 319 1097 222 1097 q 372 1096 346 1097 q 428 1090 397 1094 l 428 922 q 405 927 418 925 q 379 929 392 929 q 340 915 354 929 q 326 867 326 900 l 326 803 l 428 803 l 428 650 l 326 650 l 326 0 l 100 0 z "},"ḟ":{"ha":444,"x_min":24,"x_max":428,"o":"m 100 0 l 100 650 l 24 650 l 24 803 l 100 803 l 100 863 q 115 986 100 933 q 176 1068 129 1039 q 319 1097 222 1097 q 372 1096 346 1097 q 428 1090 397 1094 l 428 922 q 405 927 418 925 q 379 929 392 929 q 340 915 354 929 q 326 867 326 900 l 326 803 l 428 803 l 428 650 l 326 650 l 326 0 l 100 0 m 165 1193 l 165 1407 l 379 1407 l 379 1193 l 165 1193 z "},"g":{"ha":696,"x_min":35,"x_max":715,"o":"m 332 -278 q 175 -260 242 -278 q 72 -206 108 -242 q 35 -114 35 -169 q 51 -47 35 -76 q 95 6 67 -17 q 160 46 124 29 q 78 92 107 61 q 49 174 49 122 q 72 258 49 222 q 138 329 96 293 q 78 415 99 364 q 58 538 58 465 q 92 690 58 628 q 190 785 125 753 q 346 817 254 817 q 456 801 408 817 q 536 754 503 786 q 576 800 551 778 q 633 838 601 822 l 663 851 l 715 743 q 681 729 703 739 q 634 708 658 719 q 590 686 610 697 q 614 617 606 656 q 622 536 622 578 q 591 388 622 450 q 499 292 560 325 q 346 260 438 260 q 272 266 307 260 q 208 282 238 272 q 194 259 200 271 q 188 233 188 247 q 204 207 188 217 q 264 192 221 197 l 475 168 q 626 102 578 157 q 675 -42 675 47 q 641 -171 675 -118 q 531 -251 607 -224 q 332 -278 456 -278 m 361 -114 q 478 -101 438 -114 q 519 -50 519 -89 q 508 -19 519 -31 q 472 1 497 -7 q 399 13 446 8 l 250 28 q 226 6 236 18 q 209 -19 215 -6 q 203 -47 203 -32 q 239 -97 203 -81 q 361 -114 275 -114 m 346 394 q 378 402 365 394 q 397 426 390 410 q 406 471 403 443 q 408 538 408 499 q 406 605 408 578 q 397 649 403 632 q 378 674 390 667 q 346 682 365 682 q 314 674 326 682 q 295 650 301 667 q 286 606 289 633 q 283 538 283 578 q 286 472 283 499 q 295 427 289 444 q 314 402 301 410 q 346 394 326 394 z "},"ǵ":{"ha":696,"x_min":35,"x_max":715,"o":"m 332 -278 q 175 -260 242 -278 q 72 -206 108 -242 q 35 -114 35 -169 q 51 -47 35 -76 q 95 6 67 -17 q 160 46 124 29 q 78 92 107 61 q 49 174 49 122 q 72 258 49 222 q 138 329 96 293 q 78 415 99 364 q 58 538 58 465 q 92 690 58 628 q 190 785 125 753 q 346 817 254 817 q 456 801 408 817 q 536 754 503 786 q 576 800 551 778 q 633 838 601 822 l 663 851 l 715 743 q 681 729 703 739 q 634 708 658 719 q 590 686 610 697 q 614 617 606 656 q 622 536 622 578 q 591 388 622 450 q 499 292 560 325 q 346 260 438 260 q 272 266 307 260 q 208 282 238 272 q 194 259 200 271 q 188 233 188 247 q 204 207 188 217 q 264 192 221 197 l 475 168 q 626 102 578 157 q 675 -42 675 47 q 641 -171 675 -118 q 531 -251 607 -224 q 332 -278 456 -278 m 361 -114 q 478 -101 438 -114 q 519 -50 519 -89 q 508 -19 519 -31 q 472 1 497 -7 q 399 13 446 8 l 250 28 q 226 6 236 18 q 209 -19 215 -6 q 203 -47 203 -32 q 239 -97 203 -81 q 361 -114 275 -114 m 346 394 q 378 402 365 394 q 397 426 390 410 q 406 471 403 443 q 408 538 408 499 q 406 605 408 578 q 397 649 403 632 q 378 674 390 667 q 346 682 365 682 q 314 674 326 682 q 295 650 301 667 q 286 606 289 633 q 283 538 283 578 q 286 472 283 499 q 295 427 289 444 q 314 402 301 410 q 346 394 326 394 m 274 892 l 361 1171 l 592 1171 l 417 892 l 274 892 z "},"ğ":{"ha":696,"x_min":35,"x_max":715,"o":"m 332 -278 q 175 -260 242 -278 q 72 -206 108 -242 q 35 -114 35 -169 q 51 -47 35 -76 q 95 6 67 -17 q 160 46 124 29 q 78 92 107 61 q 49 174 49 122 q 72 258 49 222 q 138 329 96 293 q 78 415 99 364 q 58 538 58 465 q 92 690 58 628 q 190 785 125 753 q 346 817 254 817 q 456 801 408 817 q 536 754 503 786 q 576 800 551 778 q 633 838 601 822 l 663 851 l 715 743 q 681 729 703 739 q 634 708 658 719 q 590 686 610 697 q 614 617 606 656 q 622 536 622 578 q 591 388 622 450 q 499 292 560 325 q 346 260 438 260 q 272 266 307 260 q 208 282 238 272 q 194 259 200 271 q 188 233 188 247 q 204 207 188 217 q 264 192 221 197 l 475 168 q 626 102 578 157 q 675 -42 675 47 q 641 -171 675 -118 q 531 -251 607 -224 q 332 -278 456 -278 m 361 -114 q 478 -101 438 -114 q 519 -50 519 -89 q 508 -19 519 -31 q 472 1 497 -7 q 399 13 446 8 l 250 28 q 226 6 236 18 q 209 -19 215 -6 q 203 -47 203 -32 q 239 -97 203 -81 q 361 -114 275 -114 m 346 394 q 378 402 365 394 q 397 426 390 410 q 406 471 403 443 q 408 538 408 499 q 406 605 408 578 q 397 649 403 632 q 378 674 390 667 q 346 682 365 682 q 314 674 326 682 q 295 650 301 667 q 286 606 289 633 q 283 538 283 578 q 286 472 283 499 q 295 427 289 444 q 314 402 301 410 q 346 394 326 394 m 349 893 q 190 949 250 893 q 131 1110 131 1004 l 258 1110 q 278 1033 258 1058 q 349 1008 299 1008 q 418 1034 397 1008 q 439 1110 439 1060 l 567 1110 q 507 949 567 1004 q 349 893 447 893 z "},"ǧ":{"ha":696,"x_min":35,"x_max":715,"o":"m 332 -278 q 175 -260 242 -278 q 72 -206 108 -242 q 35 -114 35 -169 q 51 -47 35 -76 q 95 6 67 -17 q 160 46 124 29 q 78 92 107 61 q 49 174 49 122 q 72 258 49 222 q 138 329 96 293 q 78 415 99 364 q 58 538 58 465 q 92 690 58 628 q 190 785 125 753 q 346 817 254 817 q 456 801 408 817 q 536 754 503 786 q 576 800 551 778 q 633 838 601 822 l 663 851 l 715 743 q 681 729 703 739 q 634 708 658 719 q 590 686 610 697 q 614 617 606 656 q 622 536 622 578 q 591 388 622 450 q 499 292 560 325 q 346 260 438 260 q 272 266 307 260 q 208 282 238 272 q 194 259 200 271 q 188 233 188 247 q 204 207 188 217 q 264 192 221 197 l 475 168 q 626 102 578 157 q 675 -42 675 47 q 641 -171 675 -118 q 531 -251 607 -224 q 332 -278 456 -278 m 361 -114 q 478 -101 438 -114 q 519 -50 519 -89 q 508 -19 519 -31 q 472 1 497 -7 q 399 13 446 8 l 250 28 q 226 6 236 18 q 209 -19 215 -6 q 203 -47 203 -32 q 239 -97 203 -81 q 361 -114 275 -114 m 346 394 q 378 402 365 394 q 397 426 390 410 q 406 471 403 443 q 408 538 408 499 q 406 605 408 578 q 397 649 403 632 q 378 674 390 667 q 346 682 365 682 q 314 674 326 682 q 295 650 301 667 q 286 606 289 633 q 283 538 283 578 q 286 472 283 499 q 295 427 289 444 q 314 402 301 410 q 346 394 326 394 m 239 888 l 117 1147 l 278 1147 l 349 994 l 419 1147 l 581 1147 l 458 888 l 239 888 z "},"ĝ":{"ha":696,"x_min":35,"x_max":715,"o":"m 332 -278 q 175 -260 242 -278 q 72 -206 108 -242 q 35 -114 35 -169 q 51 -47 35 -76 q 95 6 67 -17 q 160 46 124 29 q 78 92 107 61 q 49 174 49 122 q 72 258 49 222 q 138 329 96 293 q 78 415 99 364 q 58 538 58 465 q 92 690 58 628 q 190 785 125 753 q 346 817 254 817 q 456 801 408 817 q 536 754 503 786 q 576 800 551 778 q 633 838 601 822 l 663 851 l 715 743 q 681 729 703 739 q 634 708 658 719 q 590 686 610 697 q 614 617 606 656 q 622 536 622 578 q 591 388 622 450 q 499 292 560 325 q 346 260 438 260 q 272 266 307 260 q 208 282 238 272 q 194 259 200 271 q 188 233 188 247 q 204 207 188 217 q 264 192 221 197 l 475 168 q 626 102 578 157 q 675 -42 675 47 q 641 -171 675 -118 q 531 -251 607 -224 q 332 -278 456 -278 m 361 -114 q 478 -101 438 -114 q 519 -50 519 -89 q 508 -19 519 -31 q 472 1 497 -7 q 399 13 446 8 l 250 28 q 226 6 236 18 q 209 -19 215 -6 q 203 -47 203 -32 q 239 -97 203 -81 q 361 -114 275 -114 m 346 394 q 378 402 365 394 q 397 426 390 410 q 406 471 403 443 q 408 538 408 499 q 406 605 408 578 q 397 649 403 632 q 378 674 390 667 q 346 682 365 682 q 314 674 326 682 q 295 650 301 667 q 286 606 289 633 q 283 538 283 578 q 286 472 283 499 q 295 427 289 444 q 314 402 301 410 q 346 394 326 394 m 122 901 l 254 1168 l 439 1168 l 575 901 l 408 901 l 347 1067 l 288 901 l 122 901 z "},"ģ":{"ha":696,"x_min":35,"x_max":715,"o":"m 332 -278 q 175 -260 242 -278 q 72 -206 108 -242 q 35 -114 35 -169 q 51 -47 35 -76 q 95 6 67 -17 q 160 46 124 29 q 78 92 107 61 q 49 174 49 122 q 72 258 49 222 q 138 329 96 293 q 78 415 99 364 q 58 538 58 465 q 92 690 58 628 q 190 785 125 753 q 346 817 254 817 q 456 801 408 817 q 536 754 503 786 q 576 800 551 778 q 633 838 601 822 l 663 851 l 715 743 q 681 729 703 739 q 634 708 658 719 q 590 686 610 697 q 614 617 606 656 q 622 536 622 578 q 591 388 622 450 q 499 292 560 325 q 346 260 438 260 q 272 266 307 260 q 208 282 238 272 q 194 259 200 271 q 188 233 188 247 q 204 207 188 217 q 264 192 221 197 l 475 168 q 626 102 578 157 q 675 -42 675 47 q 641 -171 675 -118 q 531 -251 607 -224 q 332 -278 456 -278 m 361 -114 q 478 -101 438 -114 q 519 -50 519 -89 q 508 -19 519 -31 q 472 1 497 -7 q 399 13 446 8 l 250 28 q 226 6 236 18 q 209 -19 215 -6 q 203 -47 203 -32 q 239 -97 203 -81 q 361 -114 275 -114 m 346 394 q 378 402 365 394 q 397 426 390 410 q 406 471 403 443 q 408 538 408 499 q 406 605 408 578 q 397 649 403 632 q 378 674 390 667 q 346 682 365 682 q 314 674 326 682 q 295 650 301 667 q 286 606 289 633 q 283 538 283 578 q 286 472 283 499 q 295 427 289 444 q 314 402 301 410 q 346 394 326 394 z "},"ġ":{"ha":696,"x_min":35,"x_max":715,"o":"m 332 -278 q 175 -260 242 -278 q 72 -206 108 -242 q 35 -114 35 -169 q 51 -47 35 -76 q 95 6 67 -17 q 160 46 124 29 q 78 92 107 61 q 49 174 49 122 q 72 258 49 222 q 138 329 96 293 q 78 415 99 364 q 58 538 58 465 q 92 690 58 628 q 190 785 125 753 q 346 817 254 817 q 456 801 408 817 q 536 754 503 786 q 576 800 551 778 q 633 838 601 822 l 663 851 l 715 743 q 681 729 703 739 q 634 708 658 719 q 590 686 610 697 q 614 617 606 656 q 622 536 622 578 q 591 388 622 450 q 499 292 560 325 q 346 260 438 260 q 272 266 307 260 q 208 282 238 272 q 194 259 200 271 q 188 233 188 247 q 204 207 188 217 q 264 192 221 197 l 475 168 q 626 102 578 157 q 675 -42 675 47 q 641 -171 675 -118 q 531 -251 607 -224 q 332 -278 456 -278 m 361 -114 q 478 -101 438 -114 q 519 -50 519 -89 q 508 -19 519 -31 q 472 1 497 -7 q 399 13 446 8 l 250 28 q 226 6 236 18 q 209 -19 215 -6 q 203 -47 203 -32 q 239 -97 203 -81 q 361 -114 275 -114 m 346 394 q 378 402 365 394 q 397 426 390 410 q 406 471 403 443 q 408 538 408 499 q 406 605 408 578 q 397 649 403 632 q 378 674 390 667 q 346 682 365 682 q 314 674 326 682 q 295 650 301 667 q 286 606 289 633 q 283 538 283 578 q 286 472 283 499 q 295 427 289 444 q 314 402 301 410 q 346 394 326 394 m 242 906 l 242 1119 l 456 1119 l 456 906 l 242 906 z "},"ǥ":{"ha":696,"x_min":-12,"x_max":725,"o":"m 332 -278 q 175 -259 242 -278 q 72 -201 108 -240 q 35 -100 35 -162 q 50 -31 35 -61 q 93 24 65 0 q 157 65 121 49 q 77 110 106 81 q 49 174 49 139 q 72 258 49 222 q 138 329 96 293 q 78 415 99 364 q 58 538 58 465 q 92 690 58 628 q 190 785 125 753 q 346 817 254 817 q 456 801 408 817 q 536 754 503 786 q 576 800 551 778 q 633 838 601 822 l 663 851 l 715 743 q 681 729 703 739 q 634 708 658 719 q 590 686 610 697 q 614 617 606 656 q 622 536 622 578 q 591 388 622 450 q 499 292 560 325 q 346 260 438 260 q 272 266 307 260 q 208 282 238 272 q 194 263 200 272 q 188 243 188 254 q 204 224 188 229 q 264 214 221 218 l 475 189 q 626 121 578 178 q 675 -42 675 64 q 641 -171 675 -118 q 531 -251 607 -224 q 332 -278 456 -278 m -12 -74 l -12 -3 l 725 -3 l 725 -74 l -12 -74 m 361 -124 q 481 -105 443 -124 q 519 -39 519 -86 q 508 0 519 -14 q 472 22 497 14 q 399 33 446 29 l 250 49 q 223 24 236 38 q 202 -4 210 11 q 194 -36 194 -19 q 229 -101 194 -78 q 361 -124 264 -124 m 346 394 q 378 402 365 394 q 397 426 390 410 q 406 471 403 443 q 408 538 408 499 q 406 605 408 578 q 397 649 403 632 q 378 674 390 667 q 346 682 365 682 q 314 674 326 682 q 295 650 301 667 q 286 606 289 633 q 283 538 283 578 q 286 472 283 499 q 295 427 289 444 q 314 402 301 410 q 346 394 326 394 z "},"h":{"ha":707,"x_min":72,"x_max":642,"o":"m 72 0 l 72 1125 l 297 1125 l 297 732 q 390 797 342 776 q 494 817 439 817 q 576 792 543 817 q 625 726 608 768 q 642 629 642 683 l 642 0 l 417 0 l 417 597 q 407 642 417 626 q 371 657 397 657 q 338 649 357 657 q 297 628 318 642 l 297 0 l 72 0 z "},"ħ":{"ha":708,"x_min":8,"x_max":642,"o":"m 72 0 l 72 932 l 8 932 l 8 1036 l 72 1036 l 72 1125 l 299 1125 l 299 1036 l 463 1036 l 463 932 l 299 932 l 299 732 q 392 797 343 776 q 494 817 440 817 q 576 792 543 817 q 625 726 608 768 q 642 629 642 683 l 642 0 l 417 0 l 417 597 q 408 642 417 626 q 372 657 399 657 q 338 649 357 657 q 299 628 319 642 l 299 0 l 72 0 z "},"ȟ":{"ha":707,"x_min":72,"x_max":700,"o":"m 72 0 l 72 1125 l 297 1125 l 297 732 q 390 797 342 776 q 494 817 439 817 q 576 792 543 817 q 625 726 608 768 q 642 629 642 683 l 642 0 l 417 0 l 417 597 q 407 642 417 626 q 371 657 397 657 q 338 649 357 657 q 297 628 318 642 l 297 0 l 72 0 m 358 1157 l 236 1417 l 397 1417 l 468 1264 l 539 1417 l 700 1417 l 578 1157 l 358 1157 z "},"ĥ":{"ha":707,"x_min":-42,"x_max":642,"o":"m 72 0 l 72 1125 l 297 1125 l 297 732 q 390 797 342 776 q 494 817 439 817 q 576 792 543 817 q 625 726 608 768 q 642 629 642 683 l 642 0 l 417 0 l 417 597 q 407 642 417 626 q 371 657 397 657 q 338 649 357 657 q 297 628 318 642 l 297 0 l 72 0 m -42 1224 l 90 1490 l 275 1490 l 411 1224 l 244 1224 l 183 1389 l 124 1224 l -42 1224 z "},"i":{"ha":368,"x_min":71,"x_max":299,"o":"m 72 0 l 72 803 l 299 803 l 299 0 l 72 0 m 71 939 l 71 1096 l 299 1096 l 299 939 l 71 939 z "},"ı":{"ha":389,"x_min":82,"x_max":308,"o":"m 82 0 l 82 803 l 308 803 l 308 0 l 82 0 z "},"í":{"ha":389,"x_min":82,"x_max":439,"o":"m 82 0 l 82 803 l 308 803 l 308 0 l 82 0 m 121 892 l 208 1171 l 439 1171 l 264 892 l 121 892 z "},"ĭ":{"ha":389,"x_min":-22,"x_max":414,"o":"m 82 0 l 82 803 l 308 803 l 308 0 l 82 0 m 196 893 q 38 949 97 893 q -22 1110 -22 1004 l 106 1110 q 126 1033 106 1058 q 196 1008 146 1008 q 265 1034 244 1008 q 286 1110 286 1060 l 414 1110 q 354 949 414 1004 q 196 893 294 893 z "},"î":{"ha":389,"x_min":-31,"x_max":422,"o":"m 82 0 l 82 803 l 308 803 l 308 0 l 82 0 m -31 901 l 101 1168 l 286 1168 l 422 901 l 256 901 l 194 1067 l 135 901 l -31 901 z "},"ȉ":{"ha":389,"x_min":-114,"x_max":388,"o":"m 82 0 l 82 803 l 308 803 l 308 0 l 82 0 m 25 886 l -114 1174 l 58 1174 l 147 886 l 25 886 m 268 886 l 140 1174 l 306 1174 l 388 886 l 268 886 z "},"ï":{"ha":389,"x_min":-46,"x_max":438,"o":"m 82 0 l 82 803 l 308 803 l 308 0 l 82 0 m 257 919 l 257 1125 l 438 1125 l 438 919 l 257 919 m -46 919 l -46 1125 l 135 1125 l 135 919 l -46 919 z "},"ị":{"ha":368,"x_min":71,"x_max":299,"o":"m 72 0 l 72 803 l 299 803 l 299 0 l 72 0 m 71 939 l 71 1096 l 299 1096 l 299 939 l 71 939 m 88 -289 l 88 -97 l 282 -97 l 282 -289 l 88 -289 z "},"ì":{"ha":389,"x_min":-47,"x_max":308,"o":"m 82 0 l 82 803 l 308 803 l 308 0 l 82 0 m 129 892 l -47 1171 l 186 1171 l 271 892 l 129 892 z "},"ỉ":{"ha":389,"x_min":54,"x_max":365,"o":"m 82 0 l 82 803 l 308 803 l 308 0 l 82 0 m 196 871 l 119 943 q 190 981 161 963 q 219 1032 219 1000 q 197 1070 219 1060 q 140 1081 175 1081 q 95 1078 118 1081 q 54 1071 72 1075 l 54 1165 q 196 1183 121 1183 q 279 1169 240 1183 q 342 1126 318 1156 q 365 1046 365 1096 q 342 964 365 997 q 280 909 318 931 q 196 871 242 888 z "},"ȋ":{"ha":389,"x_min":-22,"x_max":414,"o":"m 82 0 l 82 803 l 308 803 l 308 0 l 82 0 m -22 901 q 4 1022 -22 974 q 80 1097 31 1071 q 196 1122 129 1122 q 313 1097 264 1122 q 388 1022 361 1071 q 414 901 414 974 l 286 901 q 265 981 286 956 q 196 1007 244 1007 q 126 982 147 1007 q 106 901 106 957 l -22 901 z "},"ĳ":{"ha":753,"x_min":71,"x_max":683,"o":"m 72 0 l 72 803 l 299 803 l 299 0 l 72 0 m 71 939 l 71 1096 l 299 1096 l 299 939 l 71 939 m 476 -250 q 414 -245 444 -250 q 356 -232 383 -240 l 356 -69 q 376 -73 365 -71 q 396 -75 386 -75 q 428 -68 415 -75 q 449 -47 442 -61 q 457 -7 457 -32 l 457 803 l 683 803 l 683 -35 q 631 -190 683 -129 q 476 -250 579 -250 m 457 939 l 457 1096 l 683 1096 l 683 939 l 457 939 z "},"ī":{"ha":389,"x_min":4,"x_max":388,"o":"m 82 0 l 82 803 l 308 803 l 308 0 l 82 0 m 4 925 l 4 1032 l 388 1032 l 388 925 l 4 925 z "},"į":{"ha":368,"x_min":28,"x_max":317,"o":"m 72 0 l 72 803 l 299 803 l 299 0 l 72 0 m 71 939 l 71 1096 l 299 1096 l 299 939 l 71 939 m 249 -361 q 175 -356 214 -361 q 103 -336 136 -351 q 49 -291 69 -321 q 28 -211 28 -261 q 43 -135 28 -175 q 83 -60 58 -96 q 136 0 108 -25 l 238 0 q 213 -52 225 -24 q 194 -110 201 -81 q 188 -168 188 -139 q 215 -233 188 -215 q 276 -250 242 -250 q 299 -249 288 -250 q 317 -247 310 -249 l 294 -357 q 274 -360 286 -358 q 249 -361 263 -361 z "},"ĩ":{"ha":389,"x_min":-24,"x_max":415,"o":"m 82 0 l 82 803 l 308 803 l 308 0 l 82 0 m 308 928 q 244 944 274 928 q 189 977 215 961 q 135 993 163 993 q 94 976 104 993 q 85 936 85 958 l -24 936 q -12 1038 -24 993 q 26 1108 -1 1082 q 101 1133 54 1133 q 163 1118 136 1133 q 217 1088 190 1103 q 272 1072 243 1072 q 306 1088 296 1072 q 315 1125 315 1103 l 415 1125 q 409 1035 415 1081 q 380 958 403 989 q 308 928 357 928 z "},"j":{"ha":385,"x_min":-12,"x_max":315,"o":"m 108 -250 q 46 -245 76 -250 q -12 -232 15 -240 l -12 -69 q 8 -73 -3 -71 q 28 -75 18 -75 q 60 -68 47 -75 q 81 -47 74 -61 q 89 -7 89 -32 l 89 803 l 315 803 l 315 -35 q 263 -190 315 -129 q 108 -250 211 -250 m 89 939 l 89 1096 l 315 1096 l 315 939 l 89 939 z "},"ȷ":{"ha":385,"x_min":-12,"x_max":315,"o":"m 108 -250 q 46 -245 76 -250 q -12 -232 15 -240 l -12 -69 q 8 -73 -3 -71 q 28 -75 18 -75 q 60 -68 47 -75 q 81 -47 74 -61 q 89 -7 89 -32 l 89 803 l 315 803 l 315 -35 q 263 -190 315 -129 q 108 -250 211 -250 z "},"ĵ":{"ha":385,"x_min":-24,"x_max":429,"o":"m 108 -250 q 46 -245 76 -250 q -12 -232 15 -240 l -12 -69 q 8 -73 -3 -71 q 28 -75 18 -75 q 60 -68 47 -75 q 81 -47 74 -61 q 89 -7 89 -32 l 89 803 l 315 803 l 315 -35 q 263 -190 315 -129 q 108 -250 211 -250 m -24 901 l 108 1168 l 293 1168 l 429 901 l 263 901 l 201 1067 l 142 901 l -24 901 z "},"k":{"ha":751,"x_min":71,"x_max":747,"o":"m 71 0 l 71 1125 l 296 1125 l 296 501 l 493 803 l 747 803 l 533 474 l 744 0 l 497 0 l 356 382 l 296 306 l 296 0 l 71 0 z "},"ǩ":{"ha":751,"x_min":71,"x_max":747,"o":"m 71 0 l 71 1125 l 296 1125 l 296 501 l 493 803 l 747 803 l 533 474 l 744 0 l 497 0 l 356 382 l 296 306 l 296 0 l 71 0 m 376 1128 l 254 1388 l 415 1388 l 486 1235 l 557 1388 l 718 1388 l 596 1128 l 376 1128 z "},"ķ":{"ha":751,"x_min":71,"x_max":747,"o":"m 71 0 l 71 1125 l 296 1125 l 296 501 l 493 803 l 747 803 l 533 474 l 744 0 l 497 0 l 356 382 l 296 306 l 296 0 l 71 0 m 307 -494 l 289 -419 q 358 -390 328 -412 q 388 -307 388 -367 l 269 -307 l 269 -96 l 483 -96 l 482 -276 q 440 -435 482 -379 q 307 -494 399 -492 z "},"ĸ":{"ha":706,"x_min":69,"x_max":697,"o":"m 69 0 l 69 803 l 296 803 l 296 468 l 450 803 l 694 803 l 531 446 l 697 0 l 460 0 l 332 371 l 296 318 l 296 0 l 69 0 z "},"l":{"ha":381,"x_min":81,"x_max":306,"o":"m 81 0 l 81 1125 l 306 1125 l 306 0 l 81 0 z "},"ĺ":{"ha":381,"x_min":81,"x_max":436,"o":"m 81 0 l 81 1125 l 306 1125 l 306 0 l 81 0 m 118 1214 l 206 1493 l 436 1493 l 261 1214 l 118 1214 z "},"ľ":{"ha":567,"x_min":81,"x_max":588,"o":"m 81 0 l 81 1125 l 306 1125 l 306 0 l 81 0 m 408 718 l 394 790 q 462 826 431 800 q 493 913 493 853 l 374 913 l 374 1126 l 588 1126 l 588 940 q 543 781 588 838 q 408 718 499 725 z "},"ļ":{"ha":381,"x_min":81,"x_max":306,"o":"m 81 0 l 81 1125 l 306 1125 l 306 0 l 81 0 m 124 -494 l 106 -419 q 174 -390 144 -412 q 204 -307 204 -367 l 86 -307 l 86 -96 l 300 -96 l 299 -276 q 257 -435 299 -379 q 124 -494 215 -492 z "},"ŀ":{"ha":504,"x_min":81,"x_max":522,"o":"m 81 0 l 81 1125 l 306 1125 l 306 0 l 81 0 m 368 507 l 368 718 l 522 718 l 522 507 l 368 507 z "},"ǉ":{"ha":764,"x_min":81,"x_max":696,"o":"m 81 0 l 81 1125 l 306 1125 l 306 0 l 81 0 m 489 -250 q 426 -245 457 -250 q 368 -232 396 -240 l 368 -69 q 388 -73 378 -71 q 408 -75 399 -75 q 441 -68 428 -75 q 462 -47 454 -61 q 469 -7 469 -32 l 469 803 l 696 803 l 696 -35 q 644 -190 696 -129 q 489 -250 592 -250 m 469 939 l 469 1096 l 696 1096 l 696 939 l 469 939 z "},"ł":{"ha":464,"x_min":28,"x_max":453,"o":"m 121 0 l 121 575 l 28 535 l 28 661 l 121 701 l 121 1125 l 346 1125 l 346 797 l 453 843 l 453 717 l 346 672 l 346 0 l 121 0 z "},"m":{"ha":1046,"x_min":71,"x_max":981,"o":"m 71 0 l 71 803 l 293 803 l 293 739 q 385 800 338 782 q 483 818 433 818 q 567 794 532 818 q 621 722 603 769 q 720 797 668 775 q 825 818 772 818 q 907 795 872 818 q 961 728 942 772 q 981 624 981 685 l 981 0 l 758 0 l 758 600 q 747 648 758 633 q 711 663 735 663 q 676 655 697 663 q 636 633 656 647 q 636 628 636 631 q 636 624 636 626 l 636 0 l 417 0 l 417 600 q 404 648 417 633 q 368 663 392 663 q 333 655 353 663 q 293 633 313 647 l 293 0 l 71 0 z "},"ṁ":{"ha":1046,"x_min":71,"x_max":981,"o":"m 71 0 l 71 803 l 293 803 l 293 739 q 385 800 338 782 q 483 818 433 818 q 567 794 532 818 q 621 722 603 769 q 720 797 668 775 q 825 818 772 818 q 907 795 872 818 q 961 728 942 772 q 981 624 981 685 l 981 0 l 758 0 l 758 600 q 747 648 758 633 q 711 663 735 663 q 676 655 697 663 q 636 633 656 647 q 636 628 636 631 q 636 624 636 626 l 636 0 l 417 0 l 417 600 q 404 648 417 633 q 368 663 392 663 q 333 655 353 663 q 293 633 313 647 l 293 0 l 71 0 m 415 906 l 415 1119 l 629 1119 l 629 906 l 415 906 z "},"n":{"ha":704,"x_min":71,"x_max":639,"o":"m 71 0 l 71 803 l 297 803 l 297 722 q 390 792 342 767 q 490 817 438 817 q 573 792 540 817 q 622 726 606 768 q 639 629 639 683 l 639 0 l 414 0 l 414 597 q 404 642 414 626 q 368 657 394 657 q 335 649 354 657 q 297 628 317 642 l 297 0 l 71 0 z "},"ń":{"ha":704,"x_min":71,"x_max":639,"o":"m 71 0 l 71 803 l 297 803 l 297 722 q 390 792 342 767 q 490 817 438 817 q 573 792 540 817 q 622 726 606 768 q 639 629 639 683 l 639 0 l 414 0 l 414 597 q 404 642 414 626 q 368 657 394 657 q 335 649 354 657 q 297 628 317 642 l 297 0 l 71 0 m 278 892 l 365 1171 l 596 1171 l 421 892 l 278 892 z "},"ŉ":{"ha":813,"x_min":44,"x_max":767,"o":"m 79 871 l 65 944 q 133 980 101 954 q 164 1065 164 1006 l 44 1065 l 44 1279 l 260 1279 l 260 1094 q 214 935 258 992 q 79 871 169 878 m 199 0 l 199 803 l 425 803 l 425 722 q 517 792 469 767 q 618 817 565 817 q 701 792 668 817 q 750 726 733 768 q 767 629 767 683 l 767 0 l 542 0 l 542 597 q 532 642 542 626 q 496 657 522 657 q 463 649 482 657 q 425 628 444 642 l 425 0 l 199 0 z "},"ň":{"ha":704,"x_min":71,"x_max":639,"o":"m 71 0 l 71 803 l 297 803 l 297 722 q 390 792 342 767 q 490 817 438 817 q 573 792 540 817 q 622 726 606 768 q 639 629 639 683 l 639 0 l 414 0 l 414 597 q 404 642 414 626 q 368 657 394 657 q 335 649 354 657 q 297 628 317 642 l 297 0 l 71 0 m 243 888 l 121 1147 l 282 1147 l 353 994 l 424 1147 l 585 1147 l 463 888 l 243 888 z "},"ņ":{"ha":704,"x_min":71,"x_max":639,"o":"m 71 0 l 71 803 l 297 803 l 297 722 q 390 792 342 767 q 490 817 438 817 q 573 792 540 817 q 622 726 606 768 q 639 629 639 683 l 639 0 l 414 0 l 414 597 q 404 642 414 626 q 368 657 394 657 q 335 649 354 657 q 297 628 317 642 l 297 0 l 71 0 m 283 -494 l 265 -419 q 334 -390 304 -412 q 364 -307 364 -367 l 246 -307 l 246 -96 l 460 -96 l 458 -276 q 417 -435 458 -379 q 283 -494 375 -492 z "},"ŋ":{"ha":661,"x_min":58,"x_max":628,"o":"m 247 -271 l 247 -128 q 344 -117 311 -128 q 390 -81 378 -107 q 401 -7 401 -54 l 401 597 q 392 642 401 626 q 357 657 383 657 q 323 649 342 657 q 285 628 304 642 l 285 0 l 58 0 l 58 803 l 285 803 l 285 732 q 377 797 329 776 q 479 817 425 817 q 561 792 528 817 q 611 726 594 768 q 628 629 628 683 l 628 -8 q 600 -160 628 -103 q 507 -244 572 -218 q 329 -271 442 -271 l 247 -271 z "},"ǌ":{"ha":1089,"x_min":71,"x_max":1019,"o":"m 71 0 l 71 803 l 297 803 l 297 722 q 390 792 342 767 q 490 817 438 817 q 573 792 540 817 q 622 726 606 768 q 639 629 639 683 l 639 0 l 414 0 l 414 597 q 404 642 414 626 q 368 657 394 657 q 335 649 354 657 q 297 628 317 642 l 297 0 l 71 0 m 813 -250 q 750 -245 781 -250 q 692 -232 719 -240 l 692 -69 q 712 -73 701 -71 q 732 -75 722 -75 q 765 -68 751 -75 q 785 -47 778 -61 q 793 -7 793 -32 l 793 803 l 1019 803 l 1019 -35 q 967 -190 1019 -129 q 813 -250 915 -250 m 793 939 l 793 1096 l 1019 1096 l 1019 939 l 793 939 z "},"ñ":{"ha":704,"x_min":71,"x_max":639,"o":"m 71 0 l 71 803 l 297 803 l 297 722 q 390 792 342 767 q 490 817 438 817 q 573 792 540 817 q 622 726 606 768 q 639 629 639 683 l 639 0 l 414 0 l 414 597 q 404 642 414 626 q 368 657 394 657 q 335 649 354 657 q 297 628 317 642 l 297 0 l 71 0 m 465 928 q 401 944 431 928 q 346 977 372 961 q 292 993 319 993 q 251 976 261 993 q 242 936 242 958 l 133 936 q 144 1038 133 993 q 183 1108 156 1082 q 258 1133 211 1133 q 320 1118 293 1133 q 374 1088 347 1103 q 429 1072 400 1072 q 463 1088 453 1072 q 472 1125 472 1103 l 572 1125 q 566 1035 572 1081 q 537 958 560 989 q 465 928 514 928 z "},"o":{"ha":671,"x_min":54,"x_max":617,"o":"m 335 -14 q 185 15 249 -14 q 88 103 122 44 q 54 249 54 161 l 54 554 q 88 700 54 642 q 185 788 122 758 q 335 817 249 817 q 484 788 421 817 q 582 700 547 758 q 617 554 617 642 l 617 249 q 582 103 617 161 q 484 15 547 44 q 335 -14 421 -14 m 336 136 q 371 148 358 136 q 388 181 383 160 q 393 233 393 203 l 393 569 q 388 622 393 600 q 371 655 383 643 q 336 667 358 667 q 301 655 314 667 q 283 622 289 643 q 278 569 278 600 l 278 233 q 283 181 278 203 q 301 148 289 160 q 336 136 314 136 z "},"ó":{"ha":671,"x_min":54,"x_max":617,"o":"m 335 -14 q 185 15 249 -14 q 88 103 122 44 q 54 249 54 161 l 54 554 q 88 700 54 642 q 185 788 122 758 q 335 817 249 817 q 484 788 421 817 q 582 700 547 758 q 617 554 617 642 l 617 249 q 582 103 617 161 q 484 15 547 44 q 335 -14 421 -14 m 336 136 q 371 148 358 136 q 388 181 383 160 q 393 233 393 203 l 393 569 q 388 622 393 600 q 371 655 383 643 q 336 667 358 667 q 301 655 314 667 q 283 622 289 643 q 278 569 278 600 l 278 233 q 283 181 278 203 q 301 148 289 160 q 336 136 314 136 m 260 892 l 347 1171 l 578 1171 l 403 892 l 260 892 z "},"ŏ":{"ha":671,"x_min":54,"x_max":617,"o":"m 335 -14 q 185 15 249 -14 q 88 103 122 44 q 54 249 54 161 l 54 554 q 88 700 54 642 q 185 788 122 758 q 335 817 249 817 q 484 788 421 817 q 582 700 547 758 q 617 554 617 642 l 617 249 q 582 103 617 161 q 484 15 547 44 q 335 -14 421 -14 m 336 136 q 371 148 358 136 q 388 181 383 160 q 393 233 393 203 l 393 569 q 388 622 393 600 q 371 655 383 643 q 336 667 358 667 q 301 655 314 667 q 283 622 289 643 q 278 569 278 600 l 278 233 q 283 181 278 203 q 301 148 289 160 q 336 136 314 136 m 335 893 q 176 949 236 893 q 117 1110 117 1004 l 244 1110 q 265 1033 244 1058 q 335 1008 285 1008 q 404 1034 383 1008 q 425 1110 425 1060 l 553 1110 q 493 949 553 1004 q 335 893 433 893 z "},"ô":{"ha":671,"x_min":54,"x_max":617,"o":"m 335 -14 q 185 15 249 -14 q 88 103 122 44 q 54 249 54 161 l 54 554 q 88 700 54 642 q 185 788 122 758 q 335 817 249 817 q 484 788 421 817 q 582 700 547 758 q 617 554 617 642 l 617 249 q 582 103 617 161 q 484 15 547 44 q 335 -14 421 -14 m 336 136 q 371 148 358 136 q 388 181 383 160 q 393 233 393 203 l 393 569 q 388 622 393 600 q 371 655 383 643 q 336 667 358 667 q 301 655 314 667 q 283 622 289 643 q 278 569 278 600 l 278 233 q 283 181 278 203 q 301 148 289 160 q 336 136 314 136 m 108 901 l 240 1168 l 425 1168 l 561 901 l 394 901 l 333 1067 l 274 901 l 108 901 z "},"ố":{"ha":671,"x_min":54,"x_max":764,"o":"m 335 -14 q 185 15 249 -14 q 88 103 122 44 q 54 249 54 161 l 54 554 q 88 700 54 642 q 185 788 122 758 q 335 817 249 817 q 484 788 421 817 q 582 700 547 758 q 617 554 617 642 l 617 249 q 582 103 617 161 q 484 15 547 44 q 335 -14 421 -14 m 336 136 q 371 148 358 136 q 388 181 383 160 q 393 233 393 203 l 393 569 q 388 622 393 600 q 371 655 383 643 q 336 667 358 667 q 301 655 314 667 q 283 622 289 643 q 278 569 278 600 l 278 233 q 283 181 278 203 q 301 148 289 160 q 336 136 314 136 m 108 901 l 240 1133 l 425 1133 l 561 901 l 400 901 l 333 1040 l 268 901 l 108 901 m 522 1065 l 596 1236 l 764 1236 l 642 1065 l 522 1065 z "},"ộ":{"ha":671,"x_min":54,"x_max":617,"o":"m 335 -14 q 185 15 249 -14 q 88 103 122 44 q 54 249 54 161 l 54 554 q 88 700 54 642 q 185 788 122 758 q 335 817 249 817 q 484 788 421 817 q 582 700 547 758 q 617 554 617 642 l 617 249 q 582 103 617 161 q 484 15 547 44 q 335 -14 421 -14 m 336 136 q 371 148 358 136 q 388 181 383 160 q 393 233 393 203 l 393 569 q 388 622 393 600 q 371 655 383 643 q 336 667 358 667 q 301 655 314 667 q 283 622 289 643 q 278 569 278 600 l 278 233 q 283 181 278 203 q 301 148 289 160 q 336 136 314 136 m 239 -289 l 239 -97 l 433 -97 l 433 -289 l 239 -289 m 108 901 l 240 1133 l 425 1133 l 561 901 l 400 901 l 333 1040 l 268 901 l 108 901 z "},"ồ":{"ha":671,"x_min":54,"x_max":683,"o":"m 335 -14 q 185 15 249 -14 q 88 103 122 44 q 54 249 54 161 l 54 554 q 88 700 54 642 q 185 788 122 758 q 335 817 249 817 q 484 788 421 817 q 582 700 547 758 q 617 554 617 642 l 617 249 q 582 103 617 161 q 484 15 547 44 q 335 -14 421 -14 m 336 136 q 371 148 358 136 q 388 181 383 160 q 393 233 393 203 l 393 569 q 388 622 393 600 q 371 655 383 643 q 336 667 358 667 q 301 655 314 667 q 283 622 289 643 q 278 569 278 600 l 278 233 q 283 181 278 203 q 301 148 289 160 q 336 136 314 136 m 108 901 l 240 1133 l 425 1133 l 561 901 l 400 901 l 333 1040 l 268 901 l 108 901 m 563 1065 l 440 1236 l 610 1236 l 683 1065 l 563 1065 z "},"ổ":{"ha":671,"x_min":54,"x_max":706,"o":"m 335 -14 q 185 15 249 -14 q 88 103 122 44 q 54 249 54 161 l 54 554 q 88 700 54 642 q 185 788 122 758 q 335 817 249 817 q 484 788 421 817 q 582 700 547 758 q 617 554 617 642 l 617 249 q 582 103 617 161 q 484 15 547 44 q 335 -14 421 -14 m 336 136 q 371 148 358 136 q 388 181 383 160 q 393 233 393 203 l 393 569 q 388 622 393 600 q 371 655 383 643 q 336 667 358 667 q 301 655 314 667 q 283 622 289 643 q 278 569 278 600 l 278 233 q 283 181 278 203 q 301 148 289 160 q 336 136 314 136 m 579 1029 l 515 1097 q 553 1135 539 1117 q 567 1181 567 1154 q 549 1222 567 1207 q 503 1236 532 1236 q 463 1232 481 1236 q 432 1222 446 1228 l 432 1317 q 488 1333 460 1328 q 546 1339 515 1339 q 660 1305 615 1339 q 706 1201 706 1271 q 667 1096 706 1135 q 579 1029 629 1057 m 108 901 l 240 1133 l 425 1133 l 561 901 l 400 901 l 333 1040 l 268 901 l 108 901 z "},"ỗ":{"ha":671,"x_min":54,"x_max":617,"o":"m 335 -14 q 185 15 249 -14 q 88 103 122 44 q 54 249 54 161 l 54 554 q 88 700 54 642 q 185 788 122 758 q 335 817 249 817 q 484 788 421 817 q 582 700 547 758 q 617 554 617 642 l 617 249 q 582 103 617 161 q 484 15 547 44 q 335 -14 421 -14 m 336 136 q 371 148 358 136 q 388 181 383 160 q 393 233 393 203 l 393 569 q 388 622 393 600 q 371 655 383 643 q 336 667 358 667 q 301 655 314 667 q 283 622 289 643 q 278 569 278 600 l 278 233 q 283 181 278 203 q 301 148 289 160 q 336 136 314 136 z "},"ȍ":{"ha":671,"x_min":25,"x_max":617,"o":"m 335 -14 q 185 15 249 -14 q 88 103 122 44 q 54 249 54 161 l 54 554 q 88 700 54 642 q 185 788 122 758 q 335 817 249 817 q 484 788 421 817 q 582 700 547 758 q 617 554 617 642 l 617 249 q 582 103 617 161 q 484 15 547 44 q 335 -14 421 -14 m 336 136 q 371 148 358 136 q 388 181 383 160 q 393 233 393 203 l 393 569 q 388 622 393 600 q 371 655 383 643 q 336 667 358 667 q 301 655 314 667 q 283 622 289 643 q 278 569 278 600 l 278 233 q 283 181 278 203 q 301 148 289 160 q 336 136 314 136 m 164 886 l 25 1174 l 197 1174 l 286 886 l 164 886 m 407 886 l 279 1174 l 444 1174 l 526 886 l 407 886 z "},"ö":{"ha":671,"x_min":54,"x_max":617,"o":"m 335 -14 q 185 15 249 -14 q 88 103 122 44 q 54 249 54 161 l 54 554 q 88 700 54 642 q 185 788 122 758 q 335 817 249 817 q 484 788 421 817 q 582 700 547 758 q 617 554 617 642 l 617 249 q 582 103 617 161 q 484 15 547 44 q 335 -14 421 -14 m 336 136 q 371 148 358 136 q 388 181 383 160 q 393 233 393 203 l 393 569 q 388 622 393 600 q 371 655 383 643 q 336 667 358 667 q 301 655 314 667 q 283 622 289 643 q 278 569 278 600 l 278 233 q 283 181 278 203 q 301 148 289 160 q 336 136 314 136 m 396 919 l 396 1125 l 576 1125 l 576 919 l 396 919 m 93 919 l 93 1125 l 274 1125 l 274 919 l 93 919 z "},"ȫ":{"ha":671,"x_min":54,"x_max":617,"o":"m 335 -14 q 185 15 249 -14 q 88 103 122 44 q 54 249 54 161 l 54 554 q 88 700 54 642 q 185 788 122 758 q 335 817 249 817 q 484 788 421 817 q 582 700 547 758 q 617 554 617 642 l 617 249 q 582 103 617 161 q 484 15 547 44 q 335 -14 421 -14 m 336 136 q 371 148 358 136 q 388 181 383 160 q 393 233 393 203 l 393 569 q 388 622 393 600 q 371 655 383 643 q 336 667 358 667 q 301 655 314 667 q 283 622 289 643 q 278 569 278 600 l 278 233 q 283 181 278 203 q 301 148 289 160 q 336 136 314 136 m 396 919 l 396 1125 l 576 1125 l 576 919 l 396 919 m 93 919 l 93 1125 l 274 1125 l 274 919 l 93 919 m 143 1247 l 143 1354 l 526 1354 l 526 1247 l 143 1247 z "},"ȱ":{"ha":671,"x_min":54,"x_max":617,"o":"m 335 -14 q 185 15 249 -14 q 88 103 122 44 q 54 249 54 161 l 54 554 q 88 700 54 642 q 185 788 122 758 q 335 817 249 817 q 484 788 421 817 q 582 700 547 758 q 617 554 617 642 l 617 249 q 582 103 617 161 q 484 15 547 44 q 335 -14 421 -14 m 336 136 q 371 148 358 136 q 388 181 383 160 q 393 233 393 203 l 393 569 q 388 622 393 600 q 371 655 383 643 q 336 667 358 667 q 301 655 314 667 q 283 622 289 643 q 278 569 278 600 l 278 233 q 283 181 278 203 q 301 148 289 160 q 336 136 314 136 m 228 906 l 228 1119 l 442 1119 l 442 906 l 228 906 m 143 1242 l 143 1349 l 526 1349 l 526 1242 l 143 1242 z "},"ọ":{"ha":671,"x_min":54,"x_max":617,"o":"m 335 -14 q 185 15 249 -14 q 88 103 122 44 q 54 249 54 161 l 54 554 q 88 700 54 642 q 185 788 122 758 q 335 817 249 817 q 484 788 421 817 q 582 700 547 758 q 617 554 617 642 l 617 249 q 582 103 617 161 q 484 15 547 44 q 335 -14 421 -14 m 336 136 q 371 148 358 136 q 388 181 383 160 q 393 233 393 203 l 393 569 q 388 622 393 600 q 371 655 383 643 q 336 667 358 667 q 301 655 314 667 q 283 622 289 643 q 278 569 278 600 l 278 233 q 283 181 278 203 q 301 148 289 160 q 336 136 314 136 m 239 -289 l 239 -97 l 433 -97 l 433 -289 l 239 -289 z "},"ò":{"ha":671,"x_min":54,"x_max":617,"o":"m 335 -14 q 185 15 249 -14 q 88 103 122 44 q 54 249 54 161 l 54 554 q 88 700 54 642 q 185 788 122 758 q 335 817 249 817 q 484 788 421 817 q 582 700 547 758 q 617 554 617 642 l 617 249 q 582 103 617 161 q 484 15 547 44 q 335 -14 421 -14 m 336 136 q 371 148 358 136 q 388 181 383 160 q 393 233 393 203 l 393 569 q 388 622 393 600 q 371 655 383 643 q 336 667 358 667 q 301 655 314 667 q 283 622 289 643 q 278 569 278 600 l 278 233 q 283 181 278 203 q 301 148 289 160 q 336 136 314 136 m 268 892 l 92 1171 l 325 1171 l 410 892 l 268 892 z "},"ỏ":{"ha":671,"x_min":54,"x_max":617,"o":"m 335 -14 q 185 15 249 -14 q 88 103 122 44 q 54 249 54 161 l 54 554 q 88 700 54 642 q 185 788 122 758 q 335 817 249 817 q 484 788 421 817 q 582 700 547 758 q 617 554 617 642 l 617 249 q 582 103 617 161 q 484 15 547 44 q 335 -14 421 -14 m 336 136 q 371 148 358 136 q 388 181 383 160 q 393 233 393 203 l 393 569 q 388 622 393 600 q 371 655 383 643 q 336 667 358 667 q 301 655 314 667 q 283 622 289 643 q 278 569 278 600 l 278 233 q 283 181 278 203 q 301 148 289 160 q 336 136 314 136 m 335 871 l 258 943 q 329 981 300 963 q 358 1032 358 1000 q 336 1070 358 1060 q 279 1081 314 1081 q 234 1078 257 1081 q 193 1071 211 1075 l 193 1165 q 335 1183 260 1183 q 418 1169 379 1183 q 481 1126 457 1156 q 504 1046 504 1096 q 481 964 504 997 q 419 909 457 931 q 335 871 381 888 z "},"ơ":{"ha":671,"x_min":54,"x_max":617,"o":"m 335 -14 q 185 15 249 -14 q 88 103 122 44 q 54 249 54 161 l 54 554 q 88 700 54 642 q 185 788 122 758 q 335 817 249 817 q 484 788 421 817 q 582 700 547 758 q 617 554 617 642 l 617 249 q 582 103 617 161 q 484 15 547 44 q 335 -14 421 -14 m 336 136 q 371 148 358 136 q 388 181 383 160 q 393 233 393 203 l 393 569 q 388 622 393 600 q 371 655 383 643 q 336 667 358 667 q 301 655 314 667 q 283 622 289 643 q 278 569 278 600 l 278 233 q 283 181 278 203 q 301 148 289 160 q 336 136 314 136 m 369 713 l 369 803 l 383 803 q 442 833 425 803 q 458 922 458 863 l 617 922 q 551 765 617 817 q 383 713 486 713 l 369 713 z "},"ớ":{"ha":671,"x_min":54,"x_max":617,"o":"m 335 -14 q 185 15 249 -14 q 88 103 122 44 q 54 249 54 161 l 54 554 q 88 700 54 642 q 185 788 122 758 q 335 817 249 817 q 484 788 421 817 q 582 700 547 758 q 617 554 617 642 l 617 249 q 582 103 617 161 q 484 15 547 44 q 335 -14 421 -14 m 336 136 q 371 148 358 136 q 388 181 383 160 q 393 233 393 203 l 393 569 q 388 622 393 600 q 371 655 383 643 q 336 667 358 667 q 301 655 314 667 q 283 622 289 643 q 278 569 278 600 l 278 233 q 283 181 278 203 q 301 148 289 160 q 336 136 314 136 m 369 713 l 369 803 l 383 803 q 442 833 425 803 q 458 922 458 863 l 617 922 q 551 765 617 817 q 383 713 486 713 l 369 713 m 260 935 l 347 1214 l 578 1214 l 403 935 l 260 935 z "},"ợ":{"ha":671,"x_min":54,"x_max":617,"o":"m 335 -14 q 185 15 249 -14 q 88 103 122 44 q 54 249 54 161 l 54 554 q 88 700 54 642 q 185 788 122 758 q 335 817 249 817 q 484 788 421 817 q 582 700 547 758 q 617 554 617 642 l 617 249 q 582 103 617 161 q 484 15 547 44 q 335 -14 421 -14 m 336 136 q 371 148 358 136 q 388 181 383 160 q 393 233 393 203 l 393 569 q 388 622 393 600 q 371 655 383 643 q 336 667 358 667 q 301 655 314 667 q 283 622 289 643 q 278 569 278 600 l 278 233 q 283 181 278 203 q 301 148 289 160 q 336 136 314 136 m 369 713 l 369 803 l 383 803 q 442 833 425 803 q 458 922 458 863 l 617 922 q 551 765 617 817 q 383 713 486 713 l 369 713 m 238 -289 l 238 -97 l 432 -97 l 432 -289 l 238 -289 z "},"ờ":{"ha":671,"x_min":54,"x_max":617,"o":"m 335 -14 q 185 15 249 -14 q 88 103 122 44 q 54 249 54 161 l 54 554 q 88 700 54 642 q 185 788 122 758 q 335 817 249 817 q 484 788 421 817 q 582 700 547 758 q 617 554 617 642 l 617 249 q 582 103 617 161 q 484 15 547 44 q 335 -14 421 -14 m 336 136 q 371 148 358 136 q 388 181 383 160 q 393 233 393 203 l 393 569 q 388 622 393 600 q 371 655 383 643 q 336 667 358 667 q 301 655 314 667 q 283 622 289 643 q 278 569 278 600 l 278 233 q 283 181 278 203 q 301 148 289 160 q 336 136 314 136 m 369 713 l 369 803 l 383 803 q 442 833 425 803 q 458 922 458 863 l 617 922 q 551 765 617 817 q 383 713 486 713 l 369 713 m 268 935 l 92 1214 l 325 1214 l 410 935 l 268 935 z "},"ở":{"ha":671,"x_min":54,"x_max":617,"o":"m 335 -14 q 185 15 249 -14 q 88 103 122 44 q 54 249 54 161 l 54 554 q 88 700 54 642 q 185 788 122 758 q 335 817 249 817 q 484 788 421 817 q 582 700 547 758 q 617 554 617 642 l 617 249 q 582 103 617 161 q 484 15 547 44 q 335 -14 421 -14 m 336 136 q 371 148 358 136 q 388 181 383 160 q 393 233 393 203 l 393 569 q 388 622 393 600 q 371 655 383 643 q 336 667 358 667 q 301 655 314 667 q 283 622 289 643 q 278 569 278 600 l 278 233 q 283 181 278 203 q 301 148 289 160 q 336 136 314 136 m 369 713 l 369 803 l 383 803 q 442 833 425 803 q 458 922 458 863 l 617 922 q 551 765 617 817 q 383 713 486 713 l 369 713 m 335 914 l 258 986 q 329 1024 300 1006 q 358 1075 358 1043 q 336 1113 358 1103 q 279 1124 314 1124 q 234 1121 257 1124 q 193 1114 211 1118 l 193 1208 q 335 1226 260 1226 q 418 1213 379 1226 q 481 1169 457 1199 q 504 1089 504 1139 q 481 1007 504 1040 q 419 952 457 974 q 335 914 381 931 z "},"ỡ":{"ha":671,"x_min":54,"x_max":617,"o":"m 335 -14 q 185 15 249 -14 q 88 103 122 44 q 54 249 54 161 l 54 554 q 88 700 54 642 q 185 788 122 758 q 335 817 249 817 q 484 788 421 817 q 582 700 547 758 q 617 554 617 642 l 617 249 q 582 103 617 161 q 484 15 547 44 q 335 -14 421 -14 m 336 136 q 371 148 358 136 q 388 181 383 160 q 393 233 393 203 l 393 569 q 388 622 393 600 q 371 655 383 643 q 336 667 358 667 q 301 655 314 667 q 283 622 289 643 q 278 569 278 600 l 278 233 q 283 181 278 203 q 301 148 289 160 q 336 136 314 136 m 369 713 l 369 803 l 383 803 q 442 833 425 803 q 458 922 458 863 l 617 922 q 551 765 617 817 q 383 713 486 713 l 369 713 m 447 971 q 383 988 413 971 q 328 1020 354 1004 q 274 1036 301 1036 q 233 1019 243 1036 q 224 979 224 1001 l 115 979 q 126 1081 115 1036 q 165 1151 138 1125 q 240 1176 193 1176 q 302 1161 275 1176 q 356 1131 329 1146 q 411 1115 382 1115 q 444 1131 435 1115 q 454 1168 454 1146 l 554 1168 q 548 1078 554 1124 q 519 1001 542 1032 q 447 971 496 971 z "},"ő":{"ha":671,"x_min":54,"x_max":676,"o":"m 335 -14 q 185 15 249 -14 q 88 103 122 44 q 54 249 54 161 l 54 554 q 88 700 54 642 q 185 788 122 758 q 335 817 249 817 q 484 788 421 817 q 582 700 547 758 q 617 554 617 642 l 617 249 q 582 103 617 161 q 484 15 547 44 q 335 -14 421 -14 m 336 136 q 371 148 358 136 q 388 181 383 160 q 393 233 393 203 l 393 569 q 388 622 393 600 q 371 655 383 643 q 336 667 358 667 q 301 655 314 667 q 283 622 289 643 q 278 569 278 600 l 278 233 q 283 181 278 203 q 301 148 289 160 q 336 136 314 136 m 393 879 l 482 1179 l 676 1179 l 510 879 l 393 879 m 146 879 l 229 1179 l 413 1179 l 263 879 l 146 879 z "},"ȏ":{"ha":671,"x_min":54,"x_max":617,"o":"m 335 -14 q 185 15 249 -14 q 88 103 122 44 q 54 249 54 161 l 54 554 q 88 700 54 642 q 185 788 122 758 q 335 817 249 817 q 484 788 421 817 q 582 700 547 758 q 617 554 617 642 l 617 249 q 582 103 617 161 q 484 15 547 44 q 335 -14 421 -14 m 336 136 q 371 148 358 136 q 388 181 383 160 q 393 233 393 203 l 393 569 q 388 622 393 600 q 371 655 383 643 q 336 667 358 667 q 301 655 314 667 q 283 622 289 643 q 278 569 278 600 l 278 233 q 283 181 278 203 q 301 148 289 160 q 336 136 314 136 m 117 901 q 143 1022 117 974 q 219 1097 169 1071 q 335 1122 268 1122 q 451 1097 403 1122 q 526 1022 500 1071 q 553 901 553 974 l 425 901 q 404 981 425 956 q 335 1007 383 1007 q 265 982 286 1007 q 244 901 244 957 l 117 901 z "},"ō":{"ha":671,"x_min":54,"x_max":617,"o":"m 335 -14 q 185 15 249 -14 q 88 103 122 44 q 54 249 54 161 l 54 554 q 88 700 54 642 q 185 788 122 758 q 335 817 249 817 q 484 788 421 817 q 582 700 547 758 q 617 554 617 642 l 617 249 q 582 103 617 161 q 484 15 547 44 q 335 -14 421 -14 m 336 136 q 371 148 358 136 q 388 181 383 160 q 393 233 393 203 l 393 569 q 388 622 393 600 q 371 655 383 643 q 336 667 358 667 q 301 655 314 667 q 283 622 289 643 q 278 569 278 600 l 278 233 q 283 181 278 203 q 301 148 289 160 q 336 136 314 136 m 143 925 l 143 1032 l 526 1032 l 526 925 l 143 925 z "},"ǫ":{"ha":671,"x_min":54,"x_max":617,"o":"m 335 -14 q 185 15 249 -14 q 88 103 122 44 q 54 249 54 161 l 54 554 q 88 700 54 642 q 185 788 122 758 q 335 817 249 817 q 484 788 421 817 q 582 700 547 758 q 617 554 617 642 l 617 249 q 582 103 617 161 q 484 15 547 44 q 335 -14 421 -14 m 336 136 q 371 148 358 136 q 388 181 383 160 q 393 233 393 203 l 393 569 q 388 622 393 600 q 371 655 383 643 q 336 667 358 667 q 301 655 314 667 q 283 622 289 643 q 278 569 278 600 l 278 233 q 283 181 278 203 q 301 148 289 160 q 336 136 314 136 m 446 -358 q 372 -353 411 -358 q 300 -333 333 -349 q 246 -288 267 -318 q 225 -208 225 -258 q 240 -133 225 -172 q 281 -58 256 -93 q 333 3 306 -22 l 435 3 q 410 -49 422 -21 q 392 -107 399 -78 q 385 -165 385 -136 q 412 -230 385 -212 q 474 -247 439 -247 q 496 -247 485 -247 q 514 -244 507 -246 l 492 -354 q 472 -357 483 -356 q 446 -358 460 -358 z "},"ø":{"ha":663,"x_min":54,"x_max":617,"o":"m 144 -124 l 93 -101 l 510 935 l 564 913 l 144 -124 m 335 -14 q 185 15 249 -14 q 88 103 122 44 q 54 249 54 161 l 54 554 q 88 700 54 642 q 185 788 122 758 q 335 817 249 817 q 484 788 421 817 q 582 700 547 758 q 617 554 617 642 l 617 249 q 582 103 617 161 q 484 15 547 44 q 335 -14 421 -14 m 336 136 q 371 148 358 136 q 388 181 383 160 q 393 233 393 203 l 393 569 q 388 622 393 600 q 371 655 383 643 q 336 667 358 667 q 301 655 314 667 q 283 622 289 643 q 278 569 278 600 l 278 233 q 283 181 278 203 q 301 148 289 160 q 336 136 314 136 z "},"ǿ":{"ha":663,"x_min":54,"x_max":617,"o":"m 144 -124 l 93 -101 l 510 935 l 564 913 l 144 -124 m 335 -14 q 185 15 249 -14 q 88 103 122 44 q 54 249 54 161 l 54 554 q 88 700 54 642 q 185 788 122 758 q 335 817 249 817 q 484 788 421 817 q 582 700 547 758 q 617 554 617 642 l 617 249 q 582 103 617 161 q 484 15 547 44 q 335 -14 421 -14 m 336 136 q 371 148 358 136 q 388 181 383 160 q 393 233 393 203 l 393 569 q 388 622 393 600 q 371 655 383 643 q 336 667 358 667 q 301 655 314 667 q 283 622 289 643 q 278 569 278 600 l 278 233 q 283 181 278 203 q 301 148 289 160 q 336 136 314 136 m 257 892 l 344 1171 l 575 1171 l 400 892 l 257 892 z "},"õ":{"ha":671,"x_min":54,"x_max":617,"o":"m 335 -14 q 185 15 249 -14 q 88 103 122 44 q 54 249 54 161 l 54 554 q 88 700 54 642 q 185 788 122 758 q 335 817 249 817 q 484 788 421 817 q 582 700 547 758 q 617 554 617 642 l 617 249 q 582 103 617 161 q 484 15 547 44 q 335 -14 421 -14 m 336 136 q 371 148 358 136 q 388 181 383 160 q 393 233 393 203 l 393 569 q 388 622 393 600 q 371 655 383 643 q 336 667 358 667 q 301 655 314 667 q 283 622 289 643 q 278 569 278 600 l 278 233 q 283 181 278 203 q 301 148 289 160 q 336 136 314 136 m 447 928 q 383 944 413 928 q 328 977 354 961 q 274 993 301 993 q 233 976 243 993 q 224 936 224 958 l 115 936 q 126 1038 115 993 q 165 1108 138 1082 q 240 1133 193 1133 q 302 1118 275 1133 q 356 1088 329 1103 q 411 1072 382 1072 q 444 1088 435 1072 q 454 1125 454 1103 l 554 1125 q 548 1035 554 1081 q 519 958 542 989 q 447 928 496 928 z "},"ȭ":{"ha":671,"x_min":54,"x_max":617,"o":"m 335 -14 q 185 15 249 -14 q 88 103 122 44 q 54 249 54 161 l 54 554 q 88 700 54 642 q 185 788 122 758 q 335 817 249 817 q 484 788 421 817 q 582 700 547 758 q 617 554 617 642 l 617 249 q 582 103 617 161 q 484 15 547 44 q 335 -14 421 -14 m 336 136 q 371 148 358 136 q 388 181 383 160 q 393 233 393 203 l 393 569 q 388 622 393 600 q 371 655 383 643 q 336 667 358 667 q 301 655 314 667 q 283 622 289 643 q 278 569 278 600 l 278 233 q 283 181 278 203 q 301 148 289 160 q 336 136 314 136 m 447 928 q 383 944 413 928 q 328 977 354 961 q 274 993 301 993 q 233 976 243 993 q 224 936 224 958 l 115 936 q 126 1038 115 993 q 165 1108 138 1082 q 240 1133 193 1133 q 302 1118 275 1133 q 356 1088 329 1103 q 411 1072 382 1072 q 444 1088 435 1072 q 454 1125 454 1103 l 554 1125 q 548 1035 554 1081 q 519 958 542 989 q 447 928 496 928 m 143 1256 l 143 1363 l 526 1363 l 526 1256 l 143 1256 z "},"œ":{"ha":979,"x_min":57,"x_max":931,"o":"m 293 -18 q 174 10 228 -18 q 89 96 121 39 q 57 242 57 153 l 57 592 q 88 729 57 675 q 176 810 119 783 q 306 836 232 836 q 383 824 343 836 q 455 790 422 813 q 500 733 488 768 q 546 791 514 768 q 617 825 578 814 q 690 836 656 836 q 832 801 779 836 q 908 702 885 765 q 931 556 931 639 l 931 386 l 624 386 l 624 243 q 628 183 624 210 q 643 140 632 156 q 674 124 654 124 q 708 146 699 124 q 718 208 718 168 l 718 315 l 931 315 l 931 210 q 872 43 931 104 q 697 -18 813 -18 q 569 9 622 -18 q 494 83 517 36 q 423 11 471 40 q 293 -18 375 -18 m 331 124 q 361 133 349 124 q 381 167 374 143 q 388 235 388 192 l 388 603 q 381 656 388 635 q 363 687 375 676 q 333 697 351 697 q 304 688 317 697 q 285 657 292 678 q 279 603 279 636 l 279 236 q 284 178 279 203 q 301 138 289 153 q 331 124 313 124 m 624 506 l 721 506 l 721 618 q 715 660 721 642 q 697 688 708 678 q 671 697 686 697 q 647 688 657 697 q 630 662 636 679 q 624 618 624 644 l 624 506 z "},"p":{"ha":701,"x_min":71,"x_max":643,"o":"m 71 -264 l 71 803 l 297 803 l 297 744 q 383 799 338 781 q 471 817 429 817 q 549 799 517 817 q 603 748 582 781 q 633 672 624 715 q 643 581 643 629 l 643 235 q 623 104 643 160 q 564 17 603 49 q 468 -14 525 -14 q 381 6 425 -14 q 297 61 338 26 l 297 -264 l 71 -264 m 357 132 q 392 144 379 132 q 410 177 404 157 q 417 222 417 197 l 417 597 q 411 640 417 621 q 393 669 406 658 q 361 681 381 681 q 327 673 343 681 q 297 653 311 665 l 297 153 q 327 138 313 143 q 357 132 342 132 z "},"ṗ":{"ha":701,"x_min":71,"x_max":643,"o":"m 71 -264 l 71 803 l 297 803 l 297 744 q 383 799 338 781 q 471 817 429 817 q 549 799 517 817 q 603 748 582 781 q 633 672 624 715 q 643 581 643 629 l 643 235 q 623 104 643 160 q 564 17 603 49 q 468 -14 525 -14 q 381 6 425 -14 q 297 61 338 26 l 297 -264 l 71 -264 m 357 132 q 392 144 379 132 q 410 177 404 157 q 417 222 417 197 l 417 597 q 411 640 417 621 q 393 669 406 658 q 361 681 381 681 q 327 673 343 681 q 297 653 311 665 l 297 153 q 327 138 313 143 q 357 132 342 132 m 243 906 l 243 1119 l 457 1119 l 457 906 l 243 906 z "},"þ":{"ha":686,"x_min":64,"x_max":635,"o":"m 64 -264 l 64 1125 l 290 1125 l 290 744 q 376 799 332 781 q 464 817 421 817 q 542 799 510 817 q 594 748 574 781 q 625 672 615 715 q 635 581 635 629 l 635 235 q 615 104 635 160 q 556 17 594 49 q 460 -14 517 -14 q 374 6 417 -14 q 290 60 331 26 l 290 -264 l 64 -264 m 350 132 q 383 144 371 132 q 401 177 396 157 q 407 222 407 197 l 407 597 q 401 640 407 621 q 384 669 396 658 q 351 681 372 681 q 321 674 336 681 q 290 653 306 667 l 290 153 q 319 138 304 143 q 350 132 335 132 z "},"q":{"ha":700,"x_min":58,"x_max":632,"o":"m 406 -264 l 406 67 q 326 8 367 29 q 244 -14 286 -14 q 106 49 154 -14 q 58 233 58 111 l 58 565 q 79 697 58 640 q 142 785 100 753 q 244 817 183 817 q 331 799 290 817 q 406 749 371 781 l 406 803 l 632 803 l 632 -264 l 406 -264 m 344 131 q 373 137 357 131 q 406 153 389 143 l 406 656 q 376 671 392 665 q 346 676 361 676 q 299 651 314 676 q 285 589 285 625 l 285 219 q 291 174 285 194 q 310 142 297 154 q 344 131 324 131 z "},"r":{"ha":532,"x_min":74,"x_max":507,"o":"m 74 0 l 74 803 l 300 803 l 300 669 q 378 776 339 739 q 472 813 417 813 q 492 812 483 813 q 507 808 500 811 l 507 583 q 473 595 492 590 q 433 600 454 600 q 361 579 394 600 q 300 522 328 558 l 300 0 l 74 0 z "},"ŕ":{"ha":532,"x_min":74,"x_max":518,"o":"m 74 0 l 74 803 l 300 803 l 300 669 q 378 776 339 739 q 472 813 417 813 q 492 812 483 813 q 507 808 500 811 l 507 583 q 473 595 492 590 q 433 600 454 600 q 361 579 394 600 q 300 522 328 558 l 300 0 l 74 0 m 200 892 l 288 1171 l 518 1171 l 343 892 l 200 892 z "},"ř":{"ha":532,"x_min":43,"x_max":507,"o":"m 74 0 l 74 803 l 300 803 l 300 669 q 378 776 339 739 q 472 813 417 813 q 492 812 483 813 q 507 808 500 811 l 507 583 q 473 595 492 590 q 433 600 454 600 q 361 579 394 600 q 300 522 328 558 l 300 0 l 74 0 m 165 888 l 43 1147 l 204 1147 l 275 994 l 346 1147 l 507 1147 l 385 888 l 165 888 z "},"ŗ":{"ha":532,"x_min":74,"x_max":507,"o":"m 74 0 l 74 803 l 300 803 l 300 669 q 378 776 339 739 q 472 813 417 813 q 492 812 483 813 q 507 808 500 811 l 507 583 q 473 595 492 590 q 433 600 454 600 q 361 579 394 600 q 300 522 328 558 l 300 0 l 74 0 m 118 -494 l 100 -419 q 169 -390 139 -412 q 199 -307 199 -367 l 81 -307 l 81 -96 l 294 -96 l 293 -276 q 251 -435 293 -379 q 118 -494 210 -492 z "},"ȑ":{"ha":532,"x_min":-35,"x_max":507,"o":"m 74 0 l 74 803 l 300 803 l 300 669 q 378 776 339 739 q 472 813 417 813 q 492 812 483 813 q 507 808 500 811 l 507 583 q 473 595 492 590 q 433 600 454 600 q 361 579 394 600 q 300 522 328 558 l 300 0 l 74 0 m 104 886 l -35 1174 l 138 1174 l 226 886 l 104 886 m 347 886 l 219 1174 l 385 1174 l 467 886 l 347 886 z "},"ȓ":{"ha":532,"x_min":57,"x_max":507,"o":"m 74 0 l 74 803 l 300 803 l 300 669 q 378 776 339 739 q 472 813 417 813 q 492 812 483 813 q 507 808 500 811 l 507 583 q 473 595 492 590 q 433 600 454 600 q 361 579 394 600 q 300 522 328 558 l 300 0 l 74 0 m 57 901 q 83 1022 57 974 q 159 1097 110 1071 q 275 1122 208 1122 q 392 1097 343 1122 q 467 1022 440 1071 q 493 901 493 974 l 365 901 q 344 981 365 956 q 275 1007 324 1007 q 206 982 226 1007 q 185 901 185 957 l 57 901 z "},"s":{"ha":589,"x_min":28,"x_max":564,"o":"m 318 -14 q 142 33 213 -14 q 28 188 72 81 l 182 256 q 234 170 204 201 q 300 139 264 139 q 340 150 326 139 q 353 181 353 161 q 328 239 353 213 q 242 317 304 265 l 183 365 q 83 470 119 419 q 46 596 46 521 q 80 711 46 661 q 171 789 114 761 q 293 817 228 817 q 458 763 392 817 q 551 610 525 708 l 406 543 q 382 596 397 569 q 345 640 367 622 q 299 658 324 658 q 263 646 276 658 q 250 613 250 633 q 280 556 250 586 q 363 482 310 525 l 419 432 q 488 369 454 403 q 542 296 521 336 q 564 204 564 256 q 529 85 564 135 q 438 11 494 36 q 318 -14 382 -14 z "},"ś":{"ha":589,"x_min":28,"x_max":564,"o":"m 318 -14 q 142 33 213 -14 q 28 188 72 81 l 182 256 q 234 170 204 201 q 300 139 264 139 q 340 150 326 139 q 353 181 353 161 q 328 239 353 213 q 242 317 304 265 l 183 365 q 83 470 119 419 q 46 596 46 521 q 80 711 46 661 q 171 789 114 761 q 293 817 228 817 q 458 763 392 817 q 551 610 525 708 l 406 543 q 382 596 397 569 q 345 640 367 622 q 299 658 324 658 q 263 646 276 658 q 250 613 250 633 q 280 556 250 586 q 363 482 310 525 l 419 432 q 488 369 454 403 q 542 296 521 336 q 564 204 564 256 q 529 85 564 135 q 438 11 494 36 q 318 -14 382 -14 m 219 892 l 307 1171 l 538 1171 l 363 892 l 219 892 z "},"š":{"ha":589,"x_min":28,"x_max":564,"o":"m 318 -14 q 142 33 213 -14 q 28 188 72 81 l 182 256 q 234 170 204 201 q 300 139 264 139 q 340 150 326 139 q 353 181 353 161 q 328 239 353 213 q 242 317 304 265 l 183 365 q 83 470 119 419 q 46 596 46 521 q 80 711 46 661 q 171 789 114 761 q 293 817 228 817 q 458 763 392 817 q 551 610 525 708 l 406 543 q 382 596 397 569 q 345 640 367 622 q 299 658 324 658 q 263 646 276 658 q 250 613 250 633 q 280 556 250 586 q 363 482 310 525 l 419 432 q 488 369 454 403 q 542 296 521 336 q 564 204 564 256 q 529 85 564 135 q 438 11 494 36 q 318 -14 382 -14 m 185 888 l 63 1147 l 224 1147 l 294 994 l 365 1147 l 526 1147 l 404 888 l 185 888 z "}}}
